<?xml version="1.0" encoding="utf-8"?>
<!-- Generator: Adobe Illustrator 23.0.1, SVG Export Plug-In . SVG Version: 6.00 Build 0)  -->
<svg version="1.1" id="Layer_1" xmlns="http://www.w3.org/2000/svg" xmlns:xlink="http://www.w3.org/1999/xlink" x="0px" y="0px"
	 viewBox="0 0 400 150" style="enable-background:new 0 0 400 150;" xml:space="preserve">
<style type="text/css">
	.st0{fill:#06C167;}
	.st1{fill:#142328;}
</style>
<path class="st0" d="M286.9,81.7c0-7-5.6-12.5-12.6-12.5c-6.9-0.1-12.6,5.4-12.7,12.3s5.4,12.6,12.3,12.7c0.1,0,0.3,0,0.4,0
	C281.3,94.2,286.9,88.7,286.9,81.7 M297.2,61.3v40.9h-10.5v-3.7c-3.7,3.1-8.4,4.8-13.3,4.7c-12.4,0-22.2-9.6-22.2-21.5
	s9.7-21.5,22.2-21.5c4.8,0,9.6,1.6,13.3,4.7v-3.7L297.2,61.3z M332.1,92.9h-7.9c-2.4,0-3.9-1-3.9-3.2V70.6h11.8v-9.3h-11.8V49.7
	h-10.6v11.6h-8v9.3h8v21.8c0,5.5,3.9,9.8,11.1,9.8h11.4L332.1,92.9z M356,103.2c12.1,0,19-5.7,19-13.5c0-5.6-4-9.7-12.5-11.5l-9-1.8
	c-5.2-0.9-6.8-1.9-6.8-3.8c0-2.5,2.5-4,7.1-4c5,0,8.7,1.3,9.7,5.9H374c-0.6-8.5-6.8-14.2-19.6-14.2c-11,0-18.7,4.4-18.7,13
	c0,6,4.2,9.8,13.4,11.7l10,2.3c3.9,0.8,5,1.8,5,3.4c0,2.6-3,4.2-7.8,4.2c-6.1,0-9.5-1.3-10.9-5.9h-10.6
	C336.5,97.5,342.9,103.2,356,103.2 M208.8,46.8h39.6v9.5h-28.9v13.5h28.1V79h-28.1v13.7h28.9v9.5h-39.6V46.8z"/>
<path class="st1" d="M190,68.9v-7.4h-2.8c-4.5,0-7.8,2.1-9.8,5.3v-5h-8v40.3h8.1V79.2c0-6.2,3.9-10.3,9.2-10.3L190,68.9z
	 M131.6,78.2c1.4-6.2,6.5-10.3,12.5-10.3c6,0,11.1,4.1,12.5,10.3H131.6z M144.3,61c-11.5-0.1-21,9.2-21.1,20.7c0,0.1,0,0.1,0,0.2
	c0,12,9.5,21,21.8,21c7.5,0,13.6-3.2,17.7-8.6l-5.9-4.3c-3.1,4-7.1,5.9-11.8,5.9c-6.7,0-12.5-4.8-13.6-11.4h33.4v-2.6
	C164.8,69.9,156.2,61,144.3,61 M97.9,96c-7.7,0.1-14.1-6.1-14.2-13.9c0,0,0-0.1,0-0.1c0-7.8,6.4-14,14.2-14c7.7,0,14,6.3,14,14
	S105.6,96,97.9,96 M75.8,102.1h8V97c3.9,3.9,9.1,6,14.6,6c12.1,0,21.6-9.4,21.6-21c0-11.7-9.5-21.1-21.6-21.1
	c-5.5,0-10.7,2.1-14.6,6V46.8h-8.1V102.1z M47.3,95.6c7.8,0,13.8-5.9,13.8-14.7V46.8h8.4v55.3h-8.4V97c-3.8,3.9-9,6.1-14.9,6.1
	C34.2,103,25,94.4,25,81.4V46.8h8.4v34.1C33.4,89.8,39.4,95.6,47.3,95.6"/>
</svg>
