<svg xmlns="http://www.w3.org/2000/svg" viewBox="0 0 273.6 144"><defs><style>.cls-1{fill:#fff;}.cls-2{fill:#bf0a30;}.cls-3{fill:#002868;}</style></defs><title>american-flag</title><g id="white"><rect class="cls-1" width="273.6" height="144"/></g><g id="red_stripes" data-name="red stripes"><rect class="cls-2" width="273.6" height="11.08"/><rect class="cls-2" y="22.15" width="273.6" height="11.08"/><rect class="cls-2" y="44.31" width="273.6" height="11.08"/><rect class="cls-2" y="66.46" width="273.6" height="11.08"/><rect class="cls-2" y="88.62" width="273.6" height="11.08"/><rect class="cls-2" y="110.77" width="273.6" height="11.08"/><rect class="cls-2" y="132.92" width="273.6" height="11.08"/></g><g id="blue"><rect class="cls-3" width="109.44" height="77.54"/></g><g id="stars"><polygon class="cls-1" points="9.12 3.32 8.13 6.38 4.91 6.38 7.51 8.28 6.52 11.34 9.12 9.45 11.72 11.34 10.73 8.28 13.33 6.38 10.12 6.38 9.12 3.32"/><polygon class="cls-1" points="9.12 18.83 8.13 21.89 4.91 21.89 7.51 23.79 6.52 26.85 9.12 24.95 11.72 26.85 10.73 23.79 13.33 21.89 10.12 21.89 9.12 18.83"/><polygon class="cls-1" points="9.12 34.34 8.13 37.4 4.91 37.4 7.51 39.29 6.52 42.35 9.12 40.46 11.72 42.35 10.73 39.29 13.33 37.4 10.12 37.4 9.12 34.34"/><polygon class="cls-1" points="9.12 49.85 8.13 52.91 4.91 52.91 7.51 54.8 6.52 57.86 9.12 55.97 11.72 57.86 10.73 54.8 13.33 52.91 10.12 52.91 9.12 49.85"/><polygon class="cls-1" points="10.12 68.42 9.12 65.35 8.13 68.42 4.91 68.42 7.51 70.31 6.52 73.37 9.12 71.48 11.72 73.37 10.73 70.31 13.33 68.42 10.12 68.42"/><polygon class="cls-1" points="18.24 11.08 17.25 14.14 14.03 14.14 16.63 16.03 15.64 19.09 18.24 17.2 20.84 19.09 19.85 16.03 22.45 14.14 19.23 14.14 18.24 11.08"/><polygon class="cls-1" points="18.24 26.59 17.25 29.65 14.03 29.65 16.63 31.54 15.64 34.6 18.24 32.71 20.84 34.6 19.85 31.54 22.45 29.65 19.23 29.65 18.24 26.59"/><polygon class="cls-1" points="18.24 42.09 17.25 45.15 14.03 45.15 16.63 47.05 15.64 50.11 18.24 48.22 20.84 50.11 19.85 47.05 22.45 45.15 19.23 45.15 18.24 42.09"/><polygon class="cls-1" points="19.23 60.66 18.24 57.6 17.25 60.66 14.03 60.66 16.63 62.55 15.64 65.61 18.24 63.72 20.84 65.61 19.85 62.55 22.45 60.66 19.23 60.66"/><polygon class="cls-1" points="27.36 3.32 26.36 6.38 23.15 6.38 25.75 8.28 24.76 11.34 27.36 9.45 29.96 11.34 28.97 8.28 31.57 6.38 28.36 6.38 27.36 3.32"/><polygon class="cls-1" points="27.36 18.83 26.36 21.89 23.15 21.89 25.75 23.79 24.76 26.85 27.36 24.95 29.96 26.85 28.97 23.79 31.57 21.89 28.36 21.89 27.36 18.83"/><polygon class="cls-1" points="27.36 34.34 26.36 37.4 23.15 37.4 25.75 39.29 24.76 42.35 27.36 40.46 29.96 42.35 28.97 39.29 31.57 37.4 28.36 37.4 27.36 34.34"/><polygon class="cls-1" points="27.36 49.85 26.36 52.91 23.15 52.91 25.75 54.8 24.76 57.86 27.36 55.97 29.96 57.86 28.97 54.8 31.57 52.91 28.36 52.91 27.36 49.85"/><polygon class="cls-1" points="28.36 68.42 27.36 65.35 26.36 68.42 23.15 68.42 25.75 70.31 24.76 73.37 27.36 71.48 29.96 73.37 28.97 70.31 31.57 68.42 28.36 68.42"/><polygon class="cls-1" points="36.48 11.08 35.48 14.14 32.27 14.14 34.87 16.03 33.88 19.09 36.48 17.2 39.08 19.09 38.09 16.03 40.69 14.14 37.48 14.14 36.48 11.08"/><polygon class="cls-1" points="36.48 26.59 35.48 29.65 32.27 29.65 34.87 31.54 33.88 34.6 36.48 32.71 39.08 34.6 38.09 31.54 40.69 29.65 37.48 29.65 36.48 26.59"/><polygon class="cls-1" points="36.48 42.09 35.48 45.15 32.27 45.15 34.87 47.05 33.88 50.11 36.48 48.22 39.08 50.11 38.09 47.05 40.69 45.15 37.48 45.15 36.48 42.09"/><polygon class="cls-1" points="37.48 60.66 36.48 57.6 35.48 60.66 32.27 60.66 34.87 62.55 33.88 65.61 36.48 63.72 39.08 65.61 38.09 62.55 40.69 60.66 37.48 60.66"/><polygon class="cls-1" points="45.6 3.32 44.6 6.38 41.39 6.38 43.99 8.28 43 11.34 45.6 9.45 48.2 11.34 47.21 8.28 49.81 6.38 46.59 6.38 45.6 3.32"/><polygon class="cls-1" points="45.6 18.83 44.6 21.89 41.39 21.89 43.99 23.79 43 26.85 45.6 24.95 48.2 26.85 47.21 23.79 49.81 21.89 46.59 21.89 45.6 18.83"/><polygon class="cls-1" points="45.6 34.34 44.6 37.4 41.39 37.4 43.99 39.29 43 42.35 45.6 40.46 48.2 42.35 47.21 39.29 49.81 37.4 46.59 37.4 45.6 34.34"/><polygon class="cls-1" points="45.6 49.85 44.6 52.91 41.39 52.91 43.99 54.8 43 57.86 45.6 55.97 48.2 57.86 47.21 54.8 49.81 52.91 46.59 52.91 45.6 49.85"/><polygon class="cls-1" points="46.59 68.42 45.6 65.35 44.6 68.42 41.39 68.42 43.99 70.31 43 73.37 45.6 71.48 48.2 73.37 47.21 70.31 49.81 68.42 46.59 68.42"/><polygon class="cls-1" points="54.72 11.08 53.73 14.14 50.51 14.14 53.11 16.03 52.12 19.09 54.72 17.2 57.32 19.09 56.33 16.03 58.93 14.14 55.72 14.14 54.72 11.08"/><polygon class="cls-1" points="54.72 26.59 53.73 29.65 50.51 29.65 53.11 31.54 52.12 34.6 54.72 32.71 57.32 34.6 56.33 31.54 58.93 29.65 55.72 29.65 54.72 26.59"/><polygon class="cls-1" points="54.72 42.09 53.73 45.15 50.51 45.15 53.11 47.05 52.12 50.11 54.72 48.22 57.32 50.11 56.33 47.05 58.93 45.15 55.72 45.15 54.72 42.09"/><polygon class="cls-1" points="55.72 60.66 54.72 57.6 53.73 60.66 50.51 60.66 53.11 62.55 52.12 65.61 54.72 63.72 57.32 65.61 56.33 62.55 58.93 60.66 55.72 60.66"/><polygon class="cls-1" points="63.84 3.32 62.84 6.38 59.63 6.38 62.23 8.28 61.24 11.34 63.84 9.45 66.44 11.34 65.45 8.28 68.05 6.38 64.83 6.38 63.84 3.32"/><polygon class="cls-1" points="63.84 18.83 62.84 21.89 59.63 21.89 62.23 23.79 61.24 26.85 63.84 24.95 66.44 26.85 65.45 23.79 68.05 21.89 64.83 21.89 63.84 18.83"/><polygon class="cls-1" points="63.84 34.34 62.84 37.4 59.63 37.4 62.23 39.29 61.24 42.35 63.84 40.46 66.44 42.35 65.45 39.29 68.05 37.4 64.83 37.4 63.84 34.34"/><polygon class="cls-1" points="63.84 49.85 62.84 52.91 59.63 52.91 62.23 54.8 61.24 57.86 63.84 55.97 66.44 57.86 65.45 54.8 68.05 52.91 64.83 52.91 63.84 49.85"/><polygon class="cls-1" points="64.83 68.42 63.84 65.35 62.84 68.42 59.63 68.42 62.23 70.31 61.24 73.37 63.84 71.48 66.44 73.37 65.45 70.31 68.05 68.42 64.83 68.42"/><polygon class="cls-1" points="72.96 11.08 71.97 14.14 68.75 14.14 71.35 16.03 70.36 19.09 72.96 17.2 75.56 19.09 74.57 16.03 77.17 14.14 73.95 14.14 72.96 11.08"/><polygon class="cls-1" points="72.96 26.59 71.97 29.65 68.75 29.65 71.35 31.54 70.36 34.6 72.96 32.71 75.56 34.6 74.57 31.54 77.17 29.65 73.95 29.65 72.96 26.59"/><polygon class="cls-1" points="72.96 42.09 71.97 45.15 68.75 45.15 71.35 47.05 70.36 50.11 72.96 48.22 75.56 50.11 74.57 47.05 77.17 45.15 73.95 45.15 72.96 42.09"/><polygon class="cls-1" points="73.95 60.66 72.96 57.6 71.97 60.66 68.75 60.66 71.35 62.55 70.36 65.61 72.96 63.72 75.56 65.61 74.57 62.55 77.17 60.66 73.95 60.66"/><polygon class="cls-1" points="82.08 3.32 81.08 6.38 77.87 6.38 80.47 8.28 79.48 11.34 82.08 9.45 84.68 11.34 83.69 8.28 86.29 6.38 83.08 6.38 82.08 3.32"/><polygon class="cls-1" points="82.08 18.83 81.08 21.89 77.87 21.89 80.47 23.79 79.48 26.85 82.08 24.95 84.68 26.85 83.69 23.79 86.29 21.89 83.08 21.89 82.08 18.83"/><polygon class="cls-1" points="82.08 34.34 81.08 37.4 77.87 37.4 80.47 39.29 79.48 42.35 82.08 40.46 84.68 42.35 83.69 39.29 86.29 37.4 83.08 37.4 82.08 34.34"/><polygon class="cls-1" points="82.08 49.85 81.08 52.91 77.87 52.91 80.47 54.8 79.48 57.86 82.08 55.97 84.68 57.86 83.69 54.8 86.29 52.91 83.08 52.91 82.08 49.85"/><polygon class="cls-1" points="83.08 68.42 82.08 65.35 81.08 68.42 77.87 68.42 80.47 70.31 79.48 73.37 82.08 71.48 84.68 73.37 83.69 70.31 86.29 68.42 83.08 68.42"/><polygon class="cls-1" points="91.2 11.08 90.2 14.14 86.99 14.14 89.59 16.03 88.6 19.09 91.2 17.2 93.8 19.09 92.81 16.03 95.41 14.14 92.19 14.14 91.2 11.08"/><polygon class="cls-1" points="91.2 26.59 90.2 29.65 86.99 29.65 89.59 31.54 88.6 34.6 91.2 32.71 93.8 34.6 92.81 31.54 95.41 29.65 92.19 29.65 91.2 26.59"/><polygon class="cls-1" points="91.2 42.09 90.2 45.15 86.99 45.15 89.59 47.05 88.6 50.11 91.2 48.22 93.8 50.11 92.81 47.05 95.41 45.15 92.19 45.15 91.2 42.09"/><polygon class="cls-1" points="92.19 60.66 91.2 57.6 90.2 60.66 86.99 60.66 89.59 62.55 88.6 65.61 91.2 63.72 93.8 65.61 92.81 62.55 95.41 60.66 92.19 60.66"/><polygon class="cls-1" points="98.71 8.28 97.72 11.34 100.32 9.45 102.92 11.34 101.93 8.28 104.53 6.38 101.31 6.38 100.32 3.32 99.33 6.38 96.11 6.38 98.71 8.28"/><polygon class="cls-1" points="100.32 18.83 99.33 21.89 96.11 21.89 98.71 23.79 97.72 26.85 100.32 24.95 102.92 26.85 101.93 23.79 104.53 21.89 101.31 21.89 100.32 18.83"/><polygon class="cls-1" points="100.32 34.34 99.33 37.4 96.11 37.4 98.71 39.29 97.72 42.35 100.32 40.46 102.92 42.35 101.93 39.29 104.53 37.4 101.31 37.4 100.32 34.34"/><polygon class="cls-1" points="100.32 49.85 99.33 52.91 96.11 52.91 98.71 54.8 97.72 57.86 100.32 55.97 102.92 57.86 101.93 54.8 104.53 52.91 101.31 52.91 100.32 49.85"/><polygon class="cls-1" points="101.31 68.42 100.32 65.35 99.33 68.42 96.11 68.42 98.71 70.31 97.72 73.37 100.32 71.48 102.92 73.37 101.93 70.31 104.53 68.42 101.31 68.42"/></g></svg>