<?xml version="1.0" encoding="utf-8"?>
<!-- Generator: Adobe Illustrator 22.0.1, SVG Export Plug-In . SVG Version: 6.00 Build 0)  -->
<svg version="1.1" xmlns="http://www.w3.org/2000/svg" xmlns:xlink="http://www.w3.org/1999/xlink" x="0px" y="0px"
	 viewBox="0 0 256 256" style="enable-background:new 0 0 256 256;" xml:space="preserve">
<style type="text/css">
	.st0{fill:#004A8F;}
	.st1{fill:#FFFFFF;}
	.st2{display:none;}
	.st3{display:inline;}
	.st4{fill:#F2F2F2;}
	.st5{display:inline;fill:#BDC3C7;}
	.st6{display:inline;fill:#95A5A6;}
	.st7{display:inline;fill:#EDF0F1;}
	.st8{display:inline;fill:#2A81BA;}
	.st9{display:inline;fill:#3C97D3;}
	.st10{fill:none;}
</style>
<g id="outer_circle">
	<circle class="st0" cx="128" cy="128" r="125"/>
	<circle class="st1" cx="128" cy="128" r="108"/>
</g>
<g id="inner_circle">
</g>
<g id="water">
</g>
<g id="reflection" class="st2">
	<g class="st3">
		<path class="st0" d="M130.2,52.3c-0.2-1.7-3-1.7-3.3,0c-7.1,57-43.2,68.8-43.2,108.4c0,24.5,20.5,44.3,44.9,44.3
			c24.3,0,44.9-19.8,44.9-44.3C173.4,121,137.3,109.3,130.2,52.3z"/>
		<path class="st4" d="M99.4,154.9c-1.2,3.1-1.9,6.4-1.9,9.9c0,14.6,11.8,26.4,26.4,26.4c3.5,0,6.8-0.7,9.9-1.9
			C115.4,188,100.7,173.3,99.4,154.9z"/>
	</g>
</g>
<g id="Layer_5" class="st2">
	<path class="st5" d="M64.9,71.3V142c0,29.7,25.7,56.6,63.7,70.7c38-14.1,63.7-41,63.7-70.7V71.3H64.9z"/>
	<path class="st6" d="M64.9,71.3V142c0,29.7,25.7,56.6,63.7,70.7V71.3H64.9z"/>
	<path class="st7" d="M79.1,85.4V142c0,24.1,20,45.3,49.5,56.6c29.5-11.3,49.5-32.5,49.5-56.6V85.4H79.1z"/>
	<path class="st8" d="M79.1,142c0,24.1,20,45.3,49.5,56.6V142H79.1z"/>
	<rect x="128.6" y="85.4" class="st9" width="49.5" height="56.6"/>
	<rect x="79.1" y="85.4" class="st5" width="49.5" height="56.6"/>
</g>
<g id="Layer_5_copy">
	<g>
		<path class="st0" d="M184.2,79.3V142c0,12.3-5.4,24.7-15.5,35.8c-9.8,10.7-23.7,19.8-40.2,26.4c-16.5-6.5-30.3-15.6-40.2-26.4
			c-10.1-11.1-15.5-23.5-15.5-35.8V79.3h55.7H184.2 M192.2,71.3h-63.7H64.9V142c0,29.7,25.7,56.6,63.7,70.7
			c38-14.1,63.7-41,63.7-70.7V71.3L192.2,71.3z"/>
	</g>
	<g>
		<path class="st0" d="M175.1,88.4V142c0,21.7-17.8,42-46.5,53.4C99.8,184,82.1,163.7,82.1,142V88.4H175.1 M178.1,85.4h-99V142
			c0,24.1,20,45.3,49.5,56.6c29.5-11.3,49.5-32.5,49.5-56.6V85.4L178.1,85.4z"/>
	</g>
	<path class="st0" d="M79.1,142c0,24.1,20,45.3,49.5,56.6V142H79.1z"/>
	<rect x="128.6" y="85.4" class="st0" width="49.5" height="56.6"/>
	<rect x="79.1" y="85.4" class="st10" width="49.5" height="56.6"/>
</g>
</svg>
