<?xml version="1.0" encoding="utf-8"?>
<!-- Generator: Adobe Illustrator 14.0.0, SVG Export Plug-In . SVG Version: 6.00 Build 43363)  -->
<!DOCTYPE svg PUBLIC "-//W3C//DTD SVG 1.1//EN" "http://www.w3.org/Graphics/SVG/1.1/DTD/svg11.dtd">
<svg version="1.1" id="Layer_1" xmlns="http://www.w3.org/2000/svg" xmlns:xlink="http://www.w3.org/1999/xlink" x="0px" y="0px"
	 width="128px" height="128px" viewBox="0 0 128 128" enable-background="new 0 0 128 128" xml:space="preserve">
<g id="circle_bg">
	<circle fill="#E5E5E5" cx="64" cy="64" r="64"/>
	<circle fill="#8CB6D3" cx="64" cy="64" r="60.25"/>
</g>
<g id="circle_shadow" display="none">
	<path display="inline" fill="#4188AF" d="M112.527,94.702c-8.514-0.89-19.685-1.431-31.926-1.431
		C53.92,93.271,32.29,95.836,32.29,99s21.63,5.729,48.313,5.729c8.838,0,17.112-0.283,24.239-0.773
		C107.686,101.172,110.262,98.072,112.527,94.702z"/>
</g>
<g id="Layer_6">
	<ellipse fill="#4188AF" cx="71.145" cy="99.066" rx="38.855" ry="4.834"/>
</g>
<g id="Layer_8">
	<g>
		<path fill="#F7F7F7" d="M55.042,84.46C43.778,69.891,42.876,54.421,42.876,54.421s1.803-4.7,4.206-4.807
			c0,0,16.641-2.061,39.65,12.015c10.111,6.186,11.178,10.767,11.26,12.555c0.789-2.929,1.218-6.008,1.218-9.185
			c0-12.895-6.936-24.166-17.274-30.299c-1.968-1.062-4.364-1.607-4.364-1.607c-17.422-4.807-31.089,10.513-31.089,10.513
			c-2.705,0.901-4.656,0-4.656,0s0.129-3.183,2.14-7.556c-5.466,3.789-9.81,9.081-12.426,15.285
			c2.171-1.561,4.654-1.722,4.654-1.722v6.684c0,0-6.686,10.484-5.22,20.932c4.971,13.418,17.88,22.98,33.026,22.98
			c4.432,0,8.668-0.827,12.575-2.322C71.749,97.705,65.041,97.391,55.042,84.46z"/>
		<path fill="#D86A6A" d="M36.194,56.299v-6.685c0,0-2.483,0.161-4.654,1.722c-1.769,4.202-2.75,8.819-2.75,13.664
			c0,4.301,0.774,8.419,2.184,12.229C29.508,66.785,36.194,56.299,36.194,56.299z"/>
		<path fill="#D86A6A" d="M97.992,74.185c-0.081-1.787-1.147-6.368-11.26-12.555c-23.009-14.076-39.65-12.014-39.65-12.014
			c-2.403,0.106-4.206,4.807-4.206,4.807s0.901,15.47,12.166,30.037c9.999,12.932,16.707,13.246,21.533,13.429
			C87.008,93.896,95.052,85.091,97.992,74.185z"/>
		<path fill="#D86A6A" d="M46.483,43.607c0,0,13.667-15.32,31.088-10.513c0,0,2.396,0.546,4.364,1.607
			C76.681,31.586,70.552,29.79,64,29.79c-7.446,0-14.347,2.317-20.035,6.262c-2.011,4.373-2.14,7.556-2.14,7.556
			S43.778,44.509,46.483,43.607z"/>
		
			<ellipse transform="matrix(-0.815 -0.5794 0.5794 -0.815 46.7132 115.0777)" fill="#FFFFFF" cx="41.726" cy="50.082" rx="5.3" ry="8.896"/>
	</g>
	<g id="Layer_7">
	</g>
</g>
<g id="shadow" display="none">
	<path display="inline" fill="#4188AF" d="M124.049,68.721l-32.07-32.069c6.899,7.054,11.16,16.7,11.16,27.348
		c0,3.533-0.477,6.955-1.354,10.21c-3.27,12.123-12.211,21.912-23.807,26.349c-4.344,1.662-9.053,2.582-13.979,2.582
		c-10.232,0-19.542-3.933-26.514-10.361l31.267,31.268C98.245,121.742,121.76,98.217,124.049,68.721z"/>
</g>
</svg>
