<?xml version="1.0" encoding="utf-8"?>
<!-- Generator: Adobe Illustrator 22.0.1, SVG Export Plug-In . SVG Version: 6.00 Build 0)  -->
<svg version="1.1" id="Layer_1" xmlns="http://www.w3.org/2000/svg" xmlns:xlink="http://www.w3.org/1999/xlink" x="0px" y="0px"
	 viewBox="0 0 720 216" style="enable-background:new 0 0 720 216;" xml:space="preserve">
<style type="text/css">
	.st0{fill:none;stroke:#FFFFFF;stroke-miterlimit:10;}
	.st1{fill:#FFFFFF;}
</style>
<line class="st0" x1="28.7" y1="208" x2="691.3" y2="208"/>
<line class="st0" x1="28.7" y1="8" x2="691.3" y2="8"/>
<g>
	<path class="st1" d="M166.1,88.4V47.8h27.2v2.7h-24.4v15.6h22.3v2.5h-22.3v17.2h24.4v2.6H166.1z"/>
	<path class="st1" d="M202.1,88.4l13.8-21.1l-12.8-19.5h3.7L218.1,65l11.4-17.2h3.8l-13.4,19.5l14.2,21.1h-3.8l-12.2-18.5
		l-12.3,18.5H202.1z"/>
	<path class="st1" d="M246.5,88.4V47.8h18.8c2.7,0,5,1.1,6.9,3.2c1.9,2.1,2.9,4.7,2.9,7.8c0,3.2-1,5.9-2.9,8.1
		c-1.9,2.2-4.2,3.4-6.9,3.4h-16v18.2H246.5z M264.9,67.6c2.1,0,3.8-0.8,5.3-2.5c1.5-1.6,2.2-3.6,2.2-5.9c0-2.4-0.7-4.5-2.2-6.2
		c-1.5-1.7-3.2-2.5-5.3-2.5h-15.5v17.1H264.9z"/>
	<path class="st1" d="M288.4,88.4V47.8h27.2v2.7h-24.4v15.6h22.3v2.5h-22.3v17.2h24.4v2.6H288.4z"/>
	<path class="st1" d="M328.2,88.4V47.8h19.9c2.9,0,5.3,1.1,7.3,3.2c2,2.1,3,4.6,3,7.5c0,2.6-0.6,4.9-1.8,6.8c-1.3,1.9-2.8,3-4.7,3.4
		c1.7,0.5,3.1,1.9,4.2,4.3c1.1,2.4,1.6,5.3,1.6,8.8c0,1.9,0,3.4,0.1,4.3c0.1,1.1,0.3,1.9,0.6,2.4h-2.8c-0.5-0.5-0.8-1.6-0.9-3
		l-0.2-5.8c0-2.7-0.7-5.1-2-7.1c-1.3-1.9-2.9-2.9-4.8-2.9H331v18.8H328.2z M347.6,67.1c2.2,0,4.1-0.8,5.7-2.5
		c1.5-1.6,2.3-3.6,2.3-5.9c0-2.3-0.8-4.3-2.3-5.9c-1.6-1.6-3.5-2.4-5.7-2.4H331v16.7H347.6z"/>
	<path class="st1" d="M373.2,88.4V47.8h2.8v40.7H373.2z"/>
	<path class="st1" d="M392.3,88.4V47.8h27.2v2.7h-24.4v15.6h22.3v2.5h-22.3v17.2h24.4v2.6H392.3z"/>
	<path class="st1" d="M432.1,88.4V47.8h3.9l25.1,37.3V47.8h2.8v40.7H460l-25.1-36.8v36.8H432.1z"/>
	<path class="st1" d="M483.5,83.2c-3.7-4.2-5.6-9.2-5.6-15.1c0-5.9,1.9-10.9,5.6-15.2c3.7-4.2,8.2-6.2,13.5-6.2c4.4,0,8,1.1,11,3.4
		c3,2.2,4.8,5.3,5.5,9.1h-2.8c-0.5-2.8-2.1-5.2-4.7-7.1c-2.6-1.9-5.6-2.8-9.1-2.8c-4.5,0-8.3,1.8-11.5,5.5
		c-3.2,3.7-4.8,8.1-4.8,13.3s1.6,9.6,4.8,13.3c3.2,3.7,7,5.5,11.5,5.5c3.8,0,7-1.1,9.5-3.3c2.5-2.2,4-5.1,4.3-8.8h2.8
		c-0.4,4.4-2.1,8-5.1,10.6c-3,2.7-6.8,4-11.4,4C491.7,89.5,487.2,87.4,483.5,83.2z"/>
	<path class="st1" d="M526.7,88.4V47.8h27.2v2.7h-24.4v15.6h22.3v2.5h-22.3v17.2h24.4v2.6H526.7z"/>
</g>
<g>
	<path class="st1" d="M77.3,168v-45.5h4.9l17,41.6l17-41.6h4.9V168H118v-41.9L100.7,168h-2.9l-17.3-41.9V168H77.3z"/>
	<path class="st1" d="M142.5,162.2c-3.8-4.2-5.7-9.9-5.7-16.9c0-7.3,1.9-13.1,5.7-17.4c3.8-4.3,8.8-6.5,15.1-6.5
		c6.3,0,11.3,2.2,15.1,6.5c3.8,4.3,5.7,10.1,5.7,17.4c0,7-1.9,12.6-5.7,16.9c-3.8,4.2-8.8,6.4-15.1,6.4
		C151.3,168.6,146.3,166.5,142.5,162.2z M170.4,160.1c3.2-3.7,4.8-8.6,4.8-14.8c0-6.3-1.6-11.4-4.8-15.3c-3.2-3.8-7.5-5.7-12.8-5.7
		c-5.3,0-9.6,1.9-12.8,5.7c-3.2,3.8-4.8,8.9-4.8,15.3c0,6.2,1.6,11.1,4.8,14.8c3.2,3.7,7.5,5.6,12.8,5.6
		C163,165.7,167.2,163.9,170.4,160.1z"/>
	<path class="st1" d="M194.1,122.6h18.4c4.9,0,9.1,2.2,12.6,6.5c3.5,4.3,5.2,9.5,5.2,15.6c0,6.4-1.7,11.9-5.2,16.5
		c-3.5,4.5-7.7,6.8-12.6,6.8h-18.4V122.6z M212.5,165.1c4,0,7.5-2,10.4-6c2.9-4,4.3-8.8,4.3-14.4c0-5.3-1.4-9.8-4.3-13.6
		c-2.9-3.7-6.3-5.6-10.4-5.6h-15.3v39.6H212.5z"/>
	<path class="st1" d="M245.9,168v-45.5h30.4v3h-27.2V143H274v2.8h-24.9v19.2h27.2v2.9H245.9z"/>
	<path class="st1" d="M290.4,168v-45.5h22.2c3.2,0,5.9,1.2,8.2,3.5c2.2,2.3,3.4,5.1,3.4,8.4c0,2.9-0.7,5.4-2,7.6
		c-1.4,2.1-3.2,3.4-5.3,3.8c1.9,0.5,3.5,2.1,4.7,4.8c1.2,2.7,1.8,6,1.8,9.8c0,2.1,0.1,3.8,0.2,4.8c0.1,1.3,0.3,2.2,0.6,2.7H321
		c-0.5-0.6-0.9-1.7-1-3.4l-0.2-6.5c0-3.1-0.8-5.7-2.3-7.9c-1.5-2.1-3.3-3.2-5.4-3.2h-18.5v21H290.4z M312.1,144.2
		c2.5,0,4.6-0.9,6.4-2.8c1.7-1.8,2.6-4,2.6-6.6c0-2.6-0.9-4.8-2.6-6.6c-1.8-1.8-3.9-2.7-6.4-2.7h-18.5v18.6H312.1z"/>
	<path class="st1" d="M340.6,168v-45.5h4.3l28.1,41.7v-41.7h3.1V168h-4.3l-28.1-41.1V168H340.6z"/>
	<path class="st1" d="M427.8,168v-45.5h3.1V168H427.8z"/>
	<path class="st1" d="M460.4,168v-42.5h-15.9v-3h35.2v3h-16.1V168H460.4z"/>
	<path class="st1" d="M488.9,168l18.4-45.5h3.9l18.2,45.5h-3.6l-6-14.6h-21.5l-6,14.6H488.9z M518.7,150.6l-9.6-24.5l-9.8,24.5
		H518.7z"/>
	<path class="st1" d="M543.3,122.6h3.1v42.5h25v2.9h-28.2V122.6z"/>
	<path class="st1" d="M585.1,168v-45.5h3.1V168H585.1z"/>
	<path class="st1" d="M602.2,168l18.4-45.5h3.9l18.2,45.5h-3.6l-6-14.6h-21.5l-6,14.6H602.2z M632,150.6l-9.6-24.5l-9.8,24.5H632z"
		/>
</g>
</svg>
