<?xml version="1.0" encoding="utf-8"?>
<!-- Generator: Adobe Illustrator 22.0.1, SVG Export Plug-In . SVG Version: 6.00 Build 0)  -->
<svg version="1.1" id="Layer_1" xmlns="http://www.w3.org/2000/svg" xmlns:xlink="http://www.w3.org/1999/xlink" x="0px" y="0px"
	 viewBox="0 0 170 50" style="enable-background:new 0 0 170 50;" xml:space="preserve">
<style type="text/css">
	.st0{fill:#FFFFFF;}
	.st1{fill:#809F83;}
	.st2{fill:#006838;}
</style>
<g>
	<g>
		
			<rect x="4.7" y="4.6" transform="matrix(0.7071 -0.7071 0.7071 0.7071 -5.1391 12.5582)" class="st0" width="15.8" height="15.8"/>
		<path d="M12.6,24.4L0.7,12.5L12.6,0.6l11.9,11.9L12.6,24.4z M2.1,12.5L12.6,23l10.5-10.5L12.6,2L2.1,12.5z"/>
	</g>
	<g>
		
			<rect x="4.7" y="29.6" transform="matrix(0.707 -0.7072 0.7072 0.707 -22.8426 19.8981)" class="st1" width="15.8" height="15.8"/>
		<path d="M12.6,49.4L0.7,37.5l11.9-11.9l11.9,11.9L12.6,49.4z M2.1,37.5L12.6,48l10.5-10.5L12.6,27L2.1,37.5z"/>
	</g>
	<g>
		
			<rect x="17.2" y="17.1" transform="matrix(0.7072 -0.707 0.707 0.7072 -10.3436 25.0609)" class="st2" width="15.8" height="15.8"/>
		<path d="M25.1,36.9L13.2,25l11.9-11.9L37,25L25.1,36.9z M14.6,25l10.5,10.5L35.6,25L25.1,14.5L14.6,25z"/>
	</g>
	<path class="st2" d="M52,24.2v-8.9h-1.5v-2.6H52v-0.4c0-1.4,0.4-2.9,1.5-3.9c0.9-0.8,2.1-1.2,3.2-1.2c0.8,0,1.4,0.1,1.9,0.2
		l-0.1,2.8c-0.3-0.1-0.7-0.2-1.2-0.2c-1.2,0-1.7,0.9-1.7,2.1v0.6h2.3v2.6h-2.3v8.9H52z"/>
	<path class="st2" d="M62.1,19.6c0.1,1.5,1.6,2.2,3.3,2.2c1.2,0,2.2-0.2,3.2-0.5l0.5,2.4c-1.2,0.5-2.6,0.7-4.2,0.7
		c-3.9,0-6.2-2.3-6.2-5.9c0-2.9,1.8-6.2,5.8-6.2c3.7,0,5.1,2.9,5.1,5.8c0,0.6-0.1,1.2-0.1,1.4H62.1z M66.4,17.1c0-0.9-0.4-2.3-2-2.3
		c-1.5,0-2.1,1.4-2.2,2.3H66.4z"/>
	<path class="st1" d="M83.6,23.8c-0.7,0.3-2.1,0.7-4.1,0.7c-5.5,0-8.3-3.4-8.3-7.9c0-5.4,3.9-8.4,8.7-8.4c1.9,0,3.3,0.4,3.9,0.7
		l-0.7,2.9c-0.7-0.3-1.7-0.6-3-0.6c-2.9,0-5.1,1.7-5.1,5.3c0,3.2,1.9,5.2,5.1,5.2c1.1,0,2.3-0.2,3-0.5L83.6,23.8z"/>
	<path class="st1" d="M85.8,7.5h3.6V14h0c0.4-0.5,0.8-0.9,1.4-1.2c0.5-0.3,1.2-0.4,1.9-0.4c2.3,0,4,1.6,4,5v6.7h-3.6v-6.3
		c0-1.5-0.5-2.5-1.9-2.5c-0.9,0-1.5,0.6-1.8,1.3c-0.1,0.2-0.1,0.5-0.1,0.8v6.8h-3.6V7.5z"/>
	<path class="st1" d="M106.2,24.2l-0.2-1.2h-0.1c-0.8,0.9-1.9,1.4-3.3,1.4c-2.3,0-3.7-1.7-3.7-3.5c0-3,2.7-4.4,6.8-4.4v-0.2
		c0-0.6-0.3-1.5-2.1-1.5c-1.2,0-2.4,0.4-3.2,0.9l-0.7-2.3c0.8-0.4,2.4-1,4.5-1c3.8,0,5.1,2.3,5.1,5v4c0,1.1,0,2.2,0.2,2.8H106.2z
		 M105.8,18.8c-1.9,0-3.3,0.4-3.3,1.8c0,0.9,0.6,1.4,1.4,1.4c0.9,0,1.6-0.6,1.9-1.3c0-0.2,0.1-0.4,0.1-0.6V18.8z"/>
	<path class="st1" d="M112.1,16.4c0-1.4,0-2.7-0.1-3.7h3.1l0.2,1.6h0.1c0.5-0.7,1.7-1.8,3.6-1.8c2.4,0,4.1,1.6,4.1,5v6.8h-3.6v-6.4
		c0-1.5-0.5-2.5-1.8-2.5c-1,0-1.6,0.7-1.8,1.3c-0.1,0.2-0.1,0.6-0.1,0.9v6.7h-3.6V16.4z"/>
	<path class="st1" d="M136.9,12.7c0,0.7-0.1,1.7-0.1,3.4v6.4c0,2.2-0.4,4-1.7,5.2c-1.3,1.1-3,1.4-4.7,1.4c-1.5,0-3.1-0.3-4.2-0.9
		l0.7-2.7c0.7,0.4,2,0.9,3.4,0.9c1.7,0,3-0.9,3-3v-0.8h0c-0.7,1-1.8,1.5-3.1,1.5c-2.9,0-4.9-2.3-4.9-5.6c0-3.7,2.4-6.1,5.2-6.1
		c1.6,0,2.6,0.7,3.2,1.6h0l0.1-1.4H136.9z M133.2,17.4c0-0.2,0-0.5-0.1-0.7c-0.3-0.9-0.9-1.6-1.9-1.6c-1.3,0-2.4,1.2-2.4,3.3
		c0,1.7,0.8,3.1,2.4,3.1c0.9,0,1.7-0.6,1.9-1.5c0.1-0.3,0.1-0.6,0.1-0.9V17.4z"/>
	<path class="st1" d="M144.5,16.4c0-1.4,0-2.7-0.1-3.7h3.1l0.2,1.6h0.1c0.5-0.7,1.7-1.8,3.6-1.8c2.4,0,4.1,1.6,4.1,5v6.8h-3.6v-6.4
		c0-1.5-0.5-2.5-1.8-2.5c-1,0-1.6,0.7-1.8,1.3c-0.1,0.2-0.1,0.6-0.1,0.9v6.7h-3.6V16.4z"/>
	<path class="st1" d="M169.3,12.7c0,0.7-0.1,1.7-0.1,3.4v6.4c0,2.2-0.4,4-1.7,5.2c-1.3,1.1-3,1.4-4.7,1.4c-1.5,0-3.1-0.3-4.2-0.9
		l0.7-2.7c0.7,0.4,2,0.9,3.4,0.9c1.7,0,3-0.9,3-3v-0.8h0c-0.7,1-1.8,1.5-3.1,1.5c-2.9,0-4.9-2.3-4.9-5.6c0-3.7,2.4-6.1,5.2-6.1
		c1.6,0,2.6,0.7,3.2,1.6h0l0.1-1.4H169.3z M165.6,17.4c0-0.2,0-0.5-0.1-0.7c-0.3-0.9-0.9-1.6-1.9-1.6c-1.3,0-2.4,1.2-2.4,3.3
		c0,1.7,0.8,3.1,2.4,3.1c0.9,0,1.7-0.6,1.9-1.5c0.1-0.3,0.1-0.6,0.1-0.9V17.4z"/>
	<path class="st2" d="M51.6,42.8c-0.7,0.3-2.2,0.7-4.1,0.7c-5.6,0-8.5-3.5-8.5-8.1c0-5.5,3.9-8.6,8.8-8.6c1.9,0,3.3,0.4,4,0.7
		L51,30.4c-0.7-0.3-1.8-0.6-3.1-0.6c-2.9,0-5.2,1.8-5.2,5.3c0,3.2,1.9,5.3,5.2,5.3c1.1,0,2.3-0.2,3-0.5L51.6,42.8z"/>
	<path class="st2" d="M65.1,37.2c0,4.3-3,6.3-6.2,6.3c-3.4,0-6.1-2.3-6.1-6c0-3.8,2.5-6.2,6.3-6.2C62.7,31.2,65.1,33.7,65.1,37.2z
		 M56.6,37.3c0,2,0.8,3.5,2.4,3.5c1.4,0,2.3-1.4,2.3-3.5c0-1.8-0.7-3.5-2.3-3.5C57.2,33.8,56.6,35.6,56.6,37.3z"/>
	<path class="st2" d="M74.1,43.2L73.8,42h-0.1c-0.8,0.9-2,1.4-3.4,1.4c-2.4,0-3.8-1.7-3.8-3.6c0-3,2.7-4.5,6.9-4.5v-0.2
		c0-0.6-0.3-1.5-2.1-1.5c-1.2,0-2.5,0.4-3.2,0.9l-0.7-2.3c0.8-0.5,2.4-1,4.6-1c3.9,0,5.2,2.3,5.2,5.1v4.1c0,1.1,0,2.2,0.2,2.9H74.1z
		 M73.6,37.7c-1.9,0-3.4,0.4-3.4,1.8c0,0.9,0.6,1.4,1.4,1.4c0.9,0,1.7-0.6,1.9-1.3c0-0.2,0.1-0.4,0.1-0.6V37.7z"/>
	<path class="st2" d="M88.9,42.9c-0.6,0.3-1.9,0.5-3.3,0.5c-3.8,0-6.2-2.3-6.2-6c0-3.4,2.3-6.2,6.7-6.2c1,0,2,0.2,2.8,0.5l-0.6,2.7
		c-0.4-0.2-1.1-0.4-2-0.4c-1.9,0-3.2,1.4-3.1,3.3c0,2.2,1.4,3.3,3.2,3.3c0.9,0,1.5-0.1,2.1-0.4L88.9,42.9z"/>
	<path class="st2" d="M91,26.2h3.6v6.7h0c0.4-0.5,0.9-0.9,1.4-1.2c0.5-0.3,1.2-0.5,1.9-0.5c2.3,0,4.1,1.6,4.1,5.1v6.9h-3.6v-6.4
		c0-1.5-0.5-2.6-1.9-2.6c-1,0-1.6,0.6-1.8,1.3c-0.1,0.2-0.1,0.6-0.1,0.8v7H91V26.2z"/>
	<path class="st2" d="M108.9,28.2c0,1-0.8,1.8-2,1.8c-1.2,0-1.9-0.8-1.9-1.8c0-1.1,0.7-1.8,1.9-1.8S108.8,27.2,108.9,28.2z
		 M105.1,43.2V31.5h3.6v11.7H105.1z"/>
	<path class="st2" d="M111.7,35.2c0-1.5,0-2.7-0.1-3.7h3.2l0.2,1.6h0.1c0.5-0.7,1.7-1.9,3.6-1.9c2.4,0,4.2,1.6,4.2,5v7h-3.6v-6.5
		c0-1.5-0.5-2.5-1.8-2.5c-1,0-1.6,0.7-1.8,1.4c-0.1,0.2-0.1,0.6-0.1,0.9v6.8h-3.6V35.2z"/>
	<path class="st2" d="M137.1,31.5c0,0.7-0.1,1.7-0.1,3.5v6.5c0,2.3-0.5,4.1-1.8,5.3c-1.3,1.1-3,1.4-4.8,1.4c-1.5,0-3.2-0.3-4.2-0.9
		l0.7-2.8c0.7,0.4,2,0.9,3.4,0.9c1.7,0,3-0.9,3-3.1v-0.8h0c-0.7,1-1.8,1.5-3.2,1.5c-2.9,0-5-2.3-5-5.7c0-3.8,2.4-6.2,5.3-6.2
		c1.6,0,2.6,0.7,3.2,1.7h0l0.1-1.4H137.1z M133.3,36.3c0-0.2,0-0.5-0.1-0.7c-0.3-1-1-1.6-2-1.6c-1.3,0-2.4,1.2-2.4,3.3
		c0,1.8,0.9,3.1,2.4,3.1c0.9,0,1.7-0.6,1.9-1.5c0.1-0.3,0.1-0.6,0.1-1V36.3z"/>
	<path class="st2" d="M143.8,31.2c0,1.3-1,2.3-2.4,2.3c-1.3,0-2.4-1-2.4-2.3c0-1.3,1.1-2.3,2.4-2.3C142.8,29,143.8,30,143.8,31.2z
		 M139.7,31.2c0,1,0.8,1.8,1.8,1.8c1,0,1.8-0.8,1.8-1.8c0-1-0.7-1.8-1.8-1.8S139.7,30.2,139.7,31.2z M141.1,32.5h-0.5v-2.3
		c0.2,0,0.5-0.1,0.9-0.1c0.4,0,0.6,0.1,0.8,0.2c0.1,0.1,0.2,0.3,0.2,0.5c0,0.3-0.2,0.4-0.5,0.5v0c0.2,0.1,0.4,0.3,0.4,0.6
		c0.1,0.4,0.1,0.5,0.2,0.6H142c-0.1-0.1-0.1-0.3-0.2-0.6c0-0.3-0.2-0.4-0.5-0.4h-0.3V32.5z M141.1,31.2h0.3c0.3,0,0.5-0.1,0.5-0.3
		c0-0.2-0.2-0.3-0.5-0.3c-0.1,0-0.2,0-0.3,0V31.2z"/>
	<g>
		<g>
			<polygon class="st1" points="143.5,13.3 138.4,13.3 138.4,18 138.9,18 138.9,24.6 139.9,24.6 139.9,22.1 141,20.2 142.1,22.1 
				142.1,24.6 143.1,24.6 143.1,18 143.5,18 			"/>
		</g>
		<g>
			<path class="st1" d="M142.9,9.9c0,1.5-1,2.7-2.1,2.7c-1.2,0-2.1-1.2-2.1-2.7c0-1.5,0.9-2.7,2.1-2.7C142,7.1,142.9,8.3,142.9,9.9z
				"/>
		</g>
	</g>
	<g>
		<path class="st2" d="M49.2,21.2v-5.1h0.4v-4.7h-5.1v4.7H45v5.1h-1.6V8.3h-3.6v15.9h9.9v-3H49.2z M46,18.9l1.1-1.8l1.1,1.8v2.3H46
			V18.9z"/>
		<path class="st2" d="M46.9,10.7c1.2,0,2.1-1.2,2.1-2.7c0-1.5-1-2.7-2.1-2.7c-1.2,0-2.1,1.2-2.1,2.7C44.8,9.5,45.7,10.7,46.9,10.7z
			"/>
	</g>
</g>
</svg>
