<svg xmlns="http://www.w3.org/2000/svg" viewBox="0 0 200 158.63"><defs><style>.cls-1{fill:#fff;}.cls-2{fill:#004a8f;}</style></defs><title>castle-roofing-logo-blue</title><g id="white_bg" data-name="white bg"><rect class="cls-1" width="200" height="158.63"/></g><g id="castle_shape" data-name="castle shape"><path class="cls-2" d="M423.26,320.14l-12.36,5.77h0V313.6l-19.22-10.17h0l-12.36,5.77V296.89l-19.23-10.17-19.23,10.17V309.2l-12.36-5.77L309.27,313.6v12.31l-12.36-5.77-19.22,10.17V357h0l82.4-28.33L442.49,357h0V330.31Zm-124.44,3L305,326l-6.17,3.26Zm31.59-16.71,6.17,2.88-6.17,3.26Zm109,46.26-76.32-26.24V291.78l13.14,7V311l1.62.86,12.36,6.54,4.47,2.36V308.48l13.14,7v12.3l1.62.86,12.36,6.54,4.47,2.36V325.19l13.14,7Z" transform="translate(-260 -274.68)"/></g><g id="white_castle_outline" data-name="white castle outline"><path class="cls-1" d="M431,369.86l-.3-.32-.41-.43h2.36l-.09-4.48v-.48a29.59,29.59,0,0,0-.89-7.08,15.74,15.74,0,0,0-2.58-5.38,12.55,12.55,0,0,0-4.89-3.81A17.16,17.16,0,0,0,409,349a15.63,15.63,0,0,0-5.88,6.75c0,.05,0,.1-.07.14V334.39h-6.64l-6.44.27-.45,0-4.21.17V345l3.42.61c0,.34,0,.82,0,1.47h-4.36v-6.58h-13l-.47,3.85-.05.42c-.22,1.84-.39,2.8-.49,3.28v0l-2.07-.42-.38-.08c-1.79-.37-3.33-.62-4.58-.75a38.32,38.32,0,0,0-3.91-.2,19.53,19.53,0,0,0-7,1.17,12.07,12.07,0,0,0-5.61,4.13,11,11,0,0,0-1,1.64c-.09-.24-.19-.48-.3-.71A10.26,10.26,0,0,0,341,348a13.9,13.9,0,0,0-6.5-1.4,21.53,21.53,0,0,0-4.47.46,30.89,30.89,0,0,0-4.08,1.18,41.89,41.89,0,0,0-4.19,1.88V338l-3.27-.86-.35-.09a39.93,39.93,0,0,0-5.34-1.07,42.25,42.25,0,0,0-5.07-.29,18.84,18.84,0,0,0-18.12,12,30.76,30.76,0,0,0-2.18,11.88c0,7.12,1.5,12.71,4.45,16.61,3.22,4.26,8.1,6.51,14.12,6.51a50.54,50.54,0,0,0,6.38-.37,45.61,45.61,0,0,0,5.77-1.12l.35-.1,2.82-.75a11.93,11.93,0,0,0,1.64,1,12.66,12.66,0,0,0,5.78,1.31,14.72,14.72,0,0,0,3.93-.52v.1h17.19v-.44c.83.18,1.66.34,2.49.47a33,33,0,0,0,5.11.39,23.21,23.21,0,0,0,5-.51,13.64,13.64,0,0,0,4.83-2.06,11.05,11.05,0,0,0,3.6-4.16l.15-.33a10.87,10.87,0,0,0,1.8,3.25c1.43,1.74,4.14,3.81,8.87,3.81a12.65,12.65,0,0,0,4-.65v.23H406v-3.67c2.09,2,5.58,4.09,11.14,4.09a16.64,16.64,0,0,0,5.31-.82,16.91,16.91,0,0,0,4.4-2.24,27.23,27.23,0,0,0,3.83-3.4l.3-.32,2.88-3Z" transform="translate(-260 -274.68)"/></g><g id="castle_roofing_text" data-name="castle roofing text"><path class="cls-2" d="M312.28,340.36a37.77,37.77,0,0,0-4.54-.25,14.42,14.42,0,0,0-14.07,9.27,26.27,26.27,0,0,0-1.84,10.18c0,6.14,1.2,10.84,3.56,14s6,4.78,10.62,4.78a47.44,47.44,0,0,0,5.83-.34,42.13,42.13,0,0,0,5.19-1l.35-.1V368.4h-3.45l-.1.32a15.65,15.65,0,0,1-1.74,3.88,5.16,5.16,0,0,1-2.14,1.82,8.3,8.3,0,0,1-3.38.59,6.23,6.23,0,0,1-4.53-1.75,11.45,11.45,0,0,1-2.86-5.36,33.77,33.77,0,0,1-1-8.79,27.72,27.72,0,0,1,1.21-8.72,11.52,11.52,0,0,1,3.23-5.28,6.89,6.89,0,0,1,4.59-1.72,7.26,7.26,0,0,1,3,.55,5.23,5.23,0,0,1,2.1,1.8,11.11,11.11,0,0,1,1.56,3.55l.09.34h3.47v-8.22l-.35-.09A37.68,37.68,0,0,0,312.28,340.36Z" transform="translate(-260 -274.68)"/><path class="cls-2" d="M343.55,375.07a1.77,1.77,0,0,1-.62-.55,2.62,2.62,0,0,1-.33-.94,8,8,0,0,1-.15-1.44c0-.51,0-1.42,0-2.77v-9.28a13.5,13.5,0,0,0-.84-5.42,5.9,5.9,0,0,0-2.61-2.79,9.69,9.69,0,0,0-4.46-.89,16.94,16.94,0,0,0-3.56.37,24.9,24.9,0,0,0-3.48,1,37.73,37.73,0,0,0-4.32,2l-.26.13v4.22h4.32l.1-.34a6.33,6.33,0,0,1,1.76-3.06,4.51,4.51,0,0,1,3-1,5.08,5.08,0,0,1,2.81.67,3.83,3.83,0,0,1,1.49,2.1,13.82,13.82,0,0,1,.51,4.22v1.29c-5,.26-8.77,1.1-11.32,2.5a7.06,7.06,0,0,0-4.09,6.42,6.93,6.93,0,0,0,.89,3.53,6.07,6.07,0,0,0,2.56,2.4,8.39,8.39,0,0,0,3.79.84,10.31,10.31,0,0,0,4.54-1,15.9,15.9,0,0,0,4.06-3l-.11,3.14,0,.49h8.27v-2.14l-.35-.09A7.52,7.52,0,0,1,343.55,375.07Zm-6.63-9.35V369a4.76,4.76,0,0,1-.76,2.45,6.1,6.1,0,0,1-2.14,2.08,5.91,5.91,0,0,1-3.06.81,6.24,6.24,0,0,1-2-.3,2.66,2.66,0,0,1-1.32-1,3.73,3.73,0,0,1-.53-2.13,4,4,0,0,1,2.44-3.77A17.63,17.63,0,0,1,336.92,365.72Z" transform="translate(-260 -274.68)"/><path class="cls-2" d="M364.35,364.42a28.23,28.23,0,0,0-4.27-2.2,27.08,27.08,0,0,1-3.69-1.8,4.68,4.68,0,0,1-1.43-1.35,3.27,3.27,0,0,1-.44-1.77,2.83,2.83,0,0,1,1.09-2.37,4.9,4.9,0,0,1,3.11-.9,6.75,6.75,0,0,1,2.32.35,4,4,0,0,1,1.62,1.16,7.57,7.57,0,0,1,1.3,2.37l.11.31h3.36v-6.3l-.38-.07c-1.66-.34-3.06-.57-4.16-.69a32.27,32.27,0,0,0-3.45-.17,15.17,15.17,0,0,0-5.42.88,7.85,7.85,0,0,0-3.64,2.63,6.69,6.69,0,0,0-1.28,4.07,6.05,6.05,0,0,0,.92,3.35,8.25,8.25,0,0,0,2.44,2.41,25.41,25.41,0,0,0,4,2,32.2,32.2,0,0,1,3.88,1.87,4.67,4.67,0,0,1,1.5,1.41,3.66,3.66,0,0,1,.47,2,3.78,3.78,0,0,1-.38,1.78,2.87,2.87,0,0,1-1,1.09,4.4,4.4,0,0,1-1.49.6,8.15,8.15,0,0,1-1.78.19,5.71,5.71,0,0,1-3.6-1,6.36,6.36,0,0,1-2-3.32l-.1-.34h-3.44V377l.35.09c1.35.36,2.75.65,4.16.88a29,29,0,0,0,4.42.34,18.26,18.26,0,0,0,4-.42,9,9,0,0,0,3.27-1.38A6.57,6.57,0,0,0,367,374a8.35,8.35,0,0,0,.77-3.75,6.21,6.21,0,0,0-.91-3.38A8.51,8.51,0,0,0,364.35,364.42Z" transform="translate(-260 -274.68)"/><path class="cls-2" d="M388,372.59l-.32-.38-.36.34a7.35,7.35,0,0,1-1.72,1.18,4.09,4.09,0,0,1-1.8.4,3.92,3.92,0,0,1-1.71-.32,3.29,3.29,0,0,1-1.16-1.09,5.16,5.16,0,0,1-.72-2.2,30.45,30.45,0,0,1-.21-4v-11.4h8.61v-3.63H380v-6.59h-4.67l-.05.42c-.2,1.6-.38,2.83-.56,3.65a6.75,6.75,0,0,1-.68,2,3.39,3.39,0,0,1-1.14,1.21,5.11,5.11,0,0,1-2,.68l-.39.06v2.23h3.95V369.4c0,3,.6,5.25,1.78,6.68a6.71,6.71,0,0,0,5.48,2.22,8.43,8.43,0,0,0,3.72-.88,14.86,14.86,0,0,0,3.7-2.75l.32-.3-.28-.34Z" transform="translate(-260 -274.68)"/><path class="cls-2" d="M399.47,374.91a1.89,1.89,0,0,1-.64-1.1,15.13,15.13,0,0,1-.2-3.08v-32h-2.07l-6.45.27-.45,0v2.23l.39.07a8.62,8.62,0,0,1,1.76.44,1.76,1.76,0,0,1,.65.5,2.5,2.5,0,0,1,.4.94,8.4,8.4,0,0,1,.2,1.62c0,.67,0,1.87,0,3.56v22.31c0,.95,0,1.72-.09,2.29a4.26,4.26,0,0,1-.29,1.27,1.63,1.63,0,0,1-.59.7,5.25,5.25,0,0,1-1.69.65l-.35.09v2.14h11.52v-2.14l-.35-.09A5.28,5.28,0,0,1,399.47,374.91Z" transform="translate(-260 -274.68)"/><path class="cls-2" d="M425.88,370.81l-.34-.36-.34.36a11.22,11.22,0,0,1-3.34,2.55,8.76,8.76,0,0,1-3.73.77,6.4,6.4,0,0,1-3.92-1.12,6.3,6.3,0,0,1-2.16-3.13,16.87,16.87,0,0,1-.68-5.15h16.81v-.48a25.3,25.3,0,0,0-.73-6,11.42,11.42,0,0,0-1.83-3.89,8.19,8.19,0,0,0-3.21-2.48,12.82,12.82,0,0,0-11.11.83,11.28,11.28,0,0,0-4.24,4.89,16.82,16.82,0,0,0-1.47,7.21c0,4.38,1,7.76,2.91,10s4.86,3.46,8.65,3.46a12,12,0,0,0,7.16-2.25,22.82,22.82,0,0,0,3.2-2.86l.31-.32-.3-.32ZM417.35,354a3.84,3.84,0,0,1,2.63.86,5.58,5.58,0,0,1,1.54,2.58,19.64,19.64,0,0,1,.67,4.1H411.55a11,11,0,0,1,1.79-5.53A4.72,4.72,0,0,1,417.35,354Z" transform="translate(-260 -274.68)"/><path class="cls-2" d="M316.64,414.6a4.63,4.63,0,0,1-1.07-1.09,18.5,18.5,0,0,1-1.32-2.17l-1.8-3.28a14.67,14.67,0,0,0-2-3,6.28,6.28,0,0,0-1.7-1.28,9.74,9.74,0,0,0,4.16-2.91,7.64,7.64,0,0,0,1.58-4.86,6.47,6.47,0,0,0-2.45-5.54c-1.6-1.17-4-1.76-7.2-1.76H294.64v1.53l.22.07a6,6,0,0,1,1.24.44,1.31,1.31,0,0,1,.5.46,2.16,2.16,0,0,1,.28.86,13,13,0,0,1,.1,2v17.32a12.45,12.45,0,0,1-.13,2.15,1.6,1.6,0,0,1-.45.94,3.74,3.74,0,0,1-1.53.63l-.23.06v1.54h9.07v-1.53l-.22-.06a6.36,6.36,0,0,1-1.24-.45,1.31,1.31,0,0,1-.49-.44,2.21,2.21,0,0,1-.28-.86,13.63,13.63,0,0,1-.11-2v-6.49h1.89a6.84,6.84,0,0,1,1.4.1,2.29,2.29,0,0,1,.82.35,4.08,4.08,0,0,1,.86.94,21,21,0,0,1,1.29,2.2l1.76,3.35q.66,1.26,1.35,2.49a22.75,22.75,0,0,0,1.46,2.31l.09.13h6v-1.56l-.26,0A3.47,3.47,0,0,1,316.64,414.6Zm-15.27-23.4c.71,0,1.59-.06,2.61-.06a7.78,7.78,0,0,1,3.43.63,4.1,4.1,0,0,1,1.83,1.78,6.57,6.57,0,0,1,.62,3,7.31,7.31,0,0,1-.53,2.95,4.49,4.49,0,0,1-1.37,1.83,5,5,0,0,1-1.89.9,12.72,12.72,0,0,1-2.75.24h-1.95Z" transform="translate(-260 -274.68)"/><path class="cls-2" d="M328.23,396.6a9.61,9.61,0,0,0-4.71,1.15,8.12,8.12,0,0,0-3.29,3.53,12.75,12.75,0,0,0-1.18,5.73c0,3.26.76,5.78,2.27,7.47a8.45,8.45,0,0,0,6.59,2.55,10,10,0,0,0,4.94-1.17,7.88,7.88,0,0,0,3.26-3.55,13.23,13.23,0,0,0,1.13-5.74c0-3.18-.77-5.66-2.28-7.37S331.17,396.6,328.23,396.6Zm2.09,17.63a3.67,3.67,0,0,1-2.11.59,3.8,3.8,0,0,1-3.48-2.06,12.3,12.3,0,0,1-1.27-6.17,11.25,11.25,0,0,1,1.25-5.83,3.78,3.78,0,0,1,3.44-1.95,3.6,3.6,0,0,1,2.37.84,5.75,5.75,0,0,1,1.67,2.71,15.42,15.42,0,0,1,.64,4.79,16.75,16.75,0,0,1-.26,3,8.34,8.34,0,0,1-.82,2.47A4.67,4.67,0,0,1,330.32,414.23Z" transform="translate(-260 -274.68)"/><path class="cls-2" d="M350,396.6a9.67,9.67,0,0,0-4.72,1.15,8.16,8.16,0,0,0-3.28,3.53,12.75,12.75,0,0,0-1.18,5.73c0,3.26.76,5.78,2.27,7.47a8.45,8.45,0,0,0,6.59,2.55,10,10,0,0,0,4.94-1.17,7.88,7.88,0,0,0,3.26-3.55,13.23,13.23,0,0,0,1.13-5.74c0-3.18-.77-5.66-2.28-7.37S352.94,396.6,350,396.6Zm2.09,17.63a3.67,3.67,0,0,1-2.11.59,3.8,3.8,0,0,1-3.48-2.06,12.27,12.27,0,0,1-1.27-6.17,11.25,11.25,0,0,1,1.25-5.83,3.78,3.78,0,0,1,3.44-1.95,3.6,3.6,0,0,1,2.37.84,5.75,5.75,0,0,1,1.67,2.71,15.42,15.42,0,0,1,.64,4.79,17,17,0,0,1-.26,3,8.37,8.37,0,0,1-.82,2.46A4.67,4.67,0,0,1,352.09,414.23Z" transform="translate(-260 -274.68)"/><path class="cls-2" d="M368.56,395.49a24,24,0,0,1,.14-2.75,5.44,5.44,0,0,1,.48-1.78A2.25,2.25,0,0,1,370,390a1.94,1.94,0,0,1,1.1-.29,1.24,1.24,0,0,1,1,.38,3.21,3.21,0,0,1,.58,1.45l.05.25h2.21v-4.24l-.26-.05a13,13,0,0,0-2.22-.18,8.76,8.76,0,0,0-4,.88,6.77,6.77,0,0,0-2.79,2.7,9.81,9.81,0,0,0-1.17,4.32,6.67,6.67,0,0,1-.24,1.58,1.54,1.54,0,0,1-.52.76,3,3,0,0,1-1.37.37l-.27,0v1.62h2.42v11.8a13.31,13.31,0,0,1-.1,2,2.35,2.35,0,0,1-.27.86,1.33,1.33,0,0,1-.48.46,5.42,5.42,0,0,1-1.18.43l-.23.06v1.53H371v-1.54l-.24-.06a5.28,5.28,0,0,1-1.24-.38,1.48,1.48,0,0,1-.55-.47,2.22,2.22,0,0,1-.32-.9,10.74,10.74,0,0,1-.13-2v-11.8h4.79v-2.65h-4.79Z" transform="translate(-260 -274.68)"/><path class="cls-2" d="M381.73,414.56a1.42,1.42,0,0,1-.5-.85,11.84,11.84,0,0,1-.15-2.32V396.76h-1.55l-5,.19v1.63l.26,0a6.06,6.06,0,0,1,1.32.37,1.21,1.21,0,0,1,.58.56,2.9,2.9,0,0,1,.25,1.12c0,.52,0,1.21,0,2.05v8.73a11.54,11.54,0,0,1-.13,2,2.39,2.39,0,0,1-.3.86,1.38,1.38,0,0,1-.46.41,5.87,5.87,0,0,1-1.05.4l-.23.07v1.52h8.48v-1.54l-.23-.06A3.81,3.81,0,0,1,381.73,414.56Z" transform="translate(-260 -274.68)"/><rect class="cls-2" x="116.89" y="114.41" width="4.31" height="4.51"/><path class="cls-2" d="M404.9,414.66a1.3,1.3,0,0,1-.47-.46,2,2,0,0,1-.24-.85,17.33,17.33,0,0,1-.08-2v-7.55a14.49,14.49,0,0,0-.22-2.8,6.59,6.59,0,0,0-.66-1.94,4.6,4.6,0,0,0-1.15-1.39,4.83,4.83,0,0,0-1.61-.83,6.89,6.89,0,0,0-4.11.11,8.71,8.71,0,0,0-1.91,1,18.9,18.9,0,0,0-2.15,1.89l.21-3.15H391l-5,.19v1.63l.26,0a5.94,5.94,0,0,1,1.31.37,1.19,1.19,0,0,1,.59.56,2.92,2.92,0,0,1,.24,1.12c0,.52,0,1.21,0,2.05v8.73a11.79,11.79,0,0,1-.12,2,2.19,2.19,0,0,1-.31.86,1.38,1.38,0,0,1-.46.41,5.54,5.54,0,0,1-1.05.4l-.22.07v1.52h8.48v-1.54l-.24-.06a3.89,3.89,0,0,1-1.36-.55,1.46,1.46,0,0,1-.49-.85,10.88,10.88,0,0,1-.16-2.32v-7.47a3.38,3.38,0,0,1,.35-1.56A5.21,5.21,0,0,1,394,401a6,6,0,0,1,1.46-1,3.81,3.81,0,0,1,2.51-.13,2.7,2.7,0,0,1,.77.41,2.67,2.67,0,0,1,.57.63,3.55,3.55,0,0,1,.42,1.05,11.12,11.12,0,0,1,.26,1.81c.05.76.08,1.6.08,2.53v5.24a10.64,10.64,0,0,1-.13,2,2.28,2.28,0,0,1-.3.86,1.32,1.32,0,0,1-.47.41,6.12,6.12,0,0,1-1.06.4l-.23.07v1.52h8.52v-1.53l-.23-.06A5.29,5.29,0,0,1,404.9,414.66Z" transform="translate(-260 -274.68)"/><path class="cls-2" d="M427.72,396.94h-7.37a11.9,11.9,0,0,0-6,.08,7.08,7.08,0,0,0-2.5,1.3,6,6,0,0,0-1.67,2.22,7.58,7.58,0,0,0-.6,3.12,7.26,7.26,0,0,0,.79,3.43,5.89,5.89,0,0,0,1.92,2.17,9.14,9.14,0,0,0-2,2,4,4,0,0,0-.69,2.26,3.17,3.17,0,0,0,.6,1.93,3.47,3.47,0,0,0,1.06.95,6.91,6.91,0,0,0-1.95,1.6,3.83,3.83,0,0,0-.91,2.49,4.31,4.31,0,0,0,.71,2.52,4.91,4.91,0,0,0,2,1.6,10.27,10.27,0,0,0,2.95.84,26.93,26.93,0,0,0,3.74.24,13.15,13.15,0,0,0,4.89-.84,7.35,7.35,0,0,0,3.26-2.4,6.23,6.23,0,0,0,.53-6.28,4.38,4.38,0,0,0-2.05-1.9,8.15,8.15,0,0,0-3.6-.7H416a9.3,9.3,0,0,1-2-.15,1.3,1.3,0,0,1-.78-.43,1.53,1.53,0,0,1-.23-.93,2.72,2.72,0,0,1,1.27-1.93,9.39,9.39,0,0,0,2.8.38,8.72,8.72,0,0,0,5.93-1.85,6.69,6.69,0,0,0,2.12-5.27,7.56,7.56,0,0,0-.38-2.41,5.09,5.09,0,0,0-.77-1.49l3.69.14Zm-15.44,23.32a3.42,3.42,0,0,1,.47-1.77A5.32,5.32,0,0,1,414.1,417c.81.08,1.74.11,2.77.11h3a5.46,5.46,0,0,1,1.78.24,2.36,2.36,0,0,1,1,.58,2,2,0,0,1,.46.82,4.3,4.3,0,0,1,.13,1,3,3,0,0,1-.62,1.92,3.91,3.91,0,0,1-1.83,1.27,10.79,10.79,0,0,1-7.2-.34A2.56,2.56,0,0,1,412.28,420.26Zm5.19-12a3.14,3.14,0,0,1-2.69-1.24,6.06,6.06,0,0,1-1-3.68,5.54,5.54,0,0,1,.93-3.45,3.17,3.17,0,0,1,2.66-1.14,3.33,3.33,0,0,1,1.82.5,3.47,3.47,0,0,1,1.24,1.59,7.25,7.25,0,0,1,.48,2.82,7.58,7.58,0,0,1-.21,1.8,4.64,4.64,0,0,1-.61,1.47,2.9,2.9,0,0,1-1.06,1A3.26,3.26,0,0,1,417.47,408.26Z" transform="translate(-260 -274.68)"/></g></svg>