<svg xmlns="http://www.w3.org/2000/svg" viewBox="0 0 296 244"><defs><style>.cls-1{fill:#fff;}.cls-2{fill:#004a8f;}</style></defs><title>castle-roofing-logo-blue</title><g id="white_bg" data-name="white bg"><rect class="cls-1" width="296" height="244"/></g><g id="castle_shape" data-name="castle shape"><path class="cls-2" d="M460.92,300l-19.71,9.2V289.55l-30.68-16.22h0l-19.72,9.2V262.9l-30.67-16.23L329.47,262.9v19.63l-19.72-9.2h0l-30.67,16.22v19.64L259.36,300h0l-30.67,16.22v42.5h0l131.45-45.2h0l131.46,45.2h0v-42.5ZM262.4,304.76l9.85,4.6-9.85,5.21Zm50.39-26.65,9.85,4.59-9.85,5.21Zm175.76,76.34L363.18,311.34V251.73l24.59,13v19.63l1.62.86,19.72,10.43,4.47,2.36V278.38l24.58,13V311l1.62.86,19.72,10.43,4.47,2.36V305l24.58,13Z" transform="translate(-212 -235)"/></g><g id="white_castle_outline" data-name="white castle outline"><path class="cls-1" d="M473.28,379.31l-.48-.52-.64-.68h3.76l-.16-7.15v-.77a47.38,47.38,0,0,0-1.41-11.29,25.23,25.23,0,0,0-4.12-8.59,20.1,20.1,0,0,0-7.8-6.07A27.3,27.3,0,0,0,438.11,346a24.84,24.84,0,0,0-9.39,10.76c0,.08-.07.16-.1.23V322.71H418l-10.28.42-.72,0-6.71.28V339.6l5.45,1c0,.55,0,1.31,0,2.35h-6.95v-10.5H378.19l-.75,6.15-.08.66c-.36,2.95-.62,4.47-.78,5.23l0,.06-3.31-.68-.6-.12c-2.86-.59-5.32-1-7.3-1.2a60.6,60.6,0,0,0-6.24-.32A31.24,31.24,0,0,0,348,344.06a19.35,19.35,0,0,0-9,6.59,17,17,0,0,0-1.58,2.62c-.15-.39-.31-.76-.48-1.13a16.31,16.31,0,0,0-7.26-7.72,22.15,22.15,0,0,0-10.36-2.23,34.65,34.65,0,0,0-7.13.74,47.63,47.63,0,0,0-6.52,1.88,67.14,67.14,0,0,0-6.68,3v-19.3l-5.22-1.37-.56-.15a59.82,59.82,0,0,0-16.6-2.16,30,30,0,0,0-28.91,19.08,49,49,0,0,0-3.47,18.95c0,11.35,2.39,20.27,7.1,26.5,5.14,6.8,12.92,10.39,22.51,10.39a82.42,82.42,0,0,0,10.19-.59,69.75,69.75,0,0,0,9.21-1.8l.55-.15,4.51-1.2a17.7,17.7,0,0,0,2.61,1.64,20.17,20.17,0,0,0,9.22,2.1,23.47,23.47,0,0,0,6.27-.84v.16h27.43v-.69c1.32.28,2.64.53,4,.74a51.61,51.61,0,0,0,8.14.63,37.17,37.17,0,0,0,8-.82,21.62,21.62,0,0,0,7.7-3.29,17.56,17.56,0,0,0,5.74-6.64c.09-.17.16-.34.24-.52a17.49,17.49,0,0,0,2.88,5.19c2.29,2.77,6.6,6.08,14.15,6.08a20.07,20.07,0,0,0,6.38-1v.36h32.38v-5.85c3.34,3.25,8.91,6.53,17.78,6.53a26.36,26.36,0,0,0,8.46-1.32,27,27,0,0,0,7-3.56,43.83,43.83,0,0,0,6.11-5.43l.49-.51,4.59-4.8Z" transform="translate(-212 -235)"/></g><g id="castle_roofing_text" data-name="castle roofing text"><path class="cls-2" d="M283.87,332.25a58.2,58.2,0,0,0-7.24-.41,23.06,23.06,0,0,0-22.45,14.79,42,42,0,0,0-2.93,16.24c0,9.8,1.91,17.29,5.68,22.28s9.52,7.61,16.93,7.61a73.92,73.92,0,0,0,9.31-.54,64.45,64.45,0,0,0,8.28-1.61l.56-.15V377H286.5l-.16.52a24.28,24.28,0,0,1-2.78,6.18,8.24,8.24,0,0,1-3.41,2.91,13.26,13.26,0,0,1-5.39.94,10,10,0,0,1-7.23-2.8c-2-1.89-3.52-4.77-4.56-8.54a54.09,54.09,0,0,1-1.58-14,44.31,44.31,0,0,1,1.91-13.9,18.65,18.65,0,0,1,5.16-8.44,11,11,0,0,1,7.32-2.73,11.48,11.48,0,0,1,4.71.87,8.57,8.57,0,0,1,3.36,2.88,18.21,18.21,0,0,1,2.48,5.65l.15.55H292V333.92l-.56-.15A58.91,58.91,0,0,0,283.87,332.25Z" transform="translate(-212 -235)"/><path class="cls-2" d="M333.76,387.61a2.69,2.69,0,0,1-1-.88,4.2,4.2,0,0,1-.53-1.5A13.18,13.18,0,0,1,332,383c0-.83-.05-2.27-.05-4.42V363.72c0-3.86-.44-6.69-1.34-8.65a9.34,9.34,0,0,0-4.16-4.45,15.36,15.36,0,0,0-7.11-1.43,27.75,27.75,0,0,0-5.69.59,40,40,0,0,0-5.55,1.61,60.77,60.77,0,0,0-6.89,3.16l-.4.21v6.74h6.88l.16-.54a9.92,9.92,0,0,1,2.81-4.88,7.17,7.17,0,0,1,4.85-1.56,8.18,8.18,0,0,1,4.48,1.07,6.12,6.12,0,0,1,2.38,3.35,22.26,22.26,0,0,1,.81,6.74v2.05c-7.92.42-14,1.76-18.05,4-4.34,2.39-6.54,5.84-6.54,10.25A11.11,11.11,0,0,0,300,387.6a9.72,9.72,0,0,0,4.1,3.82,13.14,13.14,0,0,0,6,1.34,16.58,16.58,0,0,0,7.24-1.65,25.5,25.5,0,0,0,6.48-4.82l-.18,5,0,.78h13.18v-3.41l-.55-.15A12.14,12.14,0,0,1,333.76,387.61Zm-10.58-14.92v5.24a7.57,7.57,0,0,1-1.21,3.91,9.7,9.7,0,0,1-3.42,3.31,9.32,9.32,0,0,1-4.87,1.3,10,10,0,0,1-3.28-.48,4.28,4.28,0,0,1-2.1-1.66,5.93,5.93,0,0,1-.85-3.4,6.36,6.36,0,0,1,3.89-6C314,373.55,317.94,372.81,323.18,372.69Z" transform="translate(-212 -235)"/><path class="cls-2" d="M367,370.63a45.44,45.44,0,0,0-6.82-3.51,43.06,43.06,0,0,1-5.89-2.88,7.32,7.32,0,0,1-2.28-2.15,5.25,5.25,0,0,1-.7-2.83,4.52,4.52,0,0,1,1.74-3.78,7.83,7.83,0,0,1,5-1.43,10.91,10.91,0,0,1,3.69.55,6.36,6.36,0,0,1,2.59,1.85,12.16,12.16,0,0,1,2.07,3.79l.18.49h5.36v-10l-.6-.12c-2.65-.54-4.88-.91-6.64-1.1a54.56,54.56,0,0,0-5.5-.28,24.47,24.47,0,0,0-8.65,1.41,12.58,12.58,0,0,0-5.8,4.19,10.69,10.69,0,0,0-2,6.51,9.71,9.71,0,0,0,1.46,5.34,13.12,13.12,0,0,0,3.9,3.84,40,40,0,0,0,6.33,3.21,49.49,49.49,0,0,1,6.18,3,7.5,7.5,0,0,1,2.4,2.25,5.91,5.91,0,0,1,.74,3.14,6.06,6.06,0,0,1-.59,2.83,4.54,4.54,0,0,1-1.58,1.75,7.32,7.32,0,0,1-2.36,1,13.49,13.49,0,0,1-2.84.3,9.13,9.13,0,0,1-5.75-1.61,10.16,10.16,0,0,1-3.15-5.3l-.16-.53h-5.47v10.21l.55.15a67.73,67.73,0,0,0,6.63,1.4,45.15,45.15,0,0,0,7,.54,29.47,29.47,0,0,0,6.43-.66,14.62,14.62,0,0,0,5.23-2.2,10.63,10.63,0,0,0,3.47-4,13.3,13.3,0,0,0,1.23-6,9.79,9.79,0,0,0-1.46-5.39A13.48,13.48,0,0,0,367,370.63Z" transform="translate(-212 -235)"/><path class="cls-2" d="M404.6,383.66l-.5-.6-.58.53a11.19,11.19,0,0,1-2.75,1.89,6.62,6.62,0,0,1-2.87.63,6.21,6.21,0,0,1-2.73-.51,5.06,5.06,0,0,1-1.84-1.73,8.45,8.45,0,0,1-1.15-3.51,49.45,49.45,0,0,1-.33-6.47V355.71h13.73v-5.8H391.85v-10.5h-7.46l-.08.66c-.31,2.56-.61,4.52-.88,5.82a11.65,11.65,0,0,1-1.09,3.15,5.26,5.26,0,0,1-1.82,1.93,8.24,8.24,0,0,1-3.16,1.08l-.63.1v3.56H383v22.86c0,4.78,1,8.37,2.85,10.66s4.87,3.53,8.74,3.53a13.38,13.38,0,0,0,5.93-1.4,23.64,23.64,0,0,0,5.91-4.39l.5-.48-.44-.53Z" transform="translate(-212 -235)"/><path class="cls-2" d="M423,387.35a3,3,0,0,1-1-1.75,25.09,25.09,0,0,1-.32-4.9v-51h-3.3l-10.29.43-.71,0v3.57l.62.11a13.22,13.22,0,0,1,2.81.7,2.68,2.68,0,0,1,1,.8,4.09,4.09,0,0,1,.63,1.49,13.42,13.42,0,0,1,.32,2.59c0,1.07.06,3,.06,5.67V380.7c0,1.5-.05,2.73-.14,3.64a7.07,7.07,0,0,1-.45,2,2.71,2.71,0,0,1-.95,1.12,8.76,8.76,0,0,1-2.7,1l-.56.14v3.42h18.38v-3.42l-.56-.14A7.91,7.91,0,0,1,423,387.35Z" transform="translate(-212 -235)"/><path class="cls-2" d="M465.1,380.82l-.55-.58-.54.58a17.91,17.91,0,0,1-5.32,4.06,14,14,0,0,1-6,1.23,10.2,10.2,0,0,1-6.25-1.78,10,10,0,0,1-3.44-5,26.71,26.71,0,0,1-1.09-8.21h26.82l0-.77a39.89,39.89,0,0,0-1.16-9.56,18.09,18.09,0,0,0-2.93-6.21,13.06,13.06,0,0,0-5.12-3.95,18.47,18.47,0,0,0-7.62-1.43,18.79,18.79,0,0,0-10.1,2.75,18.08,18.08,0,0,0-6.76,7.81,26.81,26.81,0,0,0-2.35,11.5c0,7,1.56,12.37,4.64,16s7.76,5.52,13.81,5.52a19.25,19.25,0,0,0,11.42-3.59,36.36,36.36,0,0,0,5.11-4.55l.49-.52-.48-.52Zm-13.6-26.77a6.1,6.1,0,0,1,4.18,1.37,8.74,8.74,0,0,1,2.46,4.12,29.9,29.9,0,0,1,1.06,6.54h-17c.36-3.79,1.33-6.76,2.87-8.82A7.52,7.52,0,0,1,451.5,354.05Z" transform="translate(-212 -235)"/><path class="cls-2" d="M290.82,450.67a7.36,7.36,0,0,1-1.7-1.73,31.25,31.25,0,0,1-2.1-3.46l-2.88-5.24a23.64,23.64,0,0,0-3.16-4.72,9.76,9.76,0,0,0-2.71-2,15.57,15.57,0,0,0,6.64-4.64,12.24,12.24,0,0,0,2.52-7.75c0-4-1.32-6.94-3.91-8.84s-6.41-2.81-11.48-2.81H255.73v2.44l.36.1a10.36,10.36,0,0,1,2,.71,2.25,2.25,0,0,1,.8.73,3.71,3.71,0,0,1,.45,1.37,23.06,23.06,0,0,1,.15,3.13v27.64a20.31,20.31,0,0,1-.2,3.42,2.65,2.65,0,0,1-.72,1.5,6.14,6.14,0,0,1-2.44,1l-.37.09v2.46h14.48V451.6l-.37-.1a10.36,10.36,0,0,1-2-.71,2.12,2.12,0,0,1-.78-.7,3.46,3.46,0,0,1-.45-1.37,22.31,22.31,0,0,1-.17-3.26V435.1h3a12,12,0,0,1,2.24.16,3.77,3.77,0,0,1,1.3.57,5.66,5.66,0,0,1,1.37,1.49,31.4,31.4,0,0,1,2.06,3.52l2.81,5.33c.71,1.35,1.43,2.67,2.15,4a39.32,39.32,0,0,0,2.33,3.69l.15.21h9.61v-2.49l-.42-.07A5.6,5.6,0,0,1,290.82,450.67Zm-24.35-37.33c1.13-.06,2.53-.09,4.16-.09a12.37,12.37,0,0,1,5.47,1A6.45,6.45,0,0,1,279,417.1a10.51,10.51,0,0,1,1,4.82,11.8,11.8,0,0,1-.84,4.7,7.45,7.45,0,0,1-2.19,2.92,7.88,7.88,0,0,1-3,1.43,20.63,20.63,0,0,1-4.39.38h-3.11Z" transform="translate(-212 -235)"/><path class="cls-2" d="M309.32,422a15.29,15.29,0,0,0-7.52,1.84,12.84,12.84,0,0,0-5.24,5.62,20.28,20.28,0,0,0-1.89,9.14c0,5.22,1.22,9.22,3.63,11.92s5.95,4.08,10.51,4.08a16,16,0,0,0,7.88-1.87,12.52,12.52,0,0,0,5.19-5.67,21,21,0,0,0,1.81-9.16c0-5.07-1.22-9-3.64-11.75S314,422,309.32,422Zm3.33,28.12a5.78,5.78,0,0,1-3.36.95,6.08,6.08,0,0,1-5.56-3.28c-1.34-2.27-2-5.58-2-9.86,0-4,.67-7.14,2-9.29a6,6,0,0,1,5.5-3.12,5.74,5.74,0,0,1,3.77,1.35,9.18,9.18,0,0,1,2.67,4.32,24.63,24.63,0,0,1,1,7.64,27.09,27.09,0,0,1-.41,4.75,13.1,13.1,0,0,1-1.3,3.92A7.32,7.32,0,0,1,312.65,450.08Z" transform="translate(-212 -235)"/><path class="cls-2" d="M344.05,422a15.32,15.32,0,0,0-7.53,1.84,12.87,12.87,0,0,0-5.23,5.62,20.15,20.15,0,0,0-1.89,9.14c0,5.21,1.22,9.22,3.62,11.92s6,4.08,10.52,4.08a16,16,0,0,0,7.88-1.87,12.58,12.58,0,0,0,5.19-5.67,21,21,0,0,0,1.81-9.16c0-5.07-1.23-9-3.64-11.75S348.74,422,344.05,422Zm3.33,28.12A5.78,5.78,0,0,1,344,451a6.08,6.08,0,0,1-5.56-3.28c-1.34-2.27-2-5.58-2-9.86,0-4,.67-7.14,2-9.29a6,6,0,0,1,5.5-3.12,5.75,5.75,0,0,1,3.78,1.35,9.18,9.18,0,0,1,2.67,4.32,24.59,24.59,0,0,1,1,7.64,27.09,27.09,0,0,1-.41,4.75,13.1,13.1,0,0,1-1.3,3.92A7.32,7.32,0,0,1,347.38,450.08Z" transform="translate(-212 -235)"/><path class="cls-2" d="M373.66,420.19a36.66,36.66,0,0,1,.22-4.38,8.81,8.81,0,0,1,.76-2.85,3.76,3.76,0,0,1,1.26-1.52,3.29,3.29,0,0,1,1.76-.46,2,2,0,0,1,1.59.61,5.09,5.09,0,0,1,.93,2.31l.08.4h3.53v-6.76l-.42-.08a20.85,20.85,0,0,0-3.53-.29,13.87,13.87,0,0,0-6.4,1.41,10.74,10.74,0,0,0-4.44,4.3,15.42,15.42,0,0,0-1.87,6.9,10,10,0,0,1-.39,2.52,2.36,2.36,0,0,1-.82,1.21,4.76,4.76,0,0,1-2.18.59l-.44,0v2.58h3.86v18.83a23.3,23.3,0,0,1-.15,3.15,3.87,3.87,0,0,1-.43,1.38,2.06,2.06,0,0,1-.77.72,7.9,7.9,0,0,1-1.89.69l-.37.1v2.45h14.07v-2.47l-.39-.09a9.26,9.26,0,0,1-2-.61,2.42,2.42,0,0,1-.87-.74,3.75,3.75,0,0,1-.52-1.45,17.41,17.41,0,0,1-.2-3.13V426.73h7.63V422.5h-7.63Z" transform="translate(-212 -235)"/><path class="cls-2" d="M394.66,450.61a2.25,2.25,0,0,1-.79-1.35,18.94,18.94,0,0,1-.24-3.7V422.21h-2.47l-7.93.3v2.6l.42.07a8.94,8.94,0,0,1,2.09.58,1.89,1.89,0,0,1,.93.9,4.35,4.35,0,0,1,.4,1.79c0,.82.06,1.92.06,3.26v13.93a18.54,18.54,0,0,1-.2,3.2,3.6,3.6,0,0,1-.49,1.37,2.16,2.16,0,0,1-.73.65,9.43,9.43,0,0,1-1.68.63l-.35.11v2.44h13.53v-2.46l-.38-.09A6.32,6.32,0,0,1,394.66,450.61Z" transform="translate(-212 -235)"/><rect class="cls-2" x="174.94" y="174.98" width="6.88" height="7.2"/><path class="cls-2" d="M431.63,450.77a2.08,2.08,0,0,1-.76-.74,3.86,3.86,0,0,1-.38-1.34,28.39,28.39,0,0,1-.12-3.13V433.51A23.94,23.94,0,0,0,430,429a10.64,10.64,0,0,0-1.06-3.1,7.17,7.17,0,0,0-1.83-2.21,7.46,7.46,0,0,0-2.57-1.32,11,11,0,0,0-6.55.17,14.19,14.19,0,0,0-3.05,1.64,29.38,29.38,0,0,0-3.43,3l.34-5h-2.5l-8,.3v2.6l.41.07a8.9,8.9,0,0,1,2.1.58,1.89,1.89,0,0,1,.93.9,4.52,4.52,0,0,1,.4,1.79c0,.82.06,1.92.06,3.26v13.93a18.54,18.54,0,0,1-.2,3.2,3.67,3.67,0,0,1-.49,1.37,2.16,2.16,0,0,1-.73.65,9.43,9.43,0,0,1-1.68.63l-.35.11v2.44h13.52v-2.46l-.37-.09a6.32,6.32,0,0,1-2.17-.89,2.25,2.25,0,0,1-.79-1.35,18.64,18.64,0,0,1-.25-3.7V433.64a5.43,5.43,0,0,1,.55-2.48,8.11,8.11,0,0,1,1.85-2.26,9,9,0,0,1,2.32-1.62,6.06,6.06,0,0,1,4-.21,4.09,4.09,0,0,1,1.22.66,4.18,4.18,0,0,1,.91,1,5.75,5.75,0,0,1,.67,1.67,16.33,16.33,0,0,1,.41,2.89c.09,1.2.13,2.56.13,4v8.37a18.14,18.14,0,0,1-.2,3.14,3.46,3.46,0,0,1-.49,1.39,2.17,2.17,0,0,1-.73.65,11.05,11.05,0,0,1-1.71.63l-.35.11v2.44H434V451.6l-.37-.1A8.68,8.68,0,0,1,431.63,450.77Z" transform="translate(-212 -235)"/><path class="cls-2" d="M468,422.5H456.28a19,19,0,0,0-9.53.13,11.32,11.32,0,0,0-4,2.08,9.65,9.65,0,0,0-2.66,3.54,12,12,0,0,0-1,5,11.64,11.64,0,0,0,1.26,5.47,9.51,9.51,0,0,0,3.07,3.45,15,15,0,0,0-3.16,3.14,6.42,6.42,0,0,0-1.1,3.62,5.1,5.1,0,0,0,1,3.08,5.56,5.56,0,0,0,1.68,1.51,11.24,11.24,0,0,0-3.11,2.56,6.17,6.17,0,0,0-1.45,4,6.85,6.85,0,0,0,1.13,4,7.85,7.85,0,0,0,3.13,2.56,16.26,16.26,0,0,0,4.71,1.34,42.15,42.15,0,0,0,6,.39A20.93,20.93,0,0,0,460,467a11.67,11.67,0,0,0,5.2-3.82,9.35,9.35,0,0,0,1.82-5.65,9.5,9.5,0,0,0-1-4.37,7,7,0,0,0-3.28-3.05,13.11,13.11,0,0,0-5.74-1.1h-7.67a14.79,14.79,0,0,1-3.13-.24,2.22,2.22,0,0,1-1.25-.68,2.5,2.5,0,0,1-.36-1.49c0-1,.68-2,2-3.08a15,15,0,0,0,4.47.61c4.05,0,7.23-1,9.46-2.95s3.38-4.81,3.38-8.41a12.32,12.32,0,0,0-.6-3.85,8.2,8.2,0,0,0-1.23-2.38l5.88.23ZM443.4,459.71a5.39,5.39,0,0,1,.75-2.83,8.55,8.55,0,0,1,2.16-2.31c1.29.12,2.77.18,4.42.18h4.76a8.8,8.8,0,0,1,2.84.37,3.84,3.84,0,0,1,1.57.94,3,3,0,0,1,.73,1.3,6.32,6.32,0,0,1,.21,1.62,4.91,4.91,0,0,1-1,3,6.35,6.35,0,0,1-2.92,2,13.93,13.93,0,0,1-4.76.73c-3,0-5.29-.43-6.73-1.29A4.06,4.06,0,0,1,443.4,459.71Zm8.29-19.16a5,5,0,0,1-4.3-2,9.71,9.71,0,0,1-1.53-5.87,8.73,8.73,0,0,1,1.49-5.5,5,5,0,0,1,4.24-1.82,5.31,5.31,0,0,1,2.9.8,5.46,5.46,0,0,1,2,2.53,11.76,11.76,0,0,1,.76,4.51,12.81,12.81,0,0,1-.32,2.87,7.61,7.61,0,0,1-1,2.34,4.66,4.66,0,0,1-1.69,1.55A5.33,5.33,0,0,1,451.69,440.55Z" transform="translate(-212 -235)"/></g></svg>