<?xml version="1.0" encoding="utf-8"?>
<!-- Generator: Adobe Illustrator 22.0.1, SVG Export Plug-In . SVG Version: 6.00 Build 0)  -->
<svg version="1.1" xmlns="http://www.w3.org/2000/svg" xmlns:xlink="http://www.w3.org/1999/xlink" x="0px" y="0px"
	 viewBox="0 0 256 256" style="enable-background:new 0 0 256 256;" xml:space="preserve">
<style type="text/css">
	.st0{fill:#004A8F;}
	.st1{fill:#FFFFFF;}
	.st2{display:none;}
	.st3{display:inline;}
	.st4{fill:#F2F2F2;}
	.st5{display:inline;fill:#BDC3C7;}
	.st6{display:inline;fill:#95A5A6;}
	.st7{display:inline;fill:#EDF0F1;}
	.st8{display:inline;fill:#2A81BA;}
	.st9{display:inline;fill:#3C97D3;}
	.st10{display:inline;fill:#004A8F;}
	.st11{display:inline;fill:none;}
	.st12{fill:#FFFFFF;stroke:#004A8F;stroke-width:3;stroke-miterlimit:10;}
</style>
<g id="outer_circle">
	<circle class="st0" cx="128" cy="128" r="125"/>
	<circle class="st1" cx="128" cy="128" r="108"/>
</g>
<g id="inner_circle">
</g>
<g id="water">
</g>
<g id="reflection" class="st2">
	<g class="st3">
		<path class="st0" d="M130.2,52.3c-0.2-1.7-3-1.7-3.3,0c-7.1,57-43.2,68.8-43.2,108.4c0,24.5,20.5,44.3,44.9,44.3
			c24.3,0,44.9-19.8,44.9-44.3C173.4,121,137.3,109.3,130.2,52.3z"/>
		<path class="st4" d="M99.4,154.9c-1.2,3.1-1.9,6.4-1.9,9.9c0,14.6,11.8,26.4,26.4,26.4c3.5,0,6.8-0.7,9.9-1.9
			C115.4,188,100.7,173.3,99.4,154.9z"/>
	</g>
</g>
<g id="Layer_5" class="st2">
	<path class="st5" d="M64.9,71.3V142c0,29.7,25.7,56.6,63.7,70.7c38-14.1,63.7-41,63.7-70.7V71.3H64.9z"/>
	<path class="st6" d="M64.9,71.3V142c0,29.7,25.7,56.6,63.7,70.7V71.3H64.9z"/>
	<path class="st7" d="M79.1,85.4V142c0,24.1,20,45.3,49.5,56.6c29.5-11.3,49.5-32.5,49.5-56.6V85.4H79.1z"/>
	<path class="st8" d="M79.1,142c0,24.1,20,45.3,49.5,56.6V142H79.1z"/>
	<rect x="128.6" y="85.4" class="st9" width="49.5" height="56.6"/>
	<rect x="79.1" y="85.4" class="st5" width="49.5" height="56.6"/>
</g>
<g id="Layer_5_copy" class="st2">
	<g class="st3">
		<path class="st0" d="M184.2,79.3V142c0,12.3-5.4,24.7-15.5,35.8c-9.8,10.7-23.7,19.8-40.2,26.4c-16.5-6.5-30.3-15.6-40.2-26.4
			c-10.1-11.1-15.5-23.5-15.5-35.8V79.3h55.7H184.2 M192.2,71.3h-63.7H64.9V142c0,29.7,25.7,56.6,63.7,70.7
			c38-14.1,63.7-41,63.7-70.7V71.3L192.2,71.3z"/>
	</g>
	<g class="st3">
		<path class="st0" d="M175.1,88.4V142c0,21.7-17.8,42-46.5,53.4C99.8,184,82.1,163.7,82.1,142V88.4H175.1 M178.1,85.4h-99V142
			c0,24.1,20,45.3,49.5,56.6c29.5-11.3,49.5-32.5,49.5-56.6V85.4L178.1,85.4z"/>
	</g>
	<path class="st10" d="M79.1,142c0,24.1,20,45.3,49.5,56.6V142H79.1z"/>
	<rect x="128.6" y="85.4" class="st10" width="49.5" height="56.6"/>
	<rect x="79.1" y="85.4" class="st11" width="49.5" height="56.6"/>
</g>
<g id="Layer_7">
	<path id="wrench" class="st0" d="M184.2,86.1L171.3,99c-3.1,3.1-8,3.1-11.1,0c-3.1-3.1-3.1-8,0-11.1l12.9-12.9
		c-9.2-4.5-20.5-2.9-28.2,4.7c-7.6,7.6-9.2,19-4.7,28.2l-48.9,48.9c-4.7-1-10,0.2-13.7,3.9c-5.7,5.7-5.7,15.1,0,20.7
		c5.7,5.7,15.1,5.7,20.7,0c3.7-3.7,5.1-8.8,3.9-13.7l48.9-48.9c9.2,4.5,20.5,2.9,28.2-4.7C187,106.4,188.7,95.3,184.2,86.1z
		 M93.3,175.8c-2.7,2.7-7,2.7-9.6,0c-2.7-2.7-2.7-7,0-9.6c2.7-2.5,7-2.7,9.6,0S96,173.1,93.3,175.8z"/>
	<polygon id="base" class="st12" points="179.3,171 111.1,102.9 112.6,101.3 108.5,89.2 82.5,76.1 73.3,85.3 87.2,112.1 98.6,115.4 
		100.1,113.8 168.2,182.1 	"/>
	<path id="line" class="st0" d="M178.9,181.7L178.9,181.7c-4.5,4.5-12.1,4.5-16.6,0l-24.8-25c-4.5-4.5-4.5-12.1,0-16.6l0,0
		c4.5-4.5,12.1-4.5,16.6,0l24.8,25C183.4,169.6,183.4,177,178.9,181.7z"/>
</g>
</svg>
