<?xml version="1.0" encoding="utf-8"?>
<!-- Generator: Adobe Illustrator 22.0.1, SVG Export Plug-In . SVG Version: 6.00 Build 0)  -->
<svg version="1.1" xmlns="http://www.w3.org/2000/svg" xmlns:xlink="http://www.w3.org/1999/xlink" x="0px" y="0px"
	 viewBox="0 0 256 256" style="enable-background:new 0 0 256 256;" xml:space="preserve">
<style type="text/css">
	.st0{fill:#004A8F;}
	.st1{fill:#FFFFFF;}
	.st2{fill:#F2F2F2;}
</style>
<g id="outer_circle">
	<circle class="st0" cx="128" cy="128" r="125"/>
	<circle class="st1" cx="128" cy="128" r="108"/>
</g>
<g id="inner_circle">
</g>
<g id="water">
</g>
<g id="reflection">
	<g>
		<path class="st0" d="M130.2,52.3c-0.2-1.7-3-1.7-3.3,0c-7.1,57-43.2,68.8-43.2,108.4c0,24.5,20.5,44.3,44.9,44.3
			c24.3,0,44.9-19.8,44.9-44.3C173.4,121,137.3,109.3,130.2,52.3z"/>
		<path class="st2" d="M99.4,154.9c-1.2,3.1-1.9,6.4-1.9,9.9c0,14.6,11.8,26.4,26.4,26.4c3.5,0,6.8-0.7,9.9-1.9
			C115.4,188,100.7,173.3,99.4,154.9z"/>
	</g>
</g>
</svg>
