<?xml version="1.0" encoding="utf-8"?>
<!-- Generator: Adobe Illustrator 22.0.1, SVG Export Plug-In . SVG Version: 6.00 Build 0)  -->
<svg version="1.1" xmlns="http://www.w3.org/2000/svg" xmlns:xlink="http://www.w3.org/1999/xlink" x="0px" y="0px"
	 viewBox="0 0 720 720" style="enable-background:new 0 0 720 720;" xml:space="preserve">
<style type="text/css">
	.Arched_x0020_Green{fill:url(#SVGID_1_);stroke:#FFFFFF;stroke-width:0.25;stroke-miterlimit:1;}
	.st0{display:none;}
	.st1{display:inline;}
	.st2{display:inline;fill:#004A8F;}
	.st3{font-family:'CambriaMath';}
	.st4{font-size:79.7176px;}
	.st5{font-size:59.8754px;}
	.st6{fill:none;}
	.st7{fill:#FFFFFF;}
</style>
<linearGradient id="SVGID_1_" gradientUnits="userSpaceOnUse" x1="0" y1="720" x2="0.7071" y2="719.2929">
	<stop  offset="0" style="stop-color:#20AC4B"/>
	<stop  offset="0.9831" style="stop-color:#19361A"/>
</linearGradient>
<g id="black_bg" class="st0">
	<rect class="st1" width="720" height="720"/>
</g>
<g id="original_text" class="st0">
	<text transform="matrix(1 0 0 1 106.2617 368.1997)" class="st2 st3 st4">Castle</text>
	<text transform="matrix(1 0 0 1 108.9585 425.1348)" class="st2 st3 st5">Roofing</text>
</g>
<g id="castle_shape">
</g>
<g id="white_castle_outline">
	<g>
		<polygon class="st6" points="109.3,247.3 134.5,233.9 109.3,222.1 		"/>
		<polygon class="st6" points="238.6,178.9 263.9,165.5 238.6,153.7 		"/>
		<path class="st7" d="M618.8,209.9l-50.6,23.6v-50.4l-78.7-41.6l-50.6,23.6v-50.4L360.1,73l-78.7,41.6v50.4l-50.6-23.6l-78.7,41.6
			v50.4l-50.6-23.6l-78.7,41.6v109.1v0l42.1-14.5c1.5-8.4,3.7-16.2,6.8-23.5c6.4-15.3,16.2-27.4,28.9-36c12.8-8.6,28.1-13,45.3-13
			c7.4,0,14.4,0.4,20.8,1.2c6.5,0.8,13.8,2.3,21.8,4.4l1.4,0.4l13.4,3.5V297v1.5v0.1l156.9-53.9L463.3,280v-8.3L368,239V86
			l63.1,33.4v45.7v4.7l4.2,2.2l50.6,26.8l11.5,6.1v-13v-37.4l63.1,33.4v45.7v4.7l4.2,2.2l50.6,26.8l11.5,6.1v-13v-37.4l63.1,33.4
			v93.4l-153.8-52.9v8.3l161.7,55.6v0V251.5L618.8,209.9z M109.3,247.3v-25.2l25.3,11.8L109.3,247.3z M238.6,178.9v-25.2l25.3,11.8
			L238.6,178.9z"/>
	</g>
</g>
<g id="castle_roofing_text">
	<g>
		<g>
			<path class="st7" d="M164.4,292.7c-5.7-0.7-11.9-1.1-18.6-1.1c-13.6,0-25.4,3.3-35.2,9.9c-9.8,6.6-17.3,16-22.4,28
				c-5,11.9-7.5,25.9-7.5,41.7c0,25.1,4.9,44.4,14.6,57.2c9.8,13,24.4,19.5,43.5,19.5c8.6,0,16.7-0.5,23.9-1.4
				c7.2-0.9,14.4-2.3,21.3-4.1l1.4-0.4v-1.5v-31.2v-1.9h-1.9h-10.8h-1.4l-0.4,1.3c-2.3,7-4.7,12.3-7.1,15.9
				c-2.4,3.4-5.3,5.9-8.8,7.5c-3.5,1.6-8.2,2.4-13.8,2.4c-7.4,0-13.5-2.3-18.5-7.2c-5.1-4.9-9-12.2-11.7-21.9
				c-2.7-9.9-4.1-22-4.1-36c0-13.9,1.7-25.9,4.9-35.7c3.2-9.6,7.7-16.9,13.2-21.6c5.5-4.7,11.8-7,18.8-7c4.7,0,8.8,0.8,12.1,2.2
				c3.2,1.5,6.1,3.9,8.6,7.4c2.5,3.6,4.7,8.4,6.4,14.5l0.4,1.4h1.5h10.8h1.9v-1.9v-30.2V297l-1.4-0.4
				C176.6,294.7,170,293.4,164.4,292.7z"/>
		</g>
		<g>
			<path class="st7" d="M292.4,434.8c-1.1-0.6-2-1.4-2.5-2.3c-0.6-0.9-1-2.2-1.4-3.9c-0.3-1.8-0.6-3.8-0.6-5.9
				c-0.1-2.1-0.1-5.8-0.1-11.3v-38c0-9.9-1.1-17.2-3.5-22.2c-2.4-5.1-6-8.9-10.7-11.4c-4.6-2.4-10.8-3.7-18.3-3.7
				c-4.9,0-9.8,0.5-14.6,1.5c-4.7,1-9.5,2.4-14.2,4.1c-4.7,1.7-10.7,4.5-17.7,8.1l-1,0.5v1.2v14.2v1.9h1.9h14.3h1.4l0.4-1.4
				c1.6-5.6,4.1-9.8,7.2-12.5c3.1-2.7,7.3-4,12.4-4c4.8,0,8.7,0.9,11.5,2.7c2.7,1.8,4.8,4.7,6.1,8.6c1.4,4.2,2.1,10,2.1,17.3v5.3
				c-20.3,1.1-35.9,4.5-46.3,10.2c-11.1,6.1-16.8,15-16.8,26.3c0,5.4,1.2,10.3,3.6,14.5c2.4,4.2,6,7.5,10.5,9.8
				c4.5,2.3,9.7,3.4,15.5,3.4c6.5,0,12.8-1.4,18.6-4.2c5.2-2.5,10.8-6.7,16.6-12.4l-0.4,12.9l-0.1,2h2h29.9h1.9v-1.9V439v-1.5
				l-1.4-0.4C295.9,436.3,293.7,435.5,292.4,434.8z M265.3,396.5v13.4c0,3.3-1,6.6-3.1,10c-2.1,3.4-5,6.3-8.8,8.5
				c-3.7,2.2-7.9,3.3-12.5,3.3c-3.3,0-6.1-0.4-8.4-1.3c-2.2-0.8-3.9-2.2-5.4-4.3c-1.4-2.1-2.2-5-2.2-8.7c0-6.9,3.3-12,10-15.4
				C241.6,398.7,251.8,396.8,265.3,396.5z"/>
		</g>
		<g>
			<path class="st7" d="M377.6,391.2c-4.1-2.7-10-5.8-17.5-9c-7.2-3.1-12.3-5.6-15.1-7.4c-2.7-1.7-4.6-3.6-5.9-5.5
				c-1.2-1.9-1.8-4.3-1.8-7.3c0-4.1,1.5-7.3,4.5-9.7c3.1-2.4,7.4-3.7,12.7-3.7c3.8,0,6.9,0.5,9.5,1.4c2.4,0.9,4.7,2.5,6.6,4.8
				c2,2.3,3.8,5.6,5.3,9.7l0.5,1.3h1.3h10.5h1.9v-1.9v-22.3V340l-1.5-0.3c-6.8-1.4-12.5-2.3-17.1-2.8c-4.5-0.5-9.3-0.7-14.1-0.7
				c-8.4,0-15.9,1.2-22.2,3.6c-6.4,2.5-11.5,6.1-14.9,10.8c-3.5,4.7-5.2,10.3-5.2,16.7c0,5.2,1.3,9.8,3.7,13.7
				c2.4,3.8,5.8,7.1,10,9.9c4.1,2.7,9.6,5.4,16.3,8.2c7.6,3.2,12.9,5.8,15.9,7.7c2.8,1.8,4.9,3.7,6.2,5.8c1.3,2,1.9,4.7,1.9,8
				c0,2.9-0.5,5.4-1.5,7.3c-1,1.9-2.3,3.4-4,4.5c-1.8,1.1-3.8,2-6.1,2.5c-2.4,0.5-4.8,0.8-7.3,0.8c-6.3,0-11.3-1.4-14.8-4.1
				c-3.5-2.7-6.2-7.3-8.1-13.6l-0.4-1.4h-1.4h-10.7h-1.9v1.9v22.8v1.5l1.4,0.4c5.5,1.5,11.2,2.7,17,3.6c5.8,0.9,11.9,1.4,18.1,1.4
				c5.9,0,11.5-0.6,16.5-1.7c5.1-1.1,9.6-3,13.4-5.6c3.8-2.6,6.8-6.1,8.9-10.3c2.1-4.2,3.2-9.4,3.2-15.4c0-5.3-1.3-9.9-3.8-13.8
				C385.2,397.4,381.9,394,377.6,391.2z"/>
		</g>
		<g>
			<path class="st7" d="M474.3,424.7l-1.3-1.5l-1.5,1.4c-2.3,2.1-4.7,3.8-7.1,4.9c-2.3,1.1-4.8,1.6-7.4,1.6c-2.9,0-5.2-0.4-7-1.3
				c-1.7-0.9-3.3-2.4-4.7-4.4c-1.4-2.1-2.4-5.1-3-9c-0.6-4-0.9-9.6-0.9-16.6v-46.7h33.3h1.9V351v-11V338h-1.9h-33.3v-25v-1.9h-1.9
				h-15.5h-1.7l-0.2,1.7c-0.8,6.6-1.6,11.6-2.3,15c-0.7,3.3-1.6,6-2.8,8.1c-1.1,2-2.7,3.6-4.7,4.9c-2,1.3-4.7,2.2-8.1,2.8l-1.6,0.3
				v1.6v5.6v1.9h1.9h14.2v58.7c0,12.3,2.5,21.5,7.3,27.4c4.9,6,12.5,9.1,22.5,9.1c5.2,0,10.3-1.2,15.2-3.6
				c4.8-2.3,9.9-6.1,15.2-11.3l1.3-1.2l-1.1-1.4L474.3,424.7z"/>
		</g>
		<g>
			<path class="st7" d="M521.4,434.1c-1.3-1-2.2-2.5-2.6-4.5c-0.5-2.3-0.8-6.5-0.8-12.6V288.1v-1.9H516h-6.6l-26.4,1.1l-1.8,0.1v1.8
				v5.7v1.6l1.6,0.3c4.4,0.8,6.4,1.4,7.2,1.8c1.1,0.5,2,1.2,2.7,2c0.7,0.9,1.2,2.2,1.6,3.8c0.4,1.8,0.7,4,0.8,6.7
				c0.1,2.7,0.2,7.6,0.2,14.6V417c0,3.9-0.1,7-0.4,9.3c-0.2,2.2-0.6,4-1.2,5.2c-0.5,1.1-1.3,2-2.4,2.9c-0.8,0.6-2.7,1.6-6.9,2.6
				l-1.4,0.4v1.5v5.4v1.9h1.9h43.3h1.9v-1.9V439v-1.5l-1.5-0.4C525.3,436.2,522.8,435.2,521.4,434.1z"/>
		</g>
		<g>
			<path class="st7" d="M629.6,417.4l-1.4-1.5l-1.4,1.5c-4.5,4.8-9.1,8.3-13.7,10.4c-4.5,2.1-9.6,3.1-15.3,3.1c-6.6,0-12-1.5-16-4.6
				c-4.1-3.1-7-7.4-8.8-12.8c-1.9-5.6-2.8-12.7-2.8-21.1v0H637h2l0-2c-0.2-10-1.2-18.3-3-24.5c-1.8-6.4-4.3-11.7-7.5-15.9
				c-3.3-4.3-7.7-7.7-13.1-10.1c-5.4-2.4-12-3.7-19.6-3.7c-9.7,0-18.4,2.4-25.9,7.1c-7.5,4.7-13.3,11.4-17.4,20
				c-4,8.5-6,18.4-6,29.5c0,17.9,4,31.7,11.9,41c8,9.4,19.9,14.2,35.4,14.2c5.8,0,11.2-0.8,16-2.5c4.8-1.6,9.3-3.9,13.3-6.8
				c4-2.8,8.4-6.7,13.1-11.7l1.3-1.3l-1.2-1.3L629.6,417.4z M594.6,348.6c4.5,0,8,1.1,10.7,3.5c2.8,2.4,4.9,6,6.3,10.6
				c1.3,4.4,2.3,10,2.7,16.8h-43.6c0.9-9.7,3.4-17.3,7.4-22.6C582.3,351.3,587.7,348.6,594.6,348.6z"/>
		</g>
	</g>
	<g>
		<path class="st7" d="M182.2,596.7c-1.5-1-2.9-2.5-4.4-4.5c-1.5-2-3.3-5-5.4-8.9l-7.4-13.4c-2.9-5.4-5.7-9.5-8.1-12.1
			c-2-2.1-4.3-3.9-7-5.2c7.4-3,13.1-7,17-11.9c4.3-5.5,6.5-12.2,6.5-19.9c0-10.2-3.4-17.8-10-22.7c-6.5-4.8-16.4-7.2-29.5-7.2H92.1
			v6.3l0.9,0.3c3,0.8,4.4,1.4,5.1,1.8c0.9,0.5,1.5,1.1,2.1,1.9c0.5,0.8,0.9,2,1.2,3.5c0.3,1.7,0.4,4.4,0.4,8v70.9
			c0,4-0.2,6.9-0.5,8.8c-0.3,1.7-0.9,3-1.9,3.8c-0.7,0.6-2.3,1.6-6.3,2.6l-1,0.2v6.3h37.2V599l-0.9-0.3c-3-0.8-4.4-1.4-5.1-1.8
			c-0.9-0.5-1.5-1.1-2-1.8c-0.5-0.7-0.9-1.9-1.2-3.5c-0.3-1.7-0.4-4.5-0.4-8.4v-26.6h7.7c2.6,0,4.5,0.1,5.7,0.4
			c1.2,0.3,2.3,0.7,3.3,1.4c1,0.7,2.2,2,3.5,3.8c1.3,1.9,3.1,4.9,5.3,9l7.2,13.7c1.8,3.5,3.6,6.9,5.5,10.2c1.9,3.4,3.9,6.5,6,9.5
			l0.4,0.5h24.7v-6.4l-1.1-0.2C185.6,598.4,183.6,597.7,182.2,596.7z M119.7,500.8c2.9-0.2,6.5-0.3,10.7-0.3c5.9,0,10.6,0.9,14,2.6
			c3.3,1.7,5.9,4.1,7.5,7.3c1.7,3.2,2.5,7.4,2.5,12.4c0,4.8-0.7,8.8-2.1,12.1c-1.4,3.2-3.3,5.7-5.6,7.5c-2.4,1.8-5,3-7.7,3.7
			c-2.8,0.7-6.6,1-11.3,1h-8V500.8z"/>
		<path class="st7" d="M229.7,523c-7.2,0-13.7,1.6-19.3,4.7c-5.7,3.1-10.2,8-13.4,14.4c-3.2,6.4-4.9,14.3-4.9,23.5
			c0,13.4,3.1,23.7,9.3,30.6c6.2,6.9,15.3,10.5,27,10.5c7.7,0,14.5-1.6,20.2-4.8c5.7-3.2,10.2-8.1,13.3-14.6
			c3.1-6.4,4.6-14.3,4.6-23.5c0-13-3.1-23.2-9.3-30.2C251,526.5,241.7,523,229.7,523z M238.2,595.2c-2.3,1.6-5.2,2.4-8.6,2.4
			c-6.2,0-10.9-2.8-14.3-8.4c-3.4-5.8-5.2-14.3-5.2-25.3c0-10.3,1.7-18.3,5.1-23.9c3.3-5.4,7.9-8,14.1-8c3.7,0,6.8,1.1,9.7,3.4
			c2.9,2.3,5.2,6.1,6.9,11.1c1.7,5.2,2.6,11.7,2.6,19.6c0,4.2-0.4,8.3-1,12.2c-0.7,3.8-1.8,7.2-3.4,10.1
			C242.6,591.2,240.6,593.5,238.2,595.2z"/>
		<path class="st7" d="M318.8,523c-7.2,0-13.7,1.6-19.3,4.7c-5.7,3.1-10.2,8-13.4,14.4c-3.2,6.4-4.9,14.3-4.9,23.5
			c0,13.4,3.1,23.7,9.3,30.6c6.2,6.9,15.3,10.5,27,10.5c7.7,0,14.5-1.6,20.2-4.8c5.7-3.2,10.2-8.1,13.3-14.5
			c3.1-6.4,4.6-14.3,4.6-23.5c0-13-3.1-23.1-9.3-30.2C340.1,526.5,330.9,523,318.8,523z M327.4,595.2c-2.3,1.6-5.2,2.4-8.6,2.4
			c-6.2,0-10.9-2.8-14.3-8.4c-3.4-5.8-5.2-14.3-5.2-25.3c0-10.3,1.7-18.3,5.1-23.9c3.3-5.4,7.9-8,14.1-8c3.7,0,6.8,1.1,9.7,3.4
			c2.9,2.3,5.2,6.1,6.8,11.1c1.7,5.1,2.6,11.7,2.6,19.6c0,4.2-0.4,8.3-1,12.2c-0.7,3.8-1.8,7.2-3.4,10.1
			C331.7,591.2,329.8,593.5,327.4,595.2z"/>
		<path class="st7" d="M394.8,518.4c0-4.3,0.2-8.1,0.6-11.2c0.4-3,1-5.5,2-7.3c0.9-1.8,2-3.1,3.2-3.9c1.2-0.8,2.8-1.2,4.5-1.2
			c1.8,0,3.2,0.5,4.1,1.6c1,1.2,1.8,3.2,2.4,5.9l0.2,1h9.1v-17.4l-1.1-0.2c-2.8-0.5-5.9-0.8-9.1-0.8c-6.2,0-11.7,1.2-16.4,3.6
			c-4.7,2.4-8.6,6.1-11.4,11c-2.8,4.9-4.4,10.8-4.8,17.7c-0.2,2.8-0.5,4.9-1,6.5c-0.5,1.4-1.2,2.4-2.1,3.1c-0.7,0.5-2.2,1.2-5.6,1.5
			l-1.1,0.1v6.6h9.9v48.3c0,3.7-0.1,6.4-0.4,8.1c-0.2,1.6-0.6,2.8-1.1,3.5c-0.5,0.7-1.1,1.4-2,1.9c-0.7,0.4-2,1-4.9,1.8l-0.9,0.3
			v6.3H405V599l-1-0.2c-2.3-0.5-4-1-5.1-1.6c-0.9-0.5-1.7-1.1-2.2-1.9c-0.6-0.8-1-2-1.3-3.7c-0.3-1.8-0.5-4.5-0.5-8v-48.3h19.6
			v-10.9h-19.6V518.4z"/>
		<path class="st7" d="M448.8,596.5c-1-0.8-1.7-1.9-2-3.5c-0.4-1.7-0.6-4.9-0.6-9.5v-59.9l-6.3,0l-20.3,0.8v6.7l1.1,0.2
			c2.3,0.4,4.2,0.9,5.4,1.5c1.1,0.5,1.9,1.3,2.4,2.3c0.6,1.1,0.9,2.7,1,4.6c0.1,2.1,0.2,4.9,0.2,8.4v35.8c0,3.7-0.2,6.5-0.5,8.2
			c-0.3,1.6-0.7,2.8-1.3,3.5c-0.5,0.7-1.1,1.3-1.9,1.7c-0.6,0.3-1.8,0.8-4.3,1.6l-0.9,0.3v6.3h34.7V599l-1-0.2
			C451.7,598.1,449.9,597.4,448.8,596.5z"/>
		<rect x="428.9" y="492.2" class="st7" width="17.7" height="18.5"/>
		<path class="st7" d="M543.6,596.9c-0.9-0.5-1.5-1.2-1.9-1.9c-0.5-0.8-0.8-1.9-1-3.5c-0.2-1.6-0.3-4.3-0.3-8v-30.9
			c0-4.6-0.3-8.5-0.9-11.5c-0.6-3.1-1.5-5.8-2.7-8c-1.2-2.2-2.8-4.2-4.7-5.7c-1.9-1.5-4.1-2.7-6.6-3.4c-4.8-1.4-11.4-1.6-16.8,0.4
			c-2.6,1-5.3,2.4-7.8,4.2c-2.3,1.6-5.2,4.2-8.8,7.8l0.9-12.9l-6.4,0l-20.4,0.8v6.7l1.1,0.2c2.3,0.4,4.2,0.9,5.4,1.5
			c1.1,0.5,1.9,1.3,2.4,2.3c0.6,1.1,0.9,2.7,1,4.6c0.1,2.1,0.2,4.9,0.2,8.4v35.8c0,3.7-0.2,6.5-0.5,8.2c-0.3,1.6-0.7,2.8-1.3,3.5
			c-0.5,0.7-1.1,1.3-1.9,1.7c-0.6,0.3-1.8,0.8-4.3,1.6l-0.9,0.3v6.3h34.7V599l-1-0.2c-2.6-0.7-4.5-1.4-5.6-2.3c-1-0.8-1.7-1.9-2-3.5
			c-0.4-1.7-0.6-4.9-0.6-9.5v-30.6c0-2.4,0.5-4.6,1.4-6.4c1-1.9,2.6-3.8,4.7-5.8c2.2-2,4.2-3.4,6-4.2c3.5-1.6,8-1.4,10.3-0.5
			c1.2,0.4,2.2,1,3.1,1.7c0.9,0.7,1.7,1.6,2.3,2.6c0.6,1,1.2,2.4,1.7,4.3c0.5,1.9,0.9,4.4,1.1,7.4c0.2,3.1,0.3,6.6,0.3,10.3v21.5
			c0,3.6-0.2,6.3-0.5,8.1c-0.4,2-0.9,3.1-1.3,3.6c-0.5,0.7-1.2,1.3-1.9,1.7c-0.6,0.3-1.8,0.9-4.4,1.6l-0.9,0.3v6.3h34.9V599
			l-0.9-0.3C545.7,598,544.3,597.3,543.6,596.9z"/>
		<path class="st7" d="M637.1,524.4h-30.2c-8.4-2-17.2-1.8-24.5,0.3c-3.9,1.2-7.4,3-10.2,5.3c-2.9,2.4-5.2,5.4-6.8,9.1
			c-1.6,3.6-2.5,7.9-2.5,12.8c0,5.2,1.1,9.9,3.2,14c1.9,3.6,4.5,6.6,7.9,8.9c-3.8,3-6.5,5.6-8.1,8.1c-1.9,2.8-2.8,5.9-2.8,9.3
			c0,3,0.8,5.7,2.5,7.9c1.1,1.6,2.6,2.9,4.3,3.9c-3.3,1.9-6,4.1-8,6.6c-2.5,3-3.7,6.5-3.7,10.2c0,4.1,1,7.5,2.9,10.3
			c1.9,2.7,4.6,4.9,8,6.6c3.4,1.6,7.4,2.8,12.1,3.4c4.6,0.7,9.8,1,15.3,1c7.6,0,14.3-1.2,20-3.5c5.8-2.3,10.3-5.6,13.3-9.8
			c3.1-4.2,4.7-9.1,4.7-14.5c0-4.2-0.8-8-2.5-11.2c-1.7-3.3-4.5-5.9-8.4-7.8c-3.8-1.9-8.8-2.8-14.7-2.8h-19.7c-3.6,0-6.3-0.2-8-0.6
			c-1.5-0.4-2.6-1-3.2-1.7c-0.6-0.8-0.9-2.1-0.9-3.8c0-2.5,1.7-5.2,5.2-7.9c3.3,1,7.1,1.6,11.5,1.6c10.4,0,18.6-2.5,24.3-7.6
			c5.8-5.1,8.7-12.3,8.7-21.6c0-3.5-0.5-6.8-1.5-9.9c-0.8-2.4-1.9-4.4-3.2-6.1l15.1,0.6V524.4z M573.9,619.9c0-2.7,0.6-5.1,1.9-7.3
			c1.2-2.1,3.1-4.1,5.5-5.9c3.3,0.3,7.1,0.5,11.4,0.5h12.2c3,0,5.5,0.3,7.3,1c1.8,0.6,3.1,1.4,4,2.4c0.9,1,1.5,2.1,1.9,3.3
			c0.4,1.3,0.5,2.7,0.5,4.1c0,3-0.8,5.6-2.5,7.8c-1.7,2.3-4.2,4-7.5,5.2c-3.4,1.3-7.5,1.9-12.2,1.9c-7.8,0-13.6-1.1-17.3-3.3
			C575.6,627.5,573.9,624.3,573.9,619.9z M595.1,570.7c-4.9,0-8.5-1.7-11-5.1c-2.6-3.5-3.9-8.5-3.9-15.1c0-6.2,1.3-10.9,3.8-14.1
			c2.5-3.1,6.1-4.7,10.9-4.7c2.8,0,5.3,0.7,7.4,2.1c2.1,1.4,3.8,3.5,5.1,6.5c1.3,3.1,1.9,6.9,1.9,11.6c0,2.5-0.3,5-0.8,7.4
			c-0.5,2.3-1.4,4.3-2.5,6c-1.1,1.7-2.5,3-4.3,4C599.9,570.2,597.7,570.7,595.1,570.7z"/>
	</g>
</g>
</svg>
