<?xml version="1.0" encoding="utf-8"?>
<!-- Generator: Adobe Illustrator 24.2.3, SVG Export Plug-In . SVG Version: 6.00 Build 0)  -->
<svg version="1.1" id="Layer_1" xmlns="http://www.w3.org/2000/svg" xmlns:xlink="http://www.w3.org/1999/xlink" x="0px" y="0px"
	 viewBox="0 0 190.8 79.2" style="enable-background:new 0 0 190.8 79.2;" xml:space="preserve">
<style type="text/css">
	.st0{fill:#F37121;}
</style>
<g>
	<g>
		<g>
			<path class="st0" d="M47.4,33.6c0,0-9.9,10.5-6.1,20.2s5.7,13.5,4.4,21.8c0,0-1.7-8.3-9-12.3s-7.8-12.5-6.6-16S37,37.7,47.4,33.6
				z"/>
		</g>
	</g>
	<g>
		<g>
			<path class="st0" d="M72,15.9c-2.6-1.2-9.8-2.6-9.8-2.6l2.6-2.3L49.6,3.6c0,0-17.8,0-24.1,1.9c-7.9,3.4-13.1,9.9-13.1,9.9
				c5.6-3.3,10.9-2,10.9-2C11.5,17.5,3.6,39,3.6,39c8.1-12.6,25.1-17.6,25.1-17.6c-15,11.9-17.8,40.4-17.8,40.4
				c18.2-34.6,47.9-40.1,47.9-40.1s5.8-0.4,11.1,0.2c1.5,0.2,0.2,3.3,0.2,3.3c2.6-2.7,3.4-4.5,3.7-5.7C73.9,18.8,74.5,17.1,72,15.9z
				 M49,11.8c0.1,0.2,0.3,0.4,0.6,0.4c0.3,0.1,0.7,0.1,1.1,0.1c0.7,0,1.5-0.1,2.3,0.1c0.8,0.1,1.5,0.4,2.2,0.7
				c-0.7-0.2-1.5-0.4-2.2-0.4c-0.7-0.1-1.4,0.1-2.2,0.2C50.3,13,49.9,13,49.5,13c-0.4,0-1-0.3-1.3-0.7c-0.3-0.4-0.4-0.9-0.4-1.3
				c0-0.3,0-0.5,0-0.8c-1.4-0.2-2.9-0.4-4.4-0.5c1.3-0.2,2.6-0.3,3.9-0.2c1.3,0,2.6,0.1,3.9,0.3c1.3,0.2,2.6,0.5,3.8,0.9
				c1.2,0.4,2.5,0.9,3.6,1.6c-1.3-0.3-2.5-0.6-3.8-0.9c-1.3-0.2-2.5-0.5-3.8-0.7c-0.7-0.1-1.4-0.2-2.1-0.3
				C48.8,10.9,48.8,11.4,49,11.8z"/>
		</g>
	</g>
</g>
<g>
	<g>
		<g>
			<polygon points="58.5,35.1 58.5,49.4 63.2,53.7 78.6,53.7 78.6,48.9 65.6,48.9 63.9,47.4 63.9,37.2 65.6,35.6 78.6,35.6 
				78.6,30.8 63.2,30.8 			"/>
		</g>
		<g>
			<path class="st0" d="M78.9,54H63.1l-4.9-4.5V35l4.9-4.5h15.8v5.3H65.7l-1.6,1.4v10l1.6,1.4h13.2V54z M63.3,53.5h15.1v-4.3H65.5
				l-1.9-1.7V37.1l1.9-1.7h12.8V31H63.3l-4.5,4.2v14L63.3,53.5z"/>
		</g>
	</g>
	<g>
		<g>
			<path d="M87,30.5l-4.7,4.4v14.9l4.7,4.4h13.1l4.7-4.4V34.8l-4.7-4.4H87z M89.4,49.3l-1.7-1.6V36.9l1.7-1.6h8.2l1.7,1.6v10.8
				l-1.7,1.6H89.4z"/>
		</g>
		<g>
			<path class="st0" d="M100.2,54.3H86.9L82,49.8V34.7l4.9-4.5h13.3l4.9,4.5v15.1L100.2,54.3z M87.1,53.8H100l4.5-4.2V34.9l-4.5-4.2
				H87.1l-4.5,4.2v14.6L87.1,53.8z M97.7,49.5h-8.4l-1.9-1.7v-11l1.9-1.7h8.4l1.9,1.7v11L97.7,49.5z M89.5,49h8l1.6-1.4V37l-1.6-1.4
				h-8L88,37v10.6L89.5,49z"/>
		</g>
	</g>
	<g>
		<g>
			<polygon points="126,44.8 114.7,30.8 109.7,30.8 109.7,53.7 115.1,53.7 115.1,39.7 126.4,53.7 131.4,53.7 131.4,30.8 126,30.8 
							"/>
		</g>
		<g>
			<path class="st0" d="M131.7,54h-5.4l-0.1-0.1l-10.8-13.5V54h-5.9V30.5h5.4l0.1,0.1l10.8,13.5V30.5h5.9V54z M126.5,53.5h4.6V31
				h-4.9v14.5L114.6,31h-4.6v22.5h4.9V39L126.5,53.5z"/>
		</g>
	</g>
	<g>
		<g>
			<path d="M141,30.5l-4.7,4.4v14.9l4.7,4.4h13.1l4.7-4.4V34.8l-4.7-4.4H141z M143.4,49.3l-1.7-1.6V36.9l1.7-1.6h8.2l1.7,1.6v10.8
				l-1.7,1.6H143.4z"/>
		</g>
		<g>
			<path class="st0" d="M154.2,54.3h-13.3l-4.9-4.5V34.7l4.9-4.5h13.3l4.9,4.5v15.1L154.2,54.3z M141.1,53.8H154l4.5-4.2V34.9
				l-4.5-4.2h-12.9l-4.5,4.2v14.6L141.1,53.8z M151.7,49.5h-8.4l-1.9-1.7v-11l1.9-1.7h8.4l1.9,1.7v11L151.7,49.5z M143.5,49h8
				l1.6-1.4V37l-1.6-1.4h-8L142,37v10.6L143.5,49z"/>
		</g>
	</g>
	<g>
		<g>
			<path d="M184.6,42.5v-7.7l-4.4-4.1h-16.5v23h5.4v-7.2h5.9l5.2,7.2h6.5l-5.7-7.8L184.6,42.5z M169.1,35.6h8.7l1.4,1.3v3.6
				l-1.4,1.3h-8.7V35.6z"/>
		</g>
		<g>
			<path class="st0" d="M187.2,54h-7.1l-5.2-7.2h-5.5V54h-5.9V30.5h16.9l4.5,4.2v7.9l-3.5,3.4L187.2,54z M180.4,53.5h5.8l-5.5-7.6
				l3.7-3.5v-7.4l-4.2-3.9H164v22.5h4.9v-7.2h6.3L180.4,53.5z M177.9,42h-9v-6.7h9l1.6,1.4v3.8L177.9,42z M169.4,41.5h8.3l1.2-1.1
				V37l-1.2-1.1h-8.3V41.5z"/>
		</g>
	</g>
</g>
<g>
	<path d="M67.9,70.9h-6.7l-2-1.8v-6.2l2-1.8h6.7v1.7h-5.7l-0.9,0.9v4.8l0.9,0.9h5.7V70.9z"/>
	<path d="M77.2,60.8l2,1.8v6.5l-2,1.8h-5.7l-2-1.8v-6.5l2-1.8H77.2z M71.4,63.4v5.1l0.9,0.9h3.9l0.9-0.9v-5.1l-0.9-0.9h-3.9
		L71.4,63.4z"/>
	<path d="M88.7,61h2v9.9h-1.9l-5.5-6.8v6.8h-2V61h1.9l5.5,6.8V61z"/>
	<path d="M92.6,65v-2.3l1.8-1.7h6.7v1.7h-5.8l-0.8,0.7v0.9l0.8,0.7h4.5l1.8,1.7v2.5l-1.8,1.7h-7.2v-1.7H99l0.8-0.7v-1.1L99,66.7
		h-4.5L92.6,65z"/>
	<path d="M106.3,70.9v-8.2h-3.7V61h9.4v1.7h-3.7v8.2H106.3z"/>
	<path d="M115.4,67.7v3.3h-2V61h7.2l1.8,1.7V66l-1.7,1.6l2.4,3.3h-2.3l-2.3-3.3H115.4z M119.7,62.7h-4.3V66h4.3l0.8-0.7v-1.8
		L119.7,62.7z"/>
	<path d="M132,61h2v8.2l-2,1.8h-5.4l-2-1.8V61h2v7.5l0.9,0.9h3.5l0.9-0.9V61z"/>
	<path d="M144.8,70.9h-6.7l-2-1.8v-6.2l2-1.8h6.7v1.7h-5.7l-0.9,0.9v4.8l0.9,0.9h5.7V70.9z"/>
	<path d="M149.4,70.9v-8.2h-3.7V61h9.4v1.7h-3.7v8.2H149.4z"/>
	<path d="M156.1,70.9v-1.7h2v-6.5h-2V61h6v1.7h-2v6.5h2v1.7H156.1z"/>
	<path d="M171.5,60.8l2,1.8v6.5l-2,1.8h-5.7l-2-1.8v-6.5l2-1.8H171.5z M165.8,63.4v5.1l0.9,0.9h3.9l0.9-0.9v-5.1l-0.9-0.9h-3.9
		L165.8,63.4z"/>
	<path d="M183,61h2v9.9h-1.9l-5.5-6.8v6.8h-2V61h1.9l5.5,6.8V61z"/>
</g>
</svg>
