<?xml version="1.0" encoding="utf-8"?>
<!-- Generator: Adobe Illustrator 23.0.1, SVG Export Plug-In . SVG Version: 6.00 Build 0)  -->
<svg version="1.1" id="Layer_1" xmlns="http://www.w3.org/2000/svg" xmlns:xlink="http://www.w3.org/1999/xlink" x="0px" y="0px"
	 viewBox="0 0 216 216" style="enable-background:new 0 0 216 216;" xml:space="preserve">
<style type="text/css">
	.st0{display:none;}
	.st1{display:inline;fill:#FFFFFF;}
	.st2{display:inline;}
	.st3{display:inline;fill:#004A8F;}
	.st4{font-family:'ArialMT';}
	.st5{font-size:79.7176px;}
	.st6{font-size:59.8754px;}
	.st7{fill:#FFFFFF;}
</style>
<g id="white_bg" class="st0">
	<rect x="-252" y="-252" class="st1" width="720" height="720"/>
</g>
<g id="roofing">
	<g id="black_bg" class="st0">
		<rect x="-252" y="-252" class="st2" width="720" height="720"/>
	</g>
	<g id="original_text" class="st0">
		<text transform="matrix(1 0 0 1 -145.7383 116.1997)" class="st3 st4 st5">Castle</text>
		<text transform="matrix(1 0 0 1 -143.0415 173.1348)" class="st3 st4 st6">Roofing</text>
	</g>
	<g id="castle_shape">
	</g>
	<g id="castle_roofing_text">
		<g>
			<path class="st7" d="M53.4,179.3c-0.5-0.3-0.9-0.8-1.4-1.4s-1-1.5-1.7-2.7l-2.3-4.1c-0.9-1.7-1.8-2.9-2.5-3.7
				c-0.6-0.6-1.3-1.2-2.2-1.6c2.3-0.9,4-2.2,5.2-3.7c1.3-1.7,2-3.8,2-6.1c0-3.1-1-5.5-3.1-7c-2-1.5-5.1-2.2-9.1-2.2H25.4v1.9
				l0.3,0.1c0.9,0.2,1.4,0.4,1.6,0.6c0.3,0.2,0.5,0.3,0.6,0.6c0.2,0.2,0.3,0.6,0.4,1.1s0.1,1.4,0.1,2.5v21.9c0,1.2-0.1,2.1-0.2,2.7
				c-0.1,0.5-0.3,0.9-0.6,1.2c-0.2,0.2-0.7,0.5-1.9,0.8l-0.3,0.1v1.9h11.5V180l-0.3-0.1c-0.9-0.2-1.4-0.4-1.6-0.6
				c-0.3-0.2-0.5-0.3-0.6-0.6s-0.3-0.6-0.4-1.1s-0.1-1.4-0.1-2.6v-8.2h2.4c0.8,0,1.4,0,1.8,0.1s0.7,0.2,1,0.4s0.7,0.6,1.1,1.2
				s1,1.5,1.6,2.8l2.2,4.2c0.6,1.1,1.1,2.1,1.7,3.1s1.2,2,1.8,2.9l0.1,0.2h7.6v-2l-0.3-0.1C54.5,179.8,53.8,179.6,53.4,179.3z
				 M34.2,149.7c0.9-0.1,2-0.1,3.3-0.1c1.8,0,3.3,0.3,4.3,0.8s1.8,1.3,2.3,2.2c0.5,1,0.8,2.3,0.8,3.8s-0.2,2.7-0.6,3.7
				s-1,1.8-1.7,2.3c-0.7,0.6-1.5,0.9-2.4,1.1s-2,0.3-3.5,0.3h-2.5L34.2,149.7L34.2,149.7z"/>
			<path class="st7" d="M68.1,156.5c-2.2,0-4.2,0.5-5.9,1.4c-1.8,1-3.1,2.5-4.1,4.4c-1,2-1.5,4.4-1.5,7.2c0,4.1,1,7.3,2.9,9.4
				s4.7,3.2,8.3,3.2c2.4,0,4.5-0.5,6.2-1.5c1.8-1,3.1-2.5,4.1-4.5s1.4-4.4,1.4-7.2c0-4-1-7.1-2.9-9.3
				C74.6,157.6,71.7,156.5,68.1,156.5z M70.7,178.8c-0.7,0.5-1.6,0.7-2.7,0.7c-1.9,0-3.4-0.9-4.4-2.6c-1-1.8-1.6-4.4-1.6-7.8
				c0-3.2,0.5-5.6,1.6-7.4c1-1.7,2.4-2.5,4.3-2.5c1.1,0,2.1,0.3,3,1s1.6,1.9,2.1,3.4c0.5,1.6,0.8,3.6,0.8,6c0,1.3-0.1,2.6-0.3,3.8
				c-0.2,1.2-0.6,2.2-1,3.1C72,177.6,71.4,178.3,70.7,178.8z"/>
			<path class="st7" d="M95.5,156.5c-2.2,0-4.2,0.5-5.9,1.4c-1.8,1-3.1,2.5-4.1,4.4c-1,2-1.5,4.4-1.5,7.2c0,4.1,1,7.3,2.9,9.4
				s4.7,3.2,8.3,3.2c2.4,0,4.5-0.5,6.2-1.5c1.8-1,3.1-2.5,4.1-4.5s1.4-4.4,1.4-7.2c0-4-1-7.1-2.9-9.3
				C102.1,157.6,99.2,156.5,95.5,156.5z M98.2,178.8c-0.7,0.5-1.6,0.7-2.7,0.7c-1.9,0-3.4-0.9-4.4-2.6c-1-1.8-1.6-4.4-1.6-7.8
				c0-3.2,0.5-5.6,1.6-7.4c1-1.7,2.4-2.5,4.3-2.5c1.1,0,2.1,0.3,3,1s1.6,1.9,2.1,3.4c0.5,1.6,0.8,3.6,0.8,6c0,1.3-0.1,2.6-0.3,3.8
				c-0.2,1.2-0.6,2.2-1,3.1C99.5,177.6,98.9,178.3,98.2,178.8z"/>
			<path class="st7" d="M118.9,155.1c0-1.3,0.1-2.5,0.2-3.5c0.1-0.9,0.3-1.7,0.6-2.2c0.3-0.6,0.6-1,1-1.2s0.9-0.4,1.4-0.4
				c0.6,0,1,0.2,1.3,0.5c0.3,0.4,0.6,1,0.7,1.8l0.1,0.3h2.8V145l-0.3-0.1c-0.9-0.2-1.8-0.2-2.8-0.2c-1.9,0-3.6,0.4-5.1,1.1
				c-1.4,0.7-2.7,1.9-3.5,3.4s-1.4,3.3-1.5,5.5c-0.1,0.9-0.2,1.5-0.3,2c-0.2,0.4-0.4,0.7-0.6,1c-0.2,0.2-0.7,0.4-1.7,0.5h-0.3v2h3.1
				v14.9c0,1.1,0,2-0.1,2.5s-0.2,0.9-0.3,1.1s-0.3,0.4-0.6,0.6c-0.2,0.1-0.6,0.3-1.5,0.6l-0.3,0.1v1.9h11.1V180l-0.3-0.1
				c-0.7-0.2-1.2-0.3-1.6-0.5c-0.3-0.2-0.5-0.3-0.7-0.6c-0.2-0.2-0.3-0.6-0.4-1.1c-0.1-0.6-0.2-1.4-0.2-2.5v-14.9h6V157h-6
				L118.9,155.1L118.9,155.1z"/>
			<path class="st7" d="M135.6,179.2c-0.3-0.2-0.5-0.6-0.6-1.1s-0.2-1.5-0.2-2.9v-18.5h-1.9l-6.3,0.2v2.1l0.3,0.1
				c0.7,0.1,1.3,0.3,1.7,0.5c0.3,0.2,0.6,0.4,0.7,0.7c0.2,0.3,0.3,0.8,0.3,1.4s0.1,1.5,0.1,2.6v11c0,1.1-0.1,2-0.2,2.5
				s-0.2,0.9-0.4,1.1c-0.2,0.2-0.3,0.4-0.6,0.5c-0.2,0.1-0.6,0.2-1.3,0.5l-0.3,0.1v1.9h10.7v-2l-0.3-0.1
				C136.5,179.7,135.9,179.5,135.6,179.2z"/>
			<rect x="129.4" y="147" class="st7" width="5.5" height="5.7"/>
			<path class="st7" d="M164.8,179.3c-0.3-0.2-0.5-0.4-0.6-0.6c-0.2-0.2-0.2-0.6-0.3-1.1c-0.1-0.5-0.1-1.3-0.1-2.5v-9.5
				c0-1.4-0.1-2.6-0.3-3.5c-0.2-1-0.5-1.8-0.8-2.5c-0.4-0.7-0.9-1.3-1.4-1.8c-0.6-0.5-1.3-0.8-2-1c-1.5-0.4-3.5-0.5-5.2,0.1
				c-0.8,0.3-1.6,0.7-2.4,1.3c-0.7,0.5-1.6,1.3-2.7,2.4l0.3-4h-2l-6.3,0.2v2.1l0.3,0.1c0.7,0.1,1.3,0.3,1.7,0.5
				c0.3,0.2,0.6,0.4,0.7,0.7c0.2,0.3,0.3,0.8,0.3,1.4s0.1,1.5,0.1,2.6v11c0,1.1-0.1,2-0.2,2.5s-0.2,0.9-0.4,1.1
				c-0.2,0.2-0.3,0.4-0.6,0.5c-0.2,0.1-0.6,0.2-1.3,0.5l-0.3,0.1v1.9H152v-2l-0.3-0.1c-0.8-0.2-1.4-0.4-1.7-0.7
				c-0.3-0.2-0.5-0.6-0.6-1.1s-0.2-1.5-0.2-2.9v-9.4c0-0.7,0.2-1.4,0.4-2c0.3-0.6,0.8-1.2,1.4-1.8c0.7-0.6,1.3-1,1.8-1.3
				c1.1-0.5,2.5-0.4,3.2-0.2c0.4,0.1,0.7,0.3,1,0.5s0.5,0.5,0.7,0.8s0.4,0.7,0.5,1.3c0.2,0.6,0.3,1.4,0.3,2.3c0.1,1,0.1,2,0.1,3.2
				v6.6c0,1.1-0.1,1.9-0.2,2.5s-0.3,1-0.4,1.1c-0.2,0.2-0.4,0.4-0.6,0.5s-0.6,0.3-1.4,0.5l-0.3,0.1v1.9h10.8v-2l-0.3-0.1
				C165.4,179.7,165,179.4,164.8,179.3z"/>
			<path class="st7" d="M193.6,157h-9.3c-2.6-0.6-5.3-0.6-7.6,0.1c-1.2,0.4-2.3,0.9-3.1,1.6c-0.9,0.7-1.6,1.7-2.1,2.8
				c-0.5,1.1-0.8,2.4-0.8,3.9c0,1.6,0.3,3.1,1,4.3c0.6,1.1,1.4,2,2.4,2.7c-1.2,0.9-2,1.7-2.5,2.5c-0.6,0.9-0.9,1.8-0.9,2.9
				c0,0.9,0.2,1.8,0.8,2.4c0.3,0.5,0.8,0.9,1.3,1.2c-1,0.6-1.8,1.3-2.5,2c-0.8,0.9-1.1,2-1.1,3.1c0,1.3,0.3,2.3,0.9,3.2
				c0.6,0.8,1.4,1.5,2.5,2c1,0.5,2.3,0.9,3.7,1c1.4,0.2,3,0.3,4.7,0.3c2.3,0,4.4-0.4,6.2-1.1c1.8-0.7,3.2-1.7,4.1-3
				c1-1.3,1.4-2.8,1.4-4.5c0-1.3-0.2-2.5-0.8-3.5c-0.5-1-1.4-1.8-2.6-2.4s-2.7-0.9-4.5-0.9h-6.1c-1.1,0-1.9-0.1-2.5-0.2
				c-0.5-0.1-0.8-0.3-1-0.5s-0.3-0.6-0.3-1.2c0-0.8,0.5-1.6,1.6-2.4c1,0.3,2.2,0.5,3.5,0.5c3.2,0,5.7-0.8,7.5-2.3
				c1.8-1.6,2.7-3.8,2.7-6.7c0-1.1-0.2-2.1-0.5-3.1c-0.2-0.7-0.6-1.4-1-1.9l4.7,0.2L193.6,157L193.6,157z M174.1,186.4
				c0-0.8,0.2-1.6,0.6-2.2s1-1.3,1.7-1.8c1,0.1,2.2,0.2,3.5,0.2h3.8c0.9,0,1.7,0.1,2.2,0.3c0.6,0.2,1,0.4,1.2,0.7
				c0.3,0.3,0.5,0.6,0.6,1s0.2,0.8,0.2,1.3c0,0.9-0.2,1.7-0.8,2.4c-0.5,0.7-1.3,1.2-2.3,1.6s-2.3,0.6-3.8,0.6c-2.4,0-4.2-0.3-5.3-1
				C174.7,188.7,174.1,187.8,174.1,186.4z M180.7,171.2c-1.5,0-2.6-0.5-3.4-1.6s-1.2-2.6-1.2-4.7c0-1.9,0.4-3.4,1.2-4.3
				c0.8-1,1.9-1.4,3.4-1.4c0.9,0,1.6,0.2,2.3,0.6s1.2,1.1,1.6,2c0.4,1,0.6,2.1,0.6,3.6c0,0.8-0.1,1.5-0.2,2.3
				c-0.2,0.7-0.4,1.3-0.8,1.8c-0.3,0.5-0.8,0.9-1.3,1.2C182.1,171.1,181.5,171.2,180.7,171.2z"/>
		</g>
	</g>
</g>
<g id="conor_expanded">
	<g>
		<path class="st7" d="M54.2,87v9.5h-3.4c-0.5-2-1.2-3.6-2.1-4.7c-0.8-1.2-1.8-2-2.9-2.5s-2.5-0.8-4-0.8c-2.3,0-4.4,0.8-6.3,2.3
			c-1.8,1.6-3.3,3.9-4.3,7s-1.6,6.9-1.6,11.4s0.4,8.3,1.3,11.4c0.9,3.2,2.1,5.5,3.8,7.1c1.7,1.6,3.8,2.4,6.2,2.4
			c1.9,0,3.4-0.3,4.6-0.8s2.2-1.4,3-2.5c0.8-1.2,1.6-2.9,2.3-5.1h3.4v9.8c-2.1,0.6-4.3,1-6.6,1.3c-2.2,0.3-4.7,0.4-7.4,0.4
			c-5.8,0-10.2-2-13.1-5.9c-3-3.9-4.4-9.8-4.4-17.5c0-4.9,0.8-9.1,2.3-12.8c1.5-3.7,3.8-6.5,6.8-8.5s6.5-3,10.7-3
			c2.1,0,4,0.1,5.7,0.3C49.9,86,51.9,86.4,54.2,87z"/>
		<path class="st7" d="M74.8,133.2c-4.7,0-8.4-1.4-10.8-4.2c-2.5-2.8-3.7-6.9-3.7-12.4c0-3.8,0.7-6.9,2-9.5s3.1-4.5,5.4-5.8
			s4.9-1.9,7.8-1.9c4.9,0,8.6,1.4,11.1,4.3c2.5,2.8,3.8,6.9,3.8,12.2c0,3.8-0.6,7-1.9,9.6s-3,4.5-5.3,5.8
			C80.7,132.6,78,133.2,74.8,133.2z M66.7,115.9c0,4.7,0.7,8.3,2.2,10.8s3.6,3.8,6.4,3.8c1.5,0,2.8-0.4,3.9-1.1s1.9-1.7,2.6-3
			s1.2-2.7,1.5-4.4c0.3-1.7,0.4-3.4,0.4-5.2c0-3.3-0.4-6.1-1.1-8.3c-0.7-2.2-1.7-3.8-3-4.9c-1.3-1-2.7-1.6-4.4-1.6
			c-2.8,0-4.9,1.2-6.3,3.6C67.4,108.1,66.7,111.5,66.7,115.9z"/>
		<path class="st7" d="M129.1,132.7h-13.5V131c0.9-0.3,1.5-0.5,1.9-0.7s0.7-0.5,1-0.9s0.5-0.9,0.6-1.7c0.1-0.8,0.2-1.9,0.2-3.5v-8.9
			c0-1.6,0-3-0.1-4.3s-0.2-2.4-0.5-3.2c-0.2-0.8-0.5-1.5-0.8-1.9c-0.3-0.5-0.7-0.9-1.1-1.2c-0.4-0.3-0.9-0.6-1.5-0.8
			c-0.5-0.2-1.3-0.3-2.2-0.3c-0.9,0-1.7,0.2-2.5,0.5c-0.8,0.4-1.7,1-2.6,1.8c-1,0.9-1.7,1.7-2.1,2.6c-0.4,0.8-0.6,1.8-0.6,2.9v12.7
			c0,2,0.1,3.3,0.3,4.1c0.2,0.8,0.5,1.3,1,1.7c0.5,0.4,1.3,0.7,2.5,1v1.7H95.7V131c0.9-0.3,1.5-0.5,1.9-0.7s0.7-0.5,1-0.9
			s0.5-0.9,0.6-1.7c0.1-0.8,0.2-1.9,0.2-3.5v-14.9c0-1.5,0-2.6-0.1-3.5c0-0.9-0.2-1.6-0.5-2.1s-0.7-0.9-1.2-1.2
			c-0.6-0.3-1.3-0.5-2.4-0.7V100l8-0.3h2.1l-0.4,5.6l0.5,0.1c1.7-1.7,3-2.9,4.1-3.7c1-0.7,2.1-1.3,3.1-1.7c1.1-0.4,2.2-0.6,3.4-0.6
			c1.2,0,2.3,0.1,3.3,0.4s1.8,0.7,2.6,1.3c0.7,0.6,1.3,1.3,1.8,2.2c0.5,0.9,0.8,1.9,1.1,3.2s0.4,2.8,0.4,4.7v12.9
			c0,1.6,0,2.7,0.1,3.4c0.1,0.7,0.3,1.3,0.5,1.6c0.2,0.4,0.6,0.7,1,1s1.2,0.5,2.3,0.8L129.1,132.7L129.1,132.7z"/>
		<path class="st7" d="M148.5,133.2c-4.7,0-8.4-1.4-10.8-4.2c-2.5-2.8-3.7-6.9-3.7-12.4c0-3.8,0.7-6.9,2-9.5s3.1-4.5,5.4-5.8
			s4.9-1.9,7.8-1.9c4.9,0,8.6,1.4,11.1,4.3c2.5,2.8,3.8,6.9,3.8,12.2c0,3.8-0.6,7-1.9,9.6s-3,4.5-5.3,5.8
			C154.3,132.6,151.6,133.2,148.5,133.2z M140.4,115.9c0,4.7,0.7,8.3,2.2,10.8s3.6,3.8,6.4,3.8c1.5,0,2.8-0.4,3.9-1.1s1.9-1.7,2.6-3
			s1.2-2.7,1.5-4.4c0.3-1.7,0.4-3.4,0.4-5.2c0-3.3-0.4-6.1-1.1-8.3c-0.7-2.2-1.7-3.8-3-4.9c-1.3-1-2.7-1.6-4.4-1.6
			c-2.8,0-4.9,1.2-6.3,3.6C141.1,108.1,140.4,111.5,140.4,115.9z"/>
		<path class="st7" d="M178.7,105.7l0.5,0.1c1.3-1.5,2.4-2.7,3.5-3.6s2.2-1.6,3.5-2c1.2-0.5,2.6-0.7,4.2-0.7c1.3,0,2.5,0.1,3.6,0.2
			v7.9h-3.9c-0.5-1.2-1.1-2.1-1.7-2.7s-1.5-0.8-2.5-0.8c-0.8,0-1.6,0.2-2.4,0.7s-1.6,1.2-2.3,2.1c-0.8,0.9-1.3,1.8-1.6,2.6
			c-0.3,0.8-0.4,1.7-0.4,2.8v12c0,2.1,0.1,3.5,0.4,4.3s0.7,1.4,1.2,1.7c0.6,0.4,1.5,0.6,2.6,0.9v1.7h-13.8V131
			c0.9-0.3,1.5-0.5,1.9-0.7s0.7-0.5,1-0.9s0.5-0.9,0.6-1.7c0.1-0.8,0.2-1.9,0.2-3.5v-14.9c0-1.5,0-2.6-0.1-3.5
			c0-0.9-0.2-1.6-0.5-2.1s-0.7-0.9-1.2-1.2c-0.6-0.3-1.3-0.5-2.4-0.7V100l8-0.3h2.1L178.7,105.7z"/>
	</g>
</g>
<g id="fill_in_white">
	<path class="st7" d="M188,60l-15.6,7.3V51.8L148.1,39l-15.6,7.3V30.8l-24.3-12.9L84,30.7v15.5l-15.6-7.3L44.1,51.7v15.5l-15.6-7.3
		L4.2,72.7v33.6l13-4.5c0.5-2.6,1.1-5,2.1-7.2c2-4.7,5-8.4,8.9-11.1s8.7-4,14-4c2.3,0,4.4,0.1,6.4,0.4c2,0.2,4.3,0.7,6.7,1.4
		l0.4,0.1l4.1,1.1v4.3v0.5l0,0l48.4-16.6L140,81.6l22.4,7.8l13.3,4.6h3.7l0,0v-1.2l-17-5.9L140,79.1L110.7,69V21.8l19.4,10.3v14.1
		v1.4l1.3,0.7l15.6,8.3l3.5,1.9v-4V43l19.4,10.3v14.1v1.4l1.3,0.7l15.6,8.3l3.5,1.9v-4V64.2l19.4,10.3v28.8l-9.5-3.3v2.6l12,4.1V73
		L188,60z M30.9,71.5v-7.8l7.8,3.6L30.9,71.5z M70.8,50.5v-7.8l7.8,3.6L70.8,50.5z"/>
</g>
</svg>
