<?xml version="1.0" encoding="utf-8"?>
<!-- Generator: Adobe Illustrator 25.0.0, SVG Export Plug-In . SVG Version: 6.00 Build 0)  -->
<svg version="1.1" id="Facebook" xmlns="http://www.w3.org/2000/svg" xmlns:xlink="http://www.w3.org/1999/xlink" x="0px" y="0px"
	 viewBox="0 0 128 128" style="enable-background:new 0 0 128 128;" xml:space="preserve">
<style type="text/css">
	.st0{fill:#FFFFFF;}
</style>
<path class="st0" d="M0,0v128h128V0H0z M99.8,95.9c0,2.2-1.8,4-4,4H77.6V72.1h9.3l1.4-10.8H77.6v-6.9c0-3.1,0.9-5.3,5.4-5.3l5.7,0
	v-9.7c-1-0.1-4.4-0.4-8.3-0.4c-8.3,0-13.9,5-13.9,14.3v8h-9.3v10.8h9.3v27.8H32.1c-2.2,0-4-1.8-4-4V32.1c0-2.2,1.8-4,4-4h63.8
	c2.2,0,4,1.8,4,4V95.9z"/>
</svg>
