<?xml version="1.0" encoding="utf-8"?>
<!-- Generator: Adobe Illustrator 23.0.1, SVG Export Plug-In . SVG Version: 6.00 Build 0)  -->
<svg version="1.1" id="Layer_1" xmlns="http://www.w3.org/2000/svg" xmlns:xlink="http://www.w3.org/1999/xlink" x="0px" y="0px"
	 viewBox="0 0 400 150" style="enable-background:new 0 0 400 150;" xml:space="preserve">
<style type="text/css">
	.st0{fill:#F95860;}
</style>
<path class="st0" d="M268.7,39.4h-12.2c-0.7,0-1,0.7-1,1v26.7h-12.2V40.4c0-0.7-0.7-1-1.1-1h-12.2c-0.7,0-1,0.7-1,1v68.4
	c0,0.7,0.7,1,1,1h12.2c0.7,0,1.1-0.7,1.1-1V81.5h12.2v27.4c0,0.7,0.7,1,1,1h12.2c0.7,0,1.1-0.7,1.1-1V40.4
	C269.7,40.1,269.4,39.4,268.7,39.4 M165.4,39.4h-12.2c-0.7,0-1,0.3-1,1v48.5c0,2.4-0.7,4.2-1.8,5.6c-1.1,1.4-2.5,1.8-4.2,1.8
	c-1.7,0-3.1-0.7-4.2-1.8c-1.1-1.4-1.8-3.2-1.8-5.6V40.4c0-0.7-0.7-1-1.1-1h-12.2c-0.7,0-1.1,0.3-1.1,1v48.8c0,6.3,1.4,12.2,5.3,16.2
	c3.8,3.9,9.1,6,15.1,6c6.3,0,11.6-2.1,15.1-6c3.9-3.8,5.2-9.4,5.2-16.2V40.4C166.5,40.1,166.2,39.4,165.4,39.4 M45.4,38.3
	c-6.3,0-11.6,2.1-15.1,5.9c-3.9,3.9-5.2,9.5-5.2,16.2v29.2c0,6.3,1.4,12.2,5.2,16.2c3.8,3.8,9.1,5.9,15.1,5.9
	c6.3,0,11.6-2.1,15.1-5.9c3.8-3.8,5.2-9.4,5.2-16.2V73.5c0-0.7-0.7-1.4-1.4-1.4H46.4c-0.7,0-1.4,0.7-1.4,1.4v12
	c0,0.7,0.7,1.4,1.4,1.4H51v2.8c0,2.5-0.7,4.6-1.8,6c-1,1.4-2.5,1.8-4.2,1.8c-1.7,0-3.1-0.7-4.2-1.8c-1.1-1.4-1.8-3.5-1.8-6V60.8
	c0-2.5,0.7-4.6,1.8-6c1-1.4,2.4-1.8,4.2-1.8c1.7,0,3.2,0.7,4.2,1.8c1,1.4,1.8,3.5,1.8,6v2.8c0,0.7,0.7,1,1,1h12.2
	c0.7,0,1.1-0.3,1.1-1v-2.8c0-6.3-1.4-12.2-5.2-16.2C57,40.4,51.3,38.3,45.4,38.3 M203.3,94.1c-1.1,1.4-2.5,1.8-4.6,1.8h-7V81.1h7
	c1.8,0,3.1,0.7,4.2,1.8c1,1.4,1.8,3.2,1.8,5.2C204.8,91,204.4,92.7,203.3,94.1z M191.7,53.8h6.3c1.8,0,3.2,0.3,4.2,1.8
	c1,1,1.4,2.8,1.4,5s-0.4,3.8-1.4,5.2c-1,1.1-2.5,1.8-3.9,1.8h-6.3V53.8H191.7z M212.1,73.8c2.1-2.1,5.9-7,5.9-13.4
	c0-7.4-2.8-12-5-14.4c-3.9-4.2-9.1-6.3-15.1-6.3h-19.2c-0.7,0-1,0.7-1,1v68.5c0,0.7,0.7,1,1,1h20.4c6.3,0,12.2-2.4,16.2-7.4
	c2.1-2.8,4.6-7.4,4.6-14.4C219.5,80.1,214.2,75.1,212.1,73.8L212.1,73.8z M100.5,67.1c-1.1,1.4-2.8,2.1-5,2.1h-5.9V53.8h5.9
	c2.1,0,3.8,0.7,5,2.1c1.4,1.4,1.8,3.2,1.8,5.6S101.9,65.7,100.5,67.1L100.5,67.1z M108.2,79.7c1.4-1.1,2.4-1.8,3.5-3.2
	c2.4-2.8,5.6-7.8,5.6-15.5c0-7.4-2.8-12.2-5.6-15.1c-3.5-4.2-8.8-6.3-14.8-6.6H76.6c-0.7,0-1.1,0.7-1.1,1v68.4c0,0.7,0.7,1,1.1,1
	h12.2c0.7,0,1.1-0.7,1.1-1V83.5h4.2l7.8,26c0,0.3,0.7,0.7,1.1,0.7h12.9c0.4,0,0.7-0.3,1.1-0.3c0.4,0,0.4-0.7,0.4-1.1L108.2,79.7
	L108.2,79.7z M358.1,94.1c-1,1.4-2.5,1.8-4.6,1.8h-7V81.1h7c1.8,0,3.2,0.7,4.2,1.8c1,1.4,1.8,3.2,1.8,5.2
	C359.9,91,359.2,92.7,358.1,94.1L358.1,94.1z M346.9,53.8h6.3c1.8,0,3.2,0.3,4.2,1.8c1,1,1.4,2.8,1.4,5s-0.3,3.8-1.4,5.2
	c-1,1.1-2.5,1.8-3.9,1.8h-6.3V53.8H346.9z M367.2,73.8c2.1-2.1,6-7,6-13.4c0-7.4-2.8-12-5-14.4c-3.9-4.2-9.1-6.3-15.1-6.3h-19.4
	c-0.7,0-1,0.7-1,1v68.5c0,0.7,0.7,1,1,1h20.5c6.3,0,12.2-2.4,16.2-7.4c2.1-2.8,4.6-7.4,4.6-14.4C374.3,80.1,369,75.1,367.2,73.8
	L367.2,73.8z M320.2,39.4H308c-0.7,0-1,0.3-1,1v48.5c0,2.4-0.7,4.2-1.8,5.6s-2.5,1.8-4.2,1.8c-1.7,0-3.1-0.7-4.2-1.8
	c-1-1.4-1.8-3.2-1.8-5.6V40.4c0-0.7-0.7-1-1-1h-12.3c-0.7,0-1,0.3-1,1v48.8c0,6.3,1.4,12.2,5.2,16.2c3.9,3.9,9.1,6,15.1,6
	c6.3,0,11.6-2.1,15.1-6c3.9-3.8,5.2-9.4,5.2-16.2V40.4C321.7,40.1,321,39.4,320.2,39.4"/>
</svg>
