<?xml version="1.0" encoding="utf-8"?>
<!-- Generator: Adobe Illustrator 25.0.0, SVG Export Plug-In . SVG Version: 6.00 Build 0)  -->
<svg version="1.1" id="Instagram" xmlns="http://www.w3.org/2000/svg" xmlns:xlink="http://www.w3.org/1999/xlink" x="0px" y="0px"
	 viewBox="0 0 128 128" style="enable-background:new 0 0 128 128;" xml:space="preserve">
<style type="text/css">
	.st0{fill:#FFFFFF;}
</style>
<g>
	<path class="st0" d="M86.1,64c0,12.2-9.9,22.1-22.1,22.1c-12.2,0-22.1-9.9-22.1-22.1c0-1.9,0.3-3.8,0.7-5.5h-6.2v30.3
		c0,1.5,1.2,2.8,2.8,2.8h49.6c1.5,0,2.8-1.2,2.8-2.8V58.5h-6.2C85.8,60.2,86.1,62.1,86.1,64z"/>
	<path class="st0" d="M64,77.8c7.6,0,13.8-6.2,13.8-13.8c0-7.6-6.2-13.8-13.8-13.8c-7.6,0-13.8,6.2-13.8,13.8
		C50.2,71.6,56.4,77.8,64,77.8z"/>
	<path class="st0" d="M88.8,36.4h-8.3c-1.5,0-2.8,1.2-2.8,2.8v8.3c0,1.5,1.2,2.8,2.8,2.8h8.3c1.5,0,2.8-1.2,2.8-2.8v-8.3
		C91.6,37.7,90.3,36.4,88.8,36.4z"/>
	<path class="st0" d="M0,0v128h128V0H0z M99.8,91.6c0,4.6-3.7,8.3-8.3,8.3H36.4c-4.6,0-8.3-3.7-8.3-8.3V36.4c0-4.6,3.7-8.3,8.3-8.3
		h55.1c4.6,0,8.3,3.7,8.3,8.3V91.6z"/>
</g>
</svg>
