<?xml version="1.0" encoding="utf-8"?>
<!-- Generator: Adobe Illustrator 22.0.1, SVG Export Plug-In . SVG Version: 6.00 Build 0)  -->
<svg version="1.1" id="Layer_1" xmlns="http://www.w3.org/2000/svg" xmlns:xlink="http://www.w3.org/1999/xlink" x="0px" y="0px"
	 viewBox="0 0 360 151.9" style="enable-background:new 0 0 360 151.9;" xml:space="preserve">
<style type="text/css">
	.st0{fill:#7E5F48;}
</style>
<path class="st0" d="M154.5,124.2c-4.4,0-48.3-15.5-78.5-25.6C41.4,87.1,0,93,0,93c1.1,8.8,9.8,13.7,9.8,13.7s28.4-6.5,71,9.3
	c44.1,16.4,77.6,25.9,82.4,26.4C163.2,142.4,157.4,136.7,154.5,124.2z"/>
<g>
	<path class="st0" d="M191,53.2V0h24.6c3.6,0,6.6,1.4,9,4.2c2.5,2.8,3.8,6.2,3.8,10.1c0,4.1-1.3,7.7-3.8,10.6
		c-2.5,2.9-5.5,4.4-9,4.4h-20.9v23.9H191z M215,26c2.7,0,5-1.1,6.9-3.2c1.9-2.1,2.8-4.7,2.8-7.7c0-3.2-1-5.9-2.8-8.2
		c-1.9-2.2-4.2-3.3-6.9-3.3h-20.3V26H215z"/>
	<path class="st0" d="M231.2,53.2L252.8,0h4.6l21.3,53.2h-4.2l-7-17h-25.2l-7,17H231.2z M266.1,32.8L254.9,4.2l-11.5,28.6H266.1z"/>
	<path class="st0" d="M285.3,53.2V0h5.1l32.9,48.8V0h3.7v53.2h-5.1L289,5.2v48.1H285.3z"/>
</g>
<g>
	<path class="st0" d="M174.5,105.1V63.8h19.1c2.8,0,5.1,1.1,7,3.3c1.9,2.2,2.9,4.8,2.9,7.9c0,3.2-1,5.9-2.9,8.2
		c-1.9,2.3-4.2,3.4-7,3.4h-16.3v18.5H174.5z M193.2,83.9c2.1,0,3.9-0.8,5.3-2.5c1.5-1.6,2.2-3.6,2.2-6c0-2.5-0.7-4.6-2.2-6.3
		c-1.5-1.7-3.3-2.6-5.3-2.6h-15.8v17.4H193.2z"/>
	<path class="st0" d="M205.7,105.1l16.8-41.3h3.6l16.5,41.3h-3.3l-5.4-13.2h-19.5l-5.4,13.2H205.7z M232.8,89.2L224.1,67l-8.9,22.2
		H232.8z"/>
	<path class="st0" d="M249.3,102.1c-2.9-2.6-4.4-5.9-4.4-9.7h2.9c0,3.1,1.2,5.7,3.5,7.9c2.3,2.2,5.1,3.3,8.4,3.3
		c3.6,0,6.6-0.9,9.2-2.8c2.5-1.9,3.8-4.1,3.8-6.8c0-2.3-1.1-4.2-3.4-5.7c-2.2-1.5-5.1-2.5-8.8-2.8c-4.5-0.4-8.1-1.6-10.8-3.8
		c-2.7-2.1-4.1-4.8-4.1-7.9c0-3.1,1.4-5.7,4.1-7.9c2.8-2.2,6.1-3.3,10-3.3c4.2,0,7.8,1.1,10.8,3.4c2.9,2.3,4.4,5,4.4,8.2H272
		c0-2.5-1.2-4.6-3.6-6.3c-2.4-1.8-5.3-2.6-8.7-2.6c-3.1,0-5.8,0.8-8,2.5c-2.2,1.6-3.3,3.6-3.3,6c0,2.3,1.1,4.3,3.4,5.9
		c2.3,1.6,5.4,2.5,9.2,2.9c4.4,0.4,7.9,1.6,10.6,3.7c2.6,2.1,3.9,4.7,3.9,7.7c0,3.3-1.5,6.2-4.6,8.6c-3.1,2.4-6.8,3.6-11.2,3.6
		C255.6,106.1,252.1,104.8,249.3,102.1z"/>
	<path class="st0" d="M292.1,105.1V66.5h-14.5v-2.7h32v2.7h-14.6v38.6H292.1z"/>
	<path class="st0" d="M310.5,105.1l16.8-41.3h3.6l16.5,41.3h-3.3l-5.4-13.2h-19.5l-5.4,13.2H310.5z M337.6,89.2L328.9,67L320,89.2
		H337.6z"/>
</g>
<polygon class="st0" points="360,116 360,116 360,116 "/>
<path class="st0" d="M156.8,116C156.8,116,156.8,116,156.8,116L156.8,116L156.8,116z"/>
<path class="st0" d="M292.3,116h-28.8h-10.1h-28.8h-67.7v0c0.1,0.8,2.9,29.6,27.1,35.9h40.7h28.8h10.1h28.8h40.7
	c24.3-6.3,27-35.6,27.1-35.9v0H292.3z"/>
</svg>
