<?xml version="1.0" encoding="utf-8"?>
<!-- Generator: Adobe Illustrator 22.0.1, SVG Export Plug-In . SVG Version: 6.00 Build 0)  -->
<svg version="1.1" id="Layer_1" xmlns="http://www.w3.org/2000/svg" xmlns:xlink="http://www.w3.org/1999/xlink" x="0px" y="0px"
	 viewBox="0 0 360 166" style="enable-background:new 0 0 360 166;" xml:space="preserve">
<style type="text/css">
	.st0{fill:#7E5F48;}
</style>
<polygon class="st0" points="360,106.5 360,106.5 360,106.5 "/>
<path class="st0" d="M156.8,106.5C156.8,106.5,156.8,106.5,156.8,106.5L156.8,106.5L156.8,106.5z"/>
<g>
	<path class="st0" d="M163.1,131.4c-0.8-1-1.5-2.1-2.2-3.4c-3-5.1-4.8-10.4-5.8-14.3c-1,0-8.3-0.4-15.6-2.7
		C116.2,103.8,108,99.5,76,89.1C33.1,75.3,0,83.5,0,83.5c1.1,8.8,9.8,13.7,9.8,13.7s17.5-5.7,49.9,2.1c18.6,4.5,75.4,25.7,84.1,28.1
		c10.6,2.9,17.8,3.8,19.4,4.2C163.2,131.5,163.1,131.5,163.1,131.4z"/>
</g>
<polygon class="st0" points="360,106.5 360,106.5 360,106.5 "/>
<path class="st0" d="M156.8,106.5C156.8,106.5,156.8,106.5,156.8,106.5L156.8,106.5L156.8,106.5z"/>
<path class="st0" d="M292.3,106.5h-28.8h-10.1h-28.8h-67.7v0c0.1,0.8,2.9,29.6,27.1,35.9h40.7h28.8h10.1h28.8h40.7
	c24.3-6.3,27-35.6,27.1-35.9v0H292.3z"/>
<g>
	<path class="st0" d="M201.3,43.4V0h20.1c2.9,0,5.3,1.1,7.3,3.4c2,2.3,3.1,5,3.1,8.3c0,3.4-1,6.2-3.1,8.6c-2,2.4-4.4,3.6-7.3,3.6
		h-17.1v19.5H201.3z M220.8,21.2c2.2,0,4.1-0.9,5.6-2.6c1.5-1.7,2.3-3.8,2.3-6.3c0-2.6-0.8-4.8-2.3-6.7c-1.5-1.8-3.4-2.7-5.6-2.7
		h-16.6v18.3H220.8z"/>
	<path class="st0" d="M234.5,43.4L252.1,0h3.7l17.4,43.4h-3.4l-5.7-13.9h-20.5l-5.7,13.9H234.5z M263,26.7l-9.1-23.3l-9.4,23.3H263z
		"/>
	<path class="st0" d="M281.2,43.4V0h4.1l26.8,39.8V0h3v43.4H311L284.2,4.2v39.2H281.2z"/>
</g>
<g>
	<path class="st0" d="M172.3,95.6V54.3h19.1c2.8,0,5.1,1.1,7,3.3c1.9,2.2,2.9,4.8,2.9,7.9c0,3.2-1,5.9-2.9,8.2
		c-1.9,2.3-4.2,3.4-7,3.4h-16.3v18.5H172.3z M190.9,74.4c2.1,0,3.9-0.8,5.3-2.5c1.5-1.6,2.2-3.6,2.2-6c0-2.5-0.7-4.6-2.2-6.3
		c-1.5-1.7-3.3-2.6-5.3-2.6h-15.8v17.4H190.9z"/>
	<path class="st0" d="M202.4,95.6l16.8-41.3h3.6l16.5,41.3H236l-5.4-13.2h-19.5l-5.4,13.2H202.4z M229.5,79.7l-8.7-22.2l-8.9,22.2
		H229.5z"/>
	<path class="st0" d="M247.1,92.6c-2.9-2.6-4.4-5.9-4.4-9.7h2.9c0,3.1,1.2,5.7,3.5,7.9c2.3,2.2,5.1,3.3,8.4,3.3
		c3.6,0,6.6-0.9,9.2-2.8c2.5-1.9,3.8-4.1,3.8-6.8c0-2.3-1.1-4.2-3.4-5.7c-2.2-1.5-5.1-2.5-8.8-2.8c-4.5-0.4-8.1-1.6-10.8-3.8
		c-2.7-2.1-4.1-4.8-4.1-7.9c0-3.1,1.4-5.7,4.1-7.9c2.8-2.2,6.1-3.3,10-3.3c4.2,0,7.8,1.1,10.8,3.4c2.9,2.3,4.4,5,4.4,8.2h-2.9
		c0-2.5-1.2-4.6-3.6-6.3c-2.4-1.8-5.3-2.6-8.7-2.6c-3.1,0-5.8,0.8-8,2.5c-2.2,1.6-3.3,3.6-3.3,6c0,2.3,1.1,4.3,3.4,5.9
		c2.3,1.6,5.4,2.5,9.2,2.9c4.4,0.4,7.9,1.6,10.6,3.7c2.6,2.1,3.9,4.7,3.9,7.7c0,3.3-1.5,6.2-4.6,8.6c-3.1,2.4-6.8,3.6-11.2,3.6
		C253.4,96.6,249.9,95.3,247.1,92.6z"/>
	<path class="st0" d="M289.9,95.6V57h-14.5v-2.7h32V57h-14.6v38.6H289.9z"/>
	<path class="st0" d="M307.2,95.6L324,54.3h3.6l16.5,41.3h-3.3l-5.4-13.2h-19.5l-5.4,13.2H307.2z M334.3,79.7l-8.7-22.2l-8.9,22.2
		H334.3z"/>
</g>
<g>
	<path class="st0" d="M182.3,165.9V153h1.4l4.8,11.7l4.8-11.7h1.4v12.8h-0.9V154l-4.9,11.8h-0.8l-4.9-11.8v11.8H182.3z"/>
	<path class="st0" d="M200.2,164.2c-1.1-1.2-1.6-2.8-1.6-4.8c0-2,0.5-3.7,1.6-4.9c1.1-1.2,2.5-1.8,4.2-1.8c1.8,0,3.2,0.6,4.2,1.8
		c1.1,1.2,1.6,2.9,1.6,4.9c0,2-0.5,3.6-1.6,4.8s-2.5,1.8-4.2,1.8C202.7,166,201.2,165.4,200.2,164.2z M208,163.6
		c0.9-1,1.3-2.4,1.3-4.2c0-1.8-0.4-3.2-1.3-4.3c-0.9-1.1-2.1-1.6-3.6-1.6c-1.5,0-2.7,0.5-3.6,1.6c-0.9,1.1-1.4,2.5-1.4,4.3
		c0,1.7,0.4,3.1,1.4,4.2c0.9,1.1,2.1,1.6,3.6,1.6C205.9,165.2,207.1,164.7,208,163.6z"/>
	<path class="st0" d="M214.2,153h5.2c1.4,0,2.6,0.6,3.6,1.8c1,1.2,1.5,2.7,1.5,4.4c0,1.8-0.5,3.4-1.5,4.6c-1,1.3-2.2,1.9-3.6,1.9
		h-5.2V153z M219.4,165c1.1,0,2.1-0.6,2.9-1.7c0.8-1.1,1.2-2.5,1.2-4.1c0-1.5-0.4-2.8-1.2-3.8c-0.8-1.1-1.8-1.6-2.9-1.6h-4.3V165
		H219.4z"/>
	<path class="st0" d="M228.3,165.9V153h8.6v0.8h-7.7v4.9h7v0.8h-7v5.4h7.7v0.8H228.3z"/>
	<path class="st0" d="M240.3,165.9V153h6.3c0.9,0,1.7,0.3,2.3,1c0.6,0.6,1,1.4,1,2.4c0,0.8-0.2,1.5-0.6,2.1c-0.4,0.6-0.9,1-1.5,1.1
		c0.5,0.1,1,0.6,1.3,1.4c0.3,0.8,0.5,1.7,0.5,2.8c0,0.6,0,1.1,0,1.4c0,0.4,0.1,0.6,0.2,0.8h-0.9c-0.1-0.2-0.2-0.5-0.3-1l-0.1-1.8
		c0-0.9-0.2-1.6-0.6-2.2c-0.4-0.6-0.9-0.9-1.5-0.9h-5.2v5.9H240.3z M246.4,159.1c0.7,0,1.3-0.3,1.8-0.8c0.5-0.5,0.7-1.1,0.7-1.9
		c0-0.7-0.2-1.3-0.7-1.9c-0.5-0.5-1.1-0.8-1.8-0.8h-5.2v5.3H246.4z"/>
	<path class="st0" d="M253.9,165.9V153h1.2l7.9,11.8V153h0.9v12.8h-1.2l-7.9-11.6v11.6H253.9z"/>
	<path class="st0" d="M277.4,165.9V153h0.9v12.8H277.4z"/>
	<path class="st0" d="M286.1,165.9v-12h-4.5V153h9.9v0.8h-4.5v12H286.1z"/>
	<path class="st0" d="M293.6,165.9l5.2-12.8h1.1l5.1,12.8h-1l-1.7-4.1h-6.1l-1.7,4.1H293.6z M302,160.9l-2.7-6.9l-2.8,6.9H302z"/>
	<path class="st0" d="M308.4,153h0.9v12h7.1v0.8h-7.9V153z"/>
	<path class="st0" d="M319.6,165.9V153h0.9v12.8H319.6z"/>
	<path class="st0" d="M323.9,165.9l5.2-12.8h1.1l5.1,12.8h-1l-1.7-4.1h-6.1l-1.7,4.1H323.9z M332.3,160.9l-2.7-6.9l-2.8,6.9H332.3z"
		/>
</g>
</svg>
