<svg id="Layer_1" data-name="Layer 1" xmlns="http://www.w3.org/2000/svg" viewBox="0 0 360 49.63"><defs><style>.cls-1{fill:#7e5f48;}</style></defs><title>pan-pasta-logo-5w</title><path class="cls-1" d="M159.79,365.86V328.73H177a8,8,0,0,1,6.28,2.94,10.28,10.28,0,0,1,2.63,7.08,11,11,0,0,1-2.63,7.39,7.91,7.91,0,0,1-6.28,3.07H162.36v16.65Zm16.74-19a6.18,6.18,0,0,0,4.81-2.26,7.72,7.72,0,0,0,2-5.38,8.64,8.64,0,0,0-2-5.7,6.15,6.15,0,0,0-4.81-2.32H162.36v15.66Z" transform="translate(-159.79 -322.09)"/><path class="cls-1" d="M193,365.86,208,328.73h3.21l14.87,37.13h-3L218.3,354H200.73l-4.87,11.9Zm24.37-14.27-7.82-20-8,20Z" transform="translate(-159.79 -322.09)"/><path class="cls-1" d="M235.9,365.86V328.73h3.52l23,34.06V328.73h2.56v37.13h-3.52l-23-33.56v33.56Z" transform="translate(-159.79 -322.09)"/><path class="cls-1" d="M343.8,365.86V328.73H361a8,8,0,0,1,6.29,2.94,10.28,10.28,0,0,1,2.63,7.08,11,11,0,0,1-2.63,7.39,7.93,7.93,0,0,1-6.29,3.07H346.37v16.65Zm16.74-19a6.15,6.15,0,0,0,4.8-2.26,7.69,7.69,0,0,0,2-5.38,8.59,8.59,0,0,0-2-5.7,6.11,6.11,0,0,0-4.8-2.32H346.37v15.66Z" transform="translate(-159.79 -322.09)"/><path class="cls-1" d="M377,365.86l15.07-37.13h3.2l14.88,37.13h-2.95L402.31,354H384.74l-4.87,11.9Zm24.36-14.27-7.82-20-8,20Z" transform="translate(-159.79 -322.09)"/><path class="cls-1" d="M421.32,363.17a11.34,11.34,0,0,1-3.92-8.7H420a9.36,9.36,0,0,0,3.14,7.07,10.68,10.68,0,0,0,7.57,2.94A13.74,13.74,0,0,0,439,362a7.38,7.38,0,0,0,3.4-6.07,6.09,6.09,0,0,0-3-5.14,16.08,16.08,0,0,0-7.95-2.5,17.77,17.77,0,0,1-9.74-3.38,8.71,8.71,0,0,1-3.66-7.08,8.8,8.8,0,0,1,3.72-7.08,14,14,0,0,1,9-2.94,15.59,15.59,0,0,1,9.68,3.07,9.1,9.1,0,0,1,4,7.39h-2.56a6.93,6.93,0,0,0-3.27-5.7,12.75,12.75,0,0,0-7.82-2.38,11.58,11.58,0,0,0-7.18,2.26,6.5,6.5,0,0,0-2.95,5.38,6.24,6.24,0,0,0,3.07,5.26,17.17,17.17,0,0,0,8.27,2.57,17.35,17.35,0,0,1,9.49,3.32,8.57,8.57,0,0,1,3.53,7q0,4.5-4.17,7.7a16,16,0,0,1-10.06,3.19A13.12,13.12,0,0,1,421.32,363.17Z" transform="translate(-159.79 -322.09)"/><path class="cls-1" d="M464.94,365.86V331.17h-13v-2.44h28.72v2.44H467.51v34.69Z" transform="translate(-159.79 -322.09)"/><path class="cls-1" d="M486.65,365.86l15.06-37.13h3.21l14.87,37.13h-2.94L512,354H494.4l-4.87,11.9ZM511,351.59l-7.82-20-8,20Z" transform="translate(-159.79 -322.09)"/><path class="cls-1" d="M286.58,363.3a26,26,0,0,1-5.82-26.11,24.82,24.82,0,0,0,28,34A26,26,0,0,1,286.58,363.3Z" transform="translate(-159.79 -322.09)"/><path class="cls-1" d="M320.85,330.56a25.15,25.15,0,0,1,3.61,29.79,24.81,24.81,0,0,0-34.3-34.3A25.13,25.13,0,0,1,320.85,330.56Z" transform="translate(-159.79 -322.09)"/><path class="cls-1" d="M300.3,360.8a12,12,0,1,0,1.05-17.46c-2.56-3-5.19-6.21-6-7.3-1-1.35-2.78-3.56-3.37-4.3a2.12,2.12,0,0,0-.2-.24,2,2,0,1,0-2.94,2.79l.24.21c.7.63,2.82,2.5,4.11,3.59,1.05.88,4.15,3.67,7,6.38A12,12,0,0,0,300.3,360.8Zm9.76-17.54a9.36,9.36,0,0,1-.47,18.64,9.43,9.43,0,0,0,.47-18.64Zm-20.19-10.81a.65.65,0,0,1,.92,0,.66.66,0,0,1,0,.92.64.64,0,0,1-.91,0A.65.65,0,0,1,289.87,332.45Zm11.65,14.45a10.28,10.28,0,0,0-.28,10.92A9.36,9.36,0,0,1,301.52,346.9Z" transform="translate(-159.79 -322.09)"/></svg>