<?xml version="1.0" encoding="utf-8"?>
<!-- Generator: Adobe Illustrator 22.1.0, SVG Export Plug-In . SVG Version: 6.00 Build 0)  -->
<svg version="1.1" id="Layer_1" xmlns="http://www.w3.org/2000/svg" xmlns:xlink="http://www.w3.org/1999/xlink" x="0px" y="0px"
	 viewBox="0 0 360 180" style="enable-background:new 0 0 360 180;" xml:space="preserve">
<style type="text/css">
	.st0{fill:#6A503C;}
</style>
<g>
	<path class="st0" d="M188.8,47.3V0.5h21.7c3.1,0,5.8,1.2,7.9,3.7c2.2,2.5,3.3,5.4,3.3,8.9c0,3.6-1.1,6.7-3.3,9.3
		c-2.2,2.6-4.8,3.9-7.9,3.9h-18.4v21H188.8z M209.9,23.3c2.4,0,4.4-0.9,6.1-2.8c1.7-1.8,2.5-4.1,2.5-6.8c0-2.8-0.8-5.2-2.5-7.2
		c-1.7-1.9-3.7-2.9-6.1-2.9h-17.9v19.7H209.9z"/>
	<path class="st0" d="M224.7,47.3l19-46.8h4l18.7,46.8h-3.7l-6.1-15h-22.1l-6.1,15H224.7z M255.4,29.3l-9.9-25.2l-10.1,25.2H255.4z"
		/>
	<path class="st0" d="M275,47.3V0.5h4.4l28.9,42.9V0.5h3.2v46.8h-4.4L278.2,5v42.3H275z"/>
</g>
<g>
	<path class="st0" d="M157.6,103.6V59h20.6c3,0,5.5,1.2,7.5,3.5c2.1,2.4,3.2,5.2,3.2,8.5c0,3.5-1.1,6.4-3.2,8.9
		c-2.1,2.5-4.6,3.7-7.5,3.7h-17.5v20H157.6z M177.7,80.7c2.3,0,4.2-0.9,5.8-2.7c1.6-1.8,2.4-3.9,2.4-6.5c0-2.7-0.8-4.9-2.4-6.8
		c-1.6-1.9-3.5-2.8-5.8-2.8h-17v18.8H177.7z"/>
	<path class="st0" d="M190.1,103.6L208.2,59h3.8l17.8,44.5h-3.5l-5.8-14.3h-21.1l-5.8,14.3H190.1z M219.3,86.5l-9.4-24l-9.6,24
		H219.3z"/>
	<path class="st0" d="M238.2,100.3c-3.1-2.9-4.7-6.3-4.7-10.4h3.1c0,3.3,1.3,6.1,3.8,8.5c2.5,2.4,5.5,3.5,9.1,3.5c3.8,0,7.2-1,9.9-3
		c2.7-2,4.1-4.4,4.1-7.3c0-2.5-1.2-4.5-3.6-6.2c-2.4-1.7-5.5-2.7-9.5-3c-4.9-0.4-8.8-1.8-11.7-4.1c-2.9-2.3-4.4-5.1-4.4-8.5
		c0-3.3,1.5-6.1,4.5-8.5c3-2.4,6.6-3.5,10.8-3.5c4.5,0,8.4,1.2,11.6,3.7c3.2,2.5,4.8,5.4,4.8,8.9h-3.1c0-2.7-1.3-4.9-3.9-6.8
		c-2.6-1.9-5.7-2.9-9.4-2.9c-3.3,0-6.2,0.9-8.6,2.7c-2.4,1.8-3.5,3.9-3.5,6.5c0,2.5,1.2,4.6,3.7,6.3c2.5,1.7,5.8,2.7,9.9,3.1
		c4.7,0.4,8.5,1.7,11.4,4c2.8,2.3,4.2,5,4.2,8.3c0,3.6-1.7,6.7-5,9.2c-3.3,2.6-7.4,3.8-12.1,3.8C245,104.7,241.3,103.3,238.2,100.3z
		"/>
	<path class="st0" d="M284.4,103.6V62h-15.6V59h34.5V62h-15.8v41.6H284.4z"/>
	<path class="st0" d="M303.1,103.6L321.1,59h3.8l17.8,44.5h-3.5l-5.8-14.3h-21.1l-5.8,14.3H303.1z M332.3,86.5l-9.4-24l-9.6,24
		H332.3z"/>
</g>
<g>
	<path class="st0" d="M168.4,179.3v-13.8h1.5l5.2,12.7l5.2-12.7h1.5v13.8h-1v-12.7l-5.3,12.7h-0.9l-5.3-12.7v12.7H168.4z"/>
	<path class="st0" d="M187.7,177.6c-1.1-1.3-1.7-3-1.7-5.1c0-2.2,0.6-4,1.7-5.3c1.1-1.3,2.7-2,4.6-2c1.9,0,3.4,0.7,4.6,2
		c1.1,1.3,1.7,3.1,1.7,5.3c0,2.1-0.6,3.8-1.7,5.1c-1.1,1.3-2.7,1.9-4.6,1.9C190.3,179.5,188.8,178.9,187.7,177.6z M196.1,176.9
		c1-1.1,1.5-2.6,1.5-4.5c0-1.9-0.5-3.5-1.5-4.6c-1-1.2-2.3-1.7-3.9-1.7c-1.6,0-2.9,0.6-3.9,1.7c-1,1.2-1.5,2.7-1.5,4.6
		c0,1.9,0.5,3.4,1.5,4.5c1,1.1,2.3,1.7,3.9,1.7C193.9,178.6,195.2,178.1,196.1,176.9z"/>
	<path class="st0" d="M202.8,165.5h5.6c1.5,0,2.8,0.7,3.8,2c1.1,1.3,1.6,2.9,1.6,4.8c0,2-0.5,3.6-1.6,5c-1.1,1.4-2.3,2.1-3.8,2.1
		h-5.6V165.5z M208.4,178.5c1.2,0,2.3-0.6,3.2-1.8c0.9-1.2,1.3-2.7,1.3-4.4c0-1.6-0.4-3-1.3-4.1c-0.9-1.1-1.9-1.7-3.2-1.7h-4.7v12
		H208.4z"/>
	<path class="st0" d="M217.9,179.3v-13.8h9.2v0.9h-8.3v5.3h7.6v0.9h-7.6v5.8h8.3v0.9H217.9z"/>
	<path class="st0" d="M230.9,179.3v-13.8h6.8c1,0,1.8,0.4,2.5,1.1c0.7,0.7,1,1.6,1,2.6c0,0.9-0.2,1.7-0.6,2.3c-0.4,0.7-1,1-1.6,1.1
		c0.6,0.2,1.1,0.6,1.4,1.5c0.4,0.8,0.5,1.8,0.5,3c0,0.7,0,1.1,0,1.5c0,0.4,0.1,0.7,0.2,0.8h-1c-0.2-0.2-0.3-0.5-0.3-1l-0.1-2
		c0-0.9-0.2-1.7-0.7-2.4c-0.4-0.7-1-1-1.6-1h-5.6v6.4H230.9z M237.5,172.1c0.7,0,1.4-0.3,1.9-0.8c0.5-0.5,0.8-1.2,0.8-2
		c0-0.8-0.3-1.4-0.8-2c-0.5-0.5-1.2-0.8-1.9-0.8h-5.6v5.7H237.5z"/>
	<path class="st0" d="M245.6,179.3v-13.8h1.3l8.5,12.7v-12.7h1v13.8h-1.3l-8.5-12.5v12.5H245.6z"/>
	<path class="st0" d="M270.9,179.3v-13.8h1v13.8H270.9z"/>
	<path class="st0" d="M280.3,179.3v-12.9h-4.8v-0.9h10.7v0.9h-4.9v12.9H280.3z"/>
	<path class="st0" d="M288.3,179.3l5.6-13.8h1.2l5.5,13.8h-1.1l-1.8-4.4h-6.5l-1.8,4.4H288.3z M297.4,174l-2.9-7.4l-3,7.4H297.4z"/>
	<path class="st0" d="M304.3,165.5h1v12.9h7.6v0.9h-8.6V165.5z"/>
	<path class="st0" d="M316.4,179.3v-13.8h1v13.8H316.4z"/>
	<path class="st0" d="M321.1,179.3l5.6-13.8h1.2l5.5,13.8h-1.1l-1.8-4.4h-6.5l-1.8,4.4H321.1z M330.1,174l-2.9-7.4l-3,7.4H330.1z"/>
</g>
<polygon class="st0" points="360,115.3 360,115.3 360,115.3 "/>
<path class="st0" d="M140.9,115.3C140.9,115.3,140.9,115.3,140.9,115.3L140.9,115.3L140.9,115.3z"/>
<path class="st0" d="M250.4,115.3H140.9c0,0,1.8,2.6,2.1,3.2c1.4,2.3,2.6,4.6,3.6,7c-0.3-0.3-0.6-0.6-0.8-0.8
	c-0.9,0-7.8-0.4-14.6-2.4c-21.9-6.5-29.6-10.4-59.7-19.7C31.1,90.1,0,97.5,0,97.5c1,7.9,9.2,12.3,9.2,12.3s16.4-5.2,46.9,1.9
	c17.5,4,70.9,23.2,79.1,25.4c8.3,2.2,14.4,3.1,17.1,3.6c1,2.6,2.3,5.3,3.8,8.3c2.6,5,8,5,8,5h86.4h86.4c0,0,5.4,0,8-5
	c6.7-13.2,7.7-22.2,13-30.5c0.4-0.6,2.1-3.2,2.1-3.2H250.4z"/>
</svg>
