<?xml version="1.0" encoding="utf-8"?>
<!-- Generator: Adobe Illustrator 23.0.1, SVG Export Plug-In . SVG Version: 6.00 Build 0)  -->
<svg version="1.1" id="Layer_1" xmlns="http://www.w3.org/2000/svg" xmlns:xlink="http://www.w3.org/1999/xlink" x="0px" y="0px"
	 viewBox="0 0 400 150" style="enable-background:new 0 0 400 150;" xml:space="preserve">
<path d="M115.4,67.8c-3.6-5.6-11-7.2-16.5-3.6c-1,0.6-1.9,1.4-2.6,2.3L92,63.2c1.1-0.4,3.3-1.4,3.4-2c0.1-0.4-1.1-0.6-2.8-0.7l8-7.3
	c0.1-0.1,0.1-0.1,0-0.2l-2-3.9c0-0.1-0.1-0.1-0.2-0.1c0,0,0,0,0,0l-8.3,7.6c-2.5,0-6.9,0.3-8.2-0.5c-2-1.3-2.3-3.2-3-3.9
	c-0.7-0.7-1.6-0.8-1.8-1.3c0,0,0-0.1,0-0.1c0,0,0,0,0,0c0.4-0.1,2.6-0.7,3.1-2.2c0.5-1.5-0.5-3.6-0.7-3.9c0,0,0-0.1,0-0.1l2.3-2
	c0,0,0-0.1,0-0.1c0,0,0,0-0.1,0l-3.4,0.4c0,0,0,0-0.1,0c-0.2-0.2-1.5-1.9-4.3-0.7c-3.3,1.3-2.7,4.1-2.7,4.1c0.4,2.9,1.4,3.5,3.1,4.4
	c0,0,0.1,0.1,0,0.1c-1.1,0.9-11.7,9.7-21.5,13.1c-0.1,0-0.1,0.1-0.1,0.2c0,0.1,0.1,0.1,0.1,0.1c2.8,1.2,11.4,0.6,13.9-0.9
	c0,0,0.1,0,0.1,0c0,0,0,0,0,0c-0.3,1.1-1.8,7.2,0.6,9.2l0.1,0.1L64.5,75c-0.4,0.3-0.5,0.8-0.2,1.1c0.2,0.2,0.5,0.4,0.7,0.3l1.6-0.2
	c1.1-0.1,2-0.6,2.8-1.3l0.5-0.5l4.6,3.4L74,82.7c-6.6-0.4-12.2,4.7-12.5,11.3s4.7,12.3,11.3,12.6c6.6,0.4,12.2-4.7,12.5-11.3
	c0.1-2.2-0.4-4.4-1.4-6.3l1.2-0.8c1.2,1.1,3,0.9,4.1-0.3c0.6-0.7,0.9-1.7,0.6-2.7l4.8-1.4c0.4-0.1,0.6-0.5,0.6-0.9l0-0.2
	c-0.1-0.4-0.4-0.6-0.8-0.6h-4.1c0,0,0,0-0.1,0l-1.2-2.8l2.4-14.6l4,3c-3.5,5.6-1.9,13,3.6,16.6c5.5,3.6,12.9,1.9,16.5-3.7
	C117.9,76.7,117.9,71.7,115.4,67.8L115.4,67.8z M82.3,59.1L88,59l0.7,1.4c-1.3,0-2.7,0.2-4,0.3c-1,0.1-2.1-1.1-2.4-1.5
	c0,0-0.1-0.1,0-0.1S82.3,59.1,82.3,59.1L82.3,59.1L82.3,59.1z M73.9,67.6c0.5-0.8,3.2-5.4,3.5-6.9c0,0,0-0.1,0.1-0.1c0,0,0,0,0,0
	c1.8,2.1,5.6,3.4,5.9,3.4h0l4.9-1.5l1.1,0.8l-5.1,4.8c-0.6-0.5-1.3-0.8-2-0.9C79.4,66.9,74.8,67.6,73.9,67.6
	C73.9,67.7,73.8,67.7,73.9,67.6C73.8,67.6,73.8,67.6,73.9,67.6L73.9,67.6z M86.6,83.2c-0.3,0-0.7,0.1-1,0.3l-3.5-2.7
	c0,0,0-0.1,0-0.1l1.8-3.7c0,0,0.1,0,0.1,0c0,0,0,0,0,0l2.9,4.5L86.6,83.2z M79.1,79.2l-2.4-1.8l4.6-4.3L79.1,79.2z M79.1,72.9
	l-3.7,3.5l-3.8-2.8C74.1,73.6,76.7,73.4,79.1,72.9L79.1,72.9z M76.1,78.9l2.5,1.9l-0.3,0.8c-0.2,0.6,0.1,1.2,0.7,1.4l5.2,1.9
	l0.2,0.1c-0.2,0.6-0.2,1.2-0.1,1.8L83,87.6c-1.8-2.5-4.4-4.1-7.4-4.7L76.1,78.9z M75.3,85.3c2.2,0.5,4.2,1.7,5.6,3.6l-6.6,4.2
	L75.3,85.3z M78.4,102.7c-4.4,2.8-10.3,1.5-13.1-2.9s-1.5-10.3,2.9-13.1c1.6-1,3.5-1.5,5.4-1.5l-1.2,9.5c0,0.4,0.3,0.8,0.7,0.9
	c0.2,0,0.3,0,0.5-0.1l8-5.1C83.9,94.7,82.5,100,78.4,102.7L78.4,102.7z M85.5,71.5C85.5,71.5,85.5,71.5,85.5,71.5
	c0.1-0.7,0-1.4-0.2-2l4.4-4l-1.9,11.1L85.5,71.5z M110.4,82.2c-4.4,2.8-10.2,1.6-13.1-2.9c-2-3.1-2-7-0.1-10.1l7.5,5.6
	c0.3,0.2,0.6,0.2,0.9,0c0.1,0,0.2-0.1,0.2-0.2c0.3-0.4,0.2-0.9-0.2-1.1l-7.5-5.6c0.6-0.7,1.3-1.3,2-1.7c4.3-2.9,10.2-1.7,13.1,2.6
	c2.9,4.4,1.7,10.3-2.6,13.2C110.6,82,110.5,82.1,110.4,82.2L110.4,82.2z"/>
<path d="M86.3,54.7l2.8,0.2c0.1,0,0.3,0,0.3-0.1l6.8-6.5c0,0,0.1-0.1,0-0.2c0,0,0,0-0.1,0l-2.7-0.2c-0.2,0-0.4,0.1-0.5,0.2l-6.8,6.4
	c-0.1,0-0.1,0.1,0,0.2C86.3,54.6,86.3,54.7,86.3,54.7z"/>
<polygon points="50.1,95.2 45.7,97.8 41.6,94.4 42.9,99.7 38.6,102.5 43.8,103.1 45.3,108.3 47.2,103.4 52.4,103.7 48.4,100.1 "/>
<polygon points="55.2,76.3 50.8,79 46.7,75.6 48,80.8 43.7,83.7 48.9,84.2 50.4,89.4 52.3,84.5 57.5,84.9 53.5,81.3 "/>
<polygon points="34.8,86.4 36.5,81.5 32.1,84.1 28,80.7 29.3,86 25,88.8 30.2,89.4 31.7,94.6 33.6,89.7 38.8,90 "/>
<path d="M144.6,92.4V55.5h15.3c6.6,0,10.8,4.9,10.8,11.2c0,6.4-4.3,11.2-10.8,11.2h-9.4v14.5H144.6z M150.4,60.5V73h9.2
	c2.9,0,5.3-3,5.3-6.3s-2.3-6.2-5.3-6.2L150.4,60.5z"/>
<path d="M200.1,84.6c1.9-0.4,3.7-0.7,5.5-1.1c0.4,2.1,1.6,4.6,5.8,4.6c0.9,0,5.6-0.4,5.6-3.7c0-6.3-16.1,0.2-16.1-11.2
	c0-4.5,4.5-7.9,10.1-7.9s10.4,2.4,11.2,8.3c-1.9,0.3-3.7,0.7-5.5,1c-0.4-3.3-2.4-4.5-5.5-4.5c-2.8,0-4.6,1.5-4.6,3.1
	c0,2.1,2,2.7,5.1,3c5.9,0.6,11,1.9,11,8.1c0,5.5-4.8,8.5-11.1,8.5C204.7,92.9,200.8,89.4,200.1,84.6"/>
<path d="M224.1,70.2v-4.3h4.5v-7.6h5.6v7.6h5.5v4.3h-5.5v15c0,2.1,0.6,2.7,2.5,2.7c0.8,0,2.5-0.1,2.5-0.1v4.6c0,0-2,0.2-4,0.2
	c-4.9,0-6.6-2.7-6.6-7.8V70.2H224.1z"/>
<path d="M259.3,77.6c0-4-0.9-7.4-5.1-7.4c-4,0-5.1,3.4-5.1,7.4v14.8h-5.6V65.9h5.1l0.5,2.9c0.8-1.5,3.9-3.4,7-3.4
	c4.4,0,6.5,2.4,7.3,4c1.4-2.4,4.8-4,7.9-4c7.2,0,9.4,4.4,9.4,12.3v14.8h-5.6V77.6c0-4-1.1-7.5-5.1-7.5c-4.2,0-5.1,3.4-5.1,7.5v14.8
	h-5.6V77.6z"/>
<path d="M290.9,75c-1.8-0.3-3.7-0.7-5.6-1c0.6-5.9,5.4-8.6,10.9-8.6c7.4,0,11.3,3.7,11.3,10.9v9.2c0,1.6,0.3,2.5,1.4,2.5
	c0.5,0,0.9-0.1,1.4-0.2v4.6c-1.1,0.3-2.2,0.4-3.3,0.4c-2.3,0.1-4.3-1.5-4.6-3.8c-2,2.4-5,3.9-8.2,3.9c-6.1,0-9.7-3.4-9.7-8.4
	c0-4.1,3.8-7.9,10.8-7.9h6.8V75c0-2-0.8-4.8-5.7-4.8C293,70.2,291,71.8,290.9,75 M301.9,82.1v-1.3h-6.2c-4.6,0-5.6,2.4-5.6,3.7
	c0,1.8,1.2,3.7,4.6,3.7C299.3,88.1,301.9,85,301.9,82.1"/>
<path d="M184.4,93c-7.6,0-13.7-6.2-13.7-13.8c0-7.6,6.1-13.8,13.7-13.8c7.6,0,13.7,6.2,13.7,13.8c0,0,0,0,0,0
	C198.1,86.8,191.9,92.9,184.4,93 M184.4,70.6c-4.7,0-8.5,3.8-8.5,8.5s3.8,8.5,8.5,8.5c4.7,0,8.5-3.8,8.5-8.5
	C192.9,74.5,189.1,70.6,184.4,70.6"/>
<path d="M345.3,83.2c1.7,0.5,3.4,1,5.2,1.5c-1.2,3.8-4.8,8.2-12,8.2s-12.4-5.6-12.4-13.8s4.8-13.8,12.1-13.8s11.9,4.9,11.9,12.9
	c0,0.8,0,1.7-0.1,2.5h-18.1c0.1,3.9,2.8,7.3,6.6,7.3C341.2,88.1,343.9,86.8,345.3,83.2 M344.1,76.6c-0.2-3.9-2-6.4-5.9-6.4
	c-3.8,0-5.9,3.1-6,6.4H344.1z"/>
<path d="M352.5,84.6c1.9-0.4,3.7-0.7,5.5-1c0.4,2.1,1.6,4.6,5.8,4.6c0.9,0,5.6-0.4,5.6-3.7c0-6.3-16.1,0.2-16.1-11.2
	c0-4.5,4.5-7.9,10.1-7.9s10.4,2.4,11.2,8.3c-1.9,0.3-3.7,0.7-5.5,1c-0.4-3.3-2.4-4.5-5.5-4.5c-2.8,0-4.6,1.5-4.6,3.1
	c0,2.1,2,2.7,5.1,3c5.9,0.6,11,1.9,11,8.1c0,5.6-4.8,8.5-11.1,8.5C357.1,92.9,353.2,89.4,352.5,84.6"/>
<path d="M309.4,70.2v-4.3h4.5v-7.6h5.6v7.6h5.5v4.3h-5.5v15c0,2.1,0.6,2.7,2.5,2.7c0.8,0,2.5-0.1,2.5-0.1v4.6c0,0-2,0.2-4,0.2
	c-4.9,0-6.6-2.7-6.6-7.8V70.2H309.4z"/>
</svg>
