<?xml version="1.0" encoding="utf-8"?>
<!-- Generator: Adobe Illustrator 24.2.3, SVG Export Plug-In . SVG Version: 6.00 Build 0)  -->
<svg version="1.1" xmlns="http://www.w3.org/2000/svg" xmlns:xlink="http://www.w3.org/1999/xlink" x="0px" y="0px"
	 viewBox="0 0 223.2 154.8" style="enable-background:new 0 0 223.2 154.8;" xml:space="preserve">
<style type="text/css">
	.st0{fill:#FFFFFF;}
	.st1{fill:#F37121;}
	.st2{fill:#414042;}
</style>
<g id="white">
	<rect x="3.6" y="3.8" class="st0" width="216" height="113.7"/>
</g>
<g id="red_stripes">
	<rect x="3.6" y="3.8" class="st1" width="216" height="8.7"/>
	<rect x="3.6" y="21.3" class="st1" width="216" height="8.7"/>
	<rect x="3.6" y="38.8" class="st1" width="216" height="8.7"/>
	<rect x="3.6" y="56.2" class="st1" width="216" height="8.7"/>
	<rect x="3.6" y="73.7" class="st1" width="216" height="8.7"/>
	<rect x="3.6" y="91.2" class="st1" width="216" height="8.7"/>
	<rect x="3.6" y="108.7" class="st1" width="216" height="8.7"/>
</g>
<g id="blue">
	<rect x="3.6" y="3.8" class="st2" width="86.4" height="61.2"/>
</g>
<g id="stars">
	<g>
		<polygon class="st0" points="10.8,6.4 10,8.8 7.5,8.8 9.5,10.3 8.7,12.7 10.8,11.2 12.9,12.7 12.1,10.3 14.1,8.8 11.6,8.8 		"/>
		<polygon class="st0" points="10.8,18.6 10,21.1 7.5,21.1 9.5,22.6 8.7,25 10.8,23.5 12.9,25 12.1,22.6 14.1,21.1 11.6,21.1 		"/>
		<polygon class="st0" points="10.8,30.9 10,33.3 7.5,33.3 9.5,34.8 8.7,37.2 10.8,35.7 12.9,37.2 12.1,34.8 14.1,33.3 11.6,33.3 		
			"/>
		<polygon class="st0" points="10.8,43.1 10,45.5 7.5,45.5 9.5,47 8.7,49.5 10.8,48 12.9,49.5 12.1,47 14.1,45.5 11.6,45.5 		"/>
		<polygon class="st0" points="11.6,57.8 10.8,55.4 10,57.8 7.5,57.8 9.5,59.3 8.7,61.7 10.8,60.2 12.9,61.7 12.1,59.3 14.1,57.8 		
			"/>
		<polygon class="st0" points="18,12.5 17.2,14.9 14.7,14.9 16.7,16.4 15.9,18.8 18,17.4 20.1,18.8 19.3,16.4 21.3,14.9 18.8,14.9 
					"/>
		<polygon class="st0" points="18,24.8 17.2,27.2 14.7,27.2 16.7,28.7 15.9,31.1 18,29.6 20.1,31.1 19.3,28.7 21.3,27.2 18.8,27.2 
					"/>
		<polygon class="st0" points="18,37 17.2,39.4 14.7,39.4 16.7,40.9 15.9,43.3 18,41.8 20.1,43.3 19.3,40.9 21.3,39.4 18.8,39.4 		
			"/>
		<polygon class="st0" points="18.8,51.7 18,49.2 17.2,51.7 14.7,51.7 16.7,53.2 15.9,55.6 18,54.1 20.1,55.6 19.3,53.2 21.3,51.7 
					"/>
		<polygon class="st0" points="25.2,6.4 24.4,8.8 21.9,8.8 23.9,10.3 23.1,12.7 25.2,11.2 27.3,12.7 26.5,10.3 28.5,8.8 26,8.8 		
			"/>
		<polygon class="st0" points="25.2,18.6 24.4,21.1 21.9,21.1 23.9,22.6 23.1,25 25.2,23.5 27.3,25 26.5,22.6 28.5,21.1 26,21.1 		
			"/>
		<polygon class="st0" points="25.2,30.9 24.4,33.3 21.9,33.3 23.9,34.8 23.1,37.2 25.2,35.7 27.3,37.2 26.5,34.8 28.5,33.3 
			26,33.3 		"/>
		<polygon class="st0" points="25.2,43.1 24.4,45.5 21.9,45.5 23.9,47 23.1,49.5 25.2,48 27.3,49.5 26.5,47 28.5,45.5 26,45.5 		"/>
		<polygon class="st0" points="26,57.8 25.2,55.4 24.4,57.8 21.9,57.8 23.9,59.3 23.1,61.7 25.2,60.2 27.3,61.7 26.5,59.3 
			28.5,57.8 		"/>
		<polygon class="st0" points="32.4,12.5 31.6,14.9 29.1,14.9 31.1,16.4 30.3,18.8 32.4,17.4 34.5,18.8 33.7,16.4 35.7,14.9 
			33.2,14.9 		"/>
		<polygon class="st0" points="32.4,24.8 31.6,27.2 29.1,27.2 31.1,28.7 30.3,31.1 32.4,29.6 34.5,31.1 33.7,28.7 35.7,27.2 
			33.2,27.2 		"/>
		<polygon class="st0" points="32.4,37 31.6,39.4 29.1,39.4 31.1,40.9 30.3,43.3 32.4,41.8 34.5,43.3 33.7,40.9 35.7,39.4 
			33.2,39.4 		"/>
		<polygon class="st0" points="33.2,51.7 32.4,49.2 31.6,51.7 29.1,51.7 31.1,53.2 30.3,55.6 32.4,54.1 34.5,55.6 33.7,53.2 
			35.7,51.7 		"/>
		<polygon class="st0" points="39.6,6.4 38.8,8.8 36.3,8.8 38.3,10.3 37.5,12.7 39.6,11.2 41.7,12.7 40.9,10.3 42.9,8.8 40.4,8.8 		
			"/>
		<polygon class="st0" points="39.6,18.6 38.8,21.1 36.3,21.1 38.3,22.6 37.5,25 39.6,23.5 41.7,25 40.9,22.6 42.9,21.1 40.4,21.1 
					"/>
		<polygon class="st0" points="39.6,30.9 38.8,33.3 36.3,33.3 38.3,34.8 37.5,37.2 39.6,35.7 41.7,37.2 40.9,34.8 42.9,33.3 
			40.4,33.3 		"/>
		<polygon class="st0" points="39.6,43.1 38.8,45.5 36.3,45.5 38.3,47 37.5,49.5 39.6,48 41.7,49.5 40.9,47 42.9,45.5 40.4,45.5 		
			"/>
		<polygon class="st0" points="40.4,57.8 39.6,55.4 38.8,57.8 36.3,57.8 38.3,59.3 37.5,61.7 39.6,60.2 41.7,61.7 40.9,59.3 
			42.9,57.8 		"/>
		<polygon class="st0" points="46.8,12.5 46,14.9 43.5,14.9 45.5,16.4 44.7,18.8 46.8,17.4 48.9,18.8 48.1,16.4 50.1,14.9 
			47.6,14.9 		"/>
		<polygon class="st0" points="46.8,24.8 46,27.2 43.5,27.2 45.5,28.7 44.7,31.1 46.8,29.6 48.9,31.1 48.1,28.7 50.1,27.2 
			47.6,27.2 		"/>
		<polygon class="st0" points="46.8,37 46,39.4 43.5,39.4 45.5,40.9 44.7,43.3 46.8,41.8 48.9,43.3 48.1,40.9 50.1,39.4 47.6,39.4 
					"/>
		<polygon class="st0" points="47.6,51.7 46.8,49.2 46,51.7 43.5,51.7 45.5,53.2 44.7,55.6 46.8,54.1 48.9,55.6 48.1,53.2 
			50.1,51.7 		"/>
		<polygon class="st0" points="54,6.4 53.2,8.8 50.7,8.8 52.7,10.3 51.9,12.7 54,11.2 56.1,12.7 55.3,10.3 57.3,8.8 54.8,8.8 		"/>
		<polygon class="st0" points="54,18.6 53.2,21.1 50.7,21.1 52.7,22.6 51.9,25 54,23.5 56.1,25 55.3,22.6 57.3,21.1 54.8,21.1 		"/>
		<polygon class="st0" points="54,30.9 53.2,33.3 50.7,33.3 52.7,34.8 51.9,37.2 54,35.7 56.1,37.2 55.3,34.8 57.3,33.3 54.8,33.3 
					"/>
		<polygon class="st0" points="54,43.1 53.2,45.5 50.7,45.5 52.7,47 51.9,49.5 54,48 56.1,49.5 55.3,47 57.3,45.5 54.8,45.5 		"/>
		<polygon class="st0" points="54.8,57.8 54,55.4 53.2,57.8 50.7,57.8 52.7,59.3 51.9,61.7 54,60.2 56.1,61.7 55.3,59.3 57.3,57.8 
					"/>
		<polygon class="st0" points="61.2,12.5 60.4,14.9 57.9,14.9 59.9,16.4 59.1,18.8 61.2,17.4 63.3,18.8 62.5,16.4 64.5,14.9 
			62,14.9 		"/>
		<polygon class="st0" points="61.2,24.8 60.4,27.2 57.9,27.2 59.9,28.7 59.1,31.1 61.2,29.6 63.3,31.1 62.5,28.7 64.5,27.2 
			62,27.2 		"/>
		<polygon class="st0" points="61.2,37 60.4,39.4 57.9,39.4 59.9,40.9 59.1,43.3 61.2,41.8 63.3,43.3 62.5,40.9 64.5,39.4 62,39.4 
					"/>
		<polygon class="st0" points="62,51.7 61.2,49.2 60.4,51.7 57.9,51.7 59.9,53.2 59.1,55.6 61.2,54.1 63.3,55.6 62.5,53.2 
			64.5,51.7 		"/>
		<polygon class="st0" points="68.4,6.4 67.6,8.8 65.1,8.8 67.1,10.3 66.3,12.7 68.4,11.2 70.5,12.7 69.7,10.3 71.7,8.8 69.2,8.8 		
			"/>
		<polygon class="st0" points="68.4,18.6 67.6,21.1 65.1,21.1 67.1,22.6 66.3,25 68.4,23.5 70.5,25 69.7,22.6 71.7,21.1 69.2,21.1 
					"/>
		<polygon class="st0" points="68.4,30.9 67.6,33.3 65.1,33.3 67.1,34.8 66.3,37.2 68.4,35.7 70.5,37.2 69.7,34.8 71.7,33.3 
			69.2,33.3 		"/>
		<polygon class="st0" points="68.4,43.1 67.6,45.5 65.1,45.5 67.1,47 66.3,49.5 68.4,48 70.5,49.5 69.7,47 71.7,45.5 69.2,45.5 		
			"/>
		<polygon class="st0" points="69.2,57.8 68.4,55.4 67.6,57.8 65.1,57.8 67.1,59.3 66.3,61.7 68.4,60.2 70.5,61.7 69.7,59.3 
			71.7,57.8 		"/>
		<polygon class="st0" points="75.6,12.5 74.8,14.9 72.3,14.9 74.3,16.4 73.5,18.8 75.6,17.4 77.7,18.8 76.9,16.4 78.9,14.9 
			76.4,14.9 		"/>
		<polygon class="st0" points="75.6,24.8 74.8,27.2 72.3,27.2 74.3,28.7 73.5,31.1 75.6,29.6 77.7,31.1 76.9,28.7 78.9,27.2 
			76.4,27.2 		"/>
		<polygon class="st0" points="75.6,37 74.8,39.4 72.3,39.4 74.3,40.9 73.5,43.3 75.6,41.8 77.7,43.3 76.9,40.9 78.9,39.4 
			76.4,39.4 		"/>
		<polygon class="st0" points="76.4,51.7 75.6,49.2 74.8,51.7 72.3,51.7 74.3,53.2 73.5,55.6 75.6,54.1 77.7,55.6 76.9,53.2 
			78.9,51.7 		"/>
		<polygon class="st0" points="81.5,10.3 80.7,12.7 82.8,11.2 84.9,12.7 84.1,10.3 86.1,8.8 83.6,8.8 82.8,6.4 82,8.8 79.5,8.8 		
			"/>
		<polygon class="st0" points="82.8,18.6 82,21.1 79.5,21.1 81.5,22.6 80.7,25 82.8,23.5 84.9,25 84.1,22.6 86.1,21.1 83.6,21.1 		
			"/>
		<polygon class="st0" points="82.8,30.9 82,33.3 79.5,33.3 81.5,34.8 80.7,37.2 82.8,35.7 84.9,37.2 84.1,34.8 86.1,33.3 
			83.6,33.3 		"/>
		<polygon class="st0" points="82.8,43.1 82,45.5 79.5,45.5 81.5,47 80.7,49.5 82.8,48 84.9,49.5 84.1,47 86.1,45.5 83.6,45.5 		"/>
		<polygon class="st0" points="83.6,57.8 82.8,55.4 82,57.8 79.5,57.8 81.5,59.3 80.7,61.7 82.8,60.2 84.9,61.7 84.1,59.3 
			86.1,57.8 		"/>
	</g>
</g>
<g id="Layer_5">
	<g>
		<path class="st2" d="M15.2,132.9H19l-6,17.6H9.6l-6-17.6h3.9l3.8,13.4L15.2,132.9z"/>
		<path class="st2" d="M34.2,136h-9.3v3.7h8.6v3.1h-8.6v4.5h9.7v3.2H21.3v-17.6h12.9V136z"/>
		<path class="st2" d="M50.3,132.9v3.1h-5.3v14.5h-3.7V136h-5.3v-3.1H50.3z"/>
		<path class="st2" d="M65.5,136h-9.3v3.7h8.6v3.1h-8.6v4.5h9.7v3.2H52.6v-17.6h12.9V136z"/>
		<path class="st2" d="M80.1,133.4c0.6,0.3,1.2,0.7,1.6,1.2c0.4,0.4,0.7,0.9,0.9,1.5c0.2,0.5,0.3,1.2,0.3,1.9c0,0.8-0.2,1.7-0.6,2.5
			c-0.4,0.8-1.1,1.4-2.1,1.7c0.8,0.3,1.4,0.8,1.7,1.4c0.3,0.6,0.5,1.5,0.5,2.8v1.2c0,0.8,0,1.3,0.1,1.6c0.1,0.5,0.3,0.8,0.7,1v0.4
			h-4.1c-0.1-0.4-0.2-0.7-0.2-0.9c-0.1-0.5-0.1-1-0.2-1.5l0-1.6c0-1.1-0.2-1.9-0.6-2.2c-0.4-0.4-1.1-0.6-2.1-0.6h-3.6v6.9h-3.6
			v-17.6h8.4C78.5,133,79.4,133.1,80.1,133.4z M72.5,136v4.7h4c0.8,0,1.4-0.1,1.8-0.3c0.7-0.3,1-1,1-2c0-1.1-0.3-1.8-1-2.2
			c-0.4-0.2-0.9-0.3-1.7-0.3H72.5z"/>
		<path class="st2" d="M91.5,132.9h4.2l6.2,17.6h-4l-1.2-3.6h-6.5l-1.2,3.6h-3.8L91.5,132.9z M91.3,143.9h4.5l-2.2-6.9L91.3,143.9z"
			/>
		<path class="st2" d="M104.1,132.9h3.9l7,12.3v-12.3h3.4v17.6h-3.7l-7.2-12.5v12.5h-3.4V132.9z"/>
		<path class="st2" d="M142.2,149c-1.3,1.4-3.3,2.1-5.8,2.1c-2.5,0-4.4-0.7-5.8-2.1c-1.8-1.7-2.7-4.1-2.7-7.3c0-3.2,0.9-5.6,2.7-7.3
			c1.3-1.4,3.3-2.1,5.8-2.1c2.5,0,4.4,0.7,5.8,2.1c1.8,1.6,2.7,4,2.7,7.3C144.8,144.9,143.9,147.3,142.2,149z M139.9,146.3
			c0.9-1.1,1.3-2.6,1.3-4.6c0-2-0.4-3.5-1.3-4.6c-0.9-1.1-2-1.6-3.5-1.6c-1.5,0-2.6,0.5-3.5,1.6c-0.9,1.1-1.3,2.6-1.3,4.6
			s0.4,3.5,1.3,4.6c0.9,1.1,2,1.6,3.5,1.6C137.8,147.9,139,147.4,139.9,146.3z"/>
		<path class="st2" d="M150,132.9l2.3,10.1l0.5,2.8l0.5-2.7l2-10.1h3.9l2.1,10.1l0.5,2.8l0.5-2.7l2.3-10.2h3.7l-5,17.6H160
			l-2.1-10.3l-0.6-3.4l-0.6,3.4l-2.1,10.3h-3.4l-5-17.6H150z"/>
		<path class="st2" d="M170.7,132.9h3.9l7,12.3v-12.3h3.4v17.6h-3.7l-7.2-12.5v12.5h-3.4V132.9z"/>
		<path class="st2" d="M201.4,136h-9.3v3.7h8.6v3.1h-8.6v4.5h9.7v3.2h-13.3v-17.6h12.9V136z"/>
		<path class="st2" d="M215,133.3c1.2,0.4,2.2,1.2,3,2.2c0.6,0.9,1,1.8,1.3,2.8c0.2,1,0.3,2,0.3,2.9c0,2.3-0.5,4.3-1.4,5.9
			c-1.3,2.2-3.2,3.3-5.9,3.3h-7.6v-17.6h7.6C213.4,132.9,214.3,133.1,215,133.3z M208.3,136v11.5h3.4c1.7,0,3-0.9,3.6-2.6
			c0.4-0.9,0.6-2.1,0.6-3.4c0-1.8-0.3-3.2-0.8-4.1c-0.6-1-1.7-1.4-3.4-1.4H208.3z"/>
	</g>
</g>
<g id="Layer_6">
</g>
</svg>
