<?xml version="1.0" encoding="utf-8"?>
<!-- Generator: Adobe Illustrator 14.0.0, SVG Export Plug-In . SVG Version: 6.00 Build 43363)  -->
<!DOCTYPE svg PUBLIC "-//W3C//DTD SVG 1.1//EN" "http://www.w3.org/Graphics/SVG/1.1/DTD/svg11.dtd">
<svg version="1.1" xmlns="http://www.w3.org/2000/svg" xmlns:xlink="http://www.w3.org/1999/xlink" x="0px" y="0px" width="22px"
	 height="22px" viewBox="0 0 22 22" enable-background="new 0 0 22 22" xml:space="preserve">
<g id="Layer_2">
	<rect fill="#F8F8F8" width="22" height="22"/>
</g>
<g id="Layer_1">
	<g>
		<path d="M13.227,10.723c1.257,0.293,2.139,0.648,2.646,1.064c0.729,0.593,1.094,1.36,1.094,2.305c0,0.996-0.4,1.819-1.201,2.471
			c-0.983,0.788-2.412,1.182-4.287,1.182H4.75v-0.361c0.612,0,1.027-0.057,1.245-0.171s0.371-0.262,0.459-0.444
			s0.132-0.632,0.132-1.348V6.826c0-0.716-0.044-1.167-0.132-1.353S6.211,5.14,5.99,5.029S5.355,4.863,4.75,4.863V4.502h6.348
			c1.517,0,2.591,0.135,3.223,0.405s1.13,0.674,1.494,1.211s0.547,1.108,0.547,1.714c0,0.638-0.231,1.206-0.693,1.704
			S14.392,10.43,13.227,10.723z M9.672,11.221v4.248l-0.01,0.488c0,0.352,0.089,0.617,0.269,0.796s0.444,0.269,0.796,0.269
			c0.521,0,1.001-0.115,1.44-0.347s0.776-0.566,1.011-1.006s0.352-0.93,0.352-1.47c0-0.618-0.144-1.174-0.43-1.665
			s-0.681-0.835-1.182-1.03C11.417,11.309,10.668,11.214,9.672,11.221z M9.672,10.459c0.924,0,1.606-0.104,2.046-0.313
			s0.776-0.501,1.011-0.879s0.352-0.859,0.352-1.445s-0.115-1.066-0.347-1.44s-0.562-0.659-0.991-0.854s-1.12-0.29-2.07-0.283
			V10.459z"/>
	</g>
</g>
</svg>
