<?xml version="1.0" encoding="utf-8"?>
<!-- Generator: Adobe Illustrator 14.0.0, SVG Export Plug-In . SVG Version: 6.00 Build 43363)  -->
<!DOCTYPE svg PUBLIC "-//W3C//DTD SVG 1.1//EN" "http://www.w3.org/Graphics/SVG/1.1/DTD/svg11.dtd">
<svg version="1.1" xmlns="http://www.w3.org/2000/svg" xmlns:xlink="http://www.w3.org/1999/xlink" x="0px" y="0px" width="88px"
	 height="88px" viewBox="0 0 88 88" enable-background="new 0 0 88 88" xml:space="preserve">
<g id="Layer_3">
	<rect fill="#F1F1F1" width="88" height="88"/>
</g>
<g id="Layer_2">
	<path fill="#333333" d="M66.499,43.999l-8.437,8.438c0,0-11.175,11.175-22.5,0c-0.979-0.979-1.757-2.063-2.446-3.18l6.038-6.036
		c0.346,1.312,1.004,2.561,2.034,3.591c5.624,5.625,11.25,0,11.25,0l8.438-8.438c0,0,5.623-5.625,0-11.25
		c-5.626-5.625-11.251,0-11.251,0s-2.817-2.807-8.438-2.813L44,21.5c0,0,11.25-11.25,22.499,0
		C77.75,32.75,66.499,43.999,66.499,43.999z M54.884,38.74l-6.039,6.04c-0.346-1.313-1.003-2.563-2.033-3.593
		c-5.624-5.625-11.25,0-11.25,0l-8.437,8.437c0,0-5.625,5.627,0,11.252c5.625,5.624,11.25,0,11.25,0s2.68,3.021,8.513,2.736L44,66.5
		c0,0-11.25,11.25-22.5,0c-11.25-11.249,0-22.501,0-22.501l8.438-8.437c0,0,11.25-11.25,22.5,0
		C53.417,36.542,54.194,37.628,54.884,38.74z"/>
</g>
</svg>
