<?xml version="1.0" encoding="utf-8"?>
<!-- Generator: Adobe Illustrator 22.0.1, SVG Export Plug-In . SVG Version: 6.00 Build 0)  -->
<svg version="1.1" id="Layer_1" xmlns="http://www.w3.org/2000/svg" xmlns:xlink="http://www.w3.org/1999/xlink" x="0px" y="0px"
	 viewBox="0 0 900 800" style="enable-background:new 0 0 900 800;" xml:space="preserve">
<style type="text/css">
	.st0{fill:#FFFFFF;}
	.st1{fill:#809F83;}
	.st2{fill:#151915;}
	.st3{fill:#59699B;}
	.st4{fill:url(#SVGID_1_);}
	.st5{fill:url(#SVGID_2_);}
	.st6{fill:url(#SVGID_3_);}
	.st7{fill:url(#SVGID_4_);}
	.st8{fill:url(#SVGID_5_);}
	.st9{fill:url(#SVGID_6_);}
</style>
<rect class="st0" width="900" height="800"/>
<path class="st1" d="M621.2,31.8v86.4H278.8V31.8H621.2 M629.2,23.8h-8H278.8h-8v8v86.4v8h8h342.4h8v-8V31.8V23.8L629.2,23.8z"/>
<g>
	<path class="st2" d="M402.3,62.6c-3.6,0-6.5,1.2-8.5,3.6s-3.1,5.7-3.1,9.9c0,4.3,1,7.6,3,10c2,2.3,4.9,3.5,8.6,3.5
		c2.3,0,4.9-0.4,7.8-1.2v3.3c-2.3,0.9-5.1,1.3-8.4,1.3c-4.8,0-8.6-1.5-11.2-4.4c-2.6-2.9-3.9-7.1-3.9-12.5c0-3.4,0.6-6.3,1.9-8.9
		c1.3-2.5,3.1-4.5,5.5-5.9c2.4-1.4,5.2-2.1,8.4-2.1c3.4,0,6.5,0.6,9,1.9l-1.6,3.3C407.3,63.2,404.8,62.6,402.3,62.6z"/>
	<path class="st2" d="M438,80.1c0,4-1,7.1-3,9.4c-2,2.3-4.8,3.4-8.4,3.4c-2.2,0-4.2-0.5-5.9-1.5s-3-2.5-4-4.4
		c-0.9-1.9-1.4-4.2-1.4-6.8c0-4,1-7.1,3-9.4c2-2.2,4.8-3.4,8.4-3.4c3.4,0,6.2,1.1,8.2,3.4C436.9,73.1,438,76.2,438,80.1z
		 M419.2,80.1c0,3.1,0.6,5.5,1.9,7.2c1.3,1.6,3.1,2.5,5.5,2.5c2.4,0,4.3-0.8,5.6-2.5c1.3-1.6,1.9-4,1.9-7.2c0-3.1-0.6-5.5-1.9-7.1
		c-1.3-1.6-3.1-2.4-5.6-2.4c-2.4,0-4.3,0.8-5.5,2.4C419.8,74.6,419.2,77,419.2,80.1z"/>
	<path class="st2" d="M459.6,92.5l-0.7-3.5h-0.2c-1.2,1.5-2.5,2.6-3.7,3.1c-1.2,0.5-2.7,0.8-4.6,0.8c-2.4,0-4.4-0.6-5.7-1.9
		c-1.4-1.3-2.1-3-2.1-5.4c0-5,4-7.6,11.9-7.8l4.2-0.1v-1.5c0-1.9-0.4-3.4-1.2-4.3s-2.2-1.4-4-1.4c-2.1,0-4.4,0.6-7,1.9l-1.1-2.9
		c1.2-0.7,2.5-1.2,4-1.5c1.4-0.4,2.9-0.6,4.3-0.6c2.9,0,5.1,0.7,6.5,2s2.1,3.4,2.1,6.3v16.8H459.6z M451.2,89.8
		c2.3,0,4.1-0.6,5.5-1.9c1.3-1.3,2-3.1,2-5.3v-2.2l-3.7,0.2c-3,0.1-5.1,0.6-6.4,1.4c-1.3,0.8-2,2.1-2,3.8c0,1.3,0.4,2.4,1.2,3.1
		C448.6,89.5,449.7,89.8,451.2,89.8z"/>
	<path class="st2" d="M479.9,92.9c-3.6,0-6.3-1.1-8.3-3.3c-2-2.2-2.9-5.3-2.9-9.3c0-4.1,1-7.3,3-9.5c2-2.2,4.8-3.4,8.5-3.4
		c1.2,0,2.4,0.1,3.5,0.4c1.2,0.3,2.1,0.6,2.8,0.9l-1.1,3.2c-0.8-0.3-1.7-0.6-2.7-0.8c-1-0.2-1.8-0.3-2.6-0.3c-5,0-7.5,3.2-7.5,9.6
		c0,3,0.6,5.3,1.8,7c1.2,1.6,3,2.4,5.4,2.4c2.1,0,4.2-0.4,6.3-1.3v3.3C484.5,92.5,482.4,92.9,479.9,92.9z"/>
	<path class="st2" d="M508.8,92.5V76.5c0-2-0.5-3.5-1.4-4.5s-2.3-1.5-4.3-1.5c-2.6,0-4.5,0.7-5.7,2.1c-1.2,1.4-1.8,3.7-1.8,6.9v12.9
		H492V57.5h3.7v10.6c0,1.3-0.1,2.3-0.2,3.2h0.2c0.7-1.2,1.8-2.1,3.1-2.8c1.4-0.7,2.9-1,4.6-1c3,0,5.3,0.7,6.8,2.1
		c1.5,1.4,2.3,3.7,2.3,6.8v16.1H508.8z"/>
</g>
<g>
	<g>
		<path class="st1" d="M621.2,681.8v86.4H278.8v-86.4H621.2 M629.2,673.8h-8H278.8h-8v8v86.4v8h8h342.4h8v-8v-86.4V673.8
			L629.2,673.8z"/>
	</g>
	<g>
		<path class="st2" d="M310.4,740.5h-3.3v-28.6H323v2.9h-12.6v10.4h11.8v2.9h-11.8V740.5z"/>
		<path class="st2" d="M340.4,740.5l-0.6-3h-0.2c-1.1,1.3-2.1,2.2-3.2,2.7c-1.1,0.5-2.4,0.7-4,0.7c-2.1,0-3.8-0.5-5-1.6
			c-1.2-1.1-1.8-2.6-1.8-4.7c0-4.3,3.5-6.6,10.4-6.8l3.6-0.1v-1.3c0-1.7-0.4-2.9-1.1-3.7s-1.9-1.2-3.5-1.2c-1.8,0-3.8,0.5-6.1,1.6
			l-1-2.5c1.1-0.6,2.2-1,3.5-1.3c1.3-0.3,2.5-0.5,3.8-0.5c2.6,0,4.4,0.6,5.7,1.7s1.8,2.9,1.8,5.4v14.6H340.4z M333.1,738.2
			c2,0,3.6-0.6,4.8-1.7s1.7-2.7,1.7-4.6v-1.9l-3.2,0.1c-2.6,0.1-4.4,0.5-5.6,1.2c-1.1,0.7-1.7,1.8-1.7,3.3c0,1.2,0.4,2.1,1.1,2.7
			C330.8,737.9,331.8,738.2,333.1,738.2z"/>
		<path class="st2" d="M376.8,740.5v-13.9c0-1.7-0.4-3-1.1-3.8c-0.7-0.9-1.9-1.3-3.4-1.3c-2,0-3.5,0.6-4.5,1.7
			c-1,1.2-1.4,2.9-1.4,5.4v12h-3.2v-13.9c0-1.7-0.4-3-1.1-3.8c-0.7-0.9-1.9-1.3-3.4-1.3c-2,0-3.5,0.6-4.5,1.8
			c-0.9,1.2-1.4,3.2-1.4,6v11.2h-3.2v-21.4h2.6l0.5,2.9h0.2c0.6-1,1.5-1.9,2.6-2.4s2.4-0.9,3.7-0.9c3.3,0,5.5,1.2,6.6,3.6h0.2
			c0.6-1.1,1.6-2,2.8-2.7s2.6-1,4.1-1c2.4,0,4.2,0.6,5.4,1.9c1.2,1.2,1.8,3.2,1.8,6v14H376.8z"/>
		<path class="st2" d="M386.4,713.3c0-0.7,0.2-1.3,0.5-1.6c0.4-0.3,0.8-0.5,1.4-0.5c0.5,0,1,0.2,1.3,0.5c0.4,0.4,0.6,0.9,0.6,1.6
			s-0.2,1.3-0.6,1.6c-0.4,0.4-0.8,0.5-1.3,0.5c-0.5,0-1-0.2-1.4-0.5C386.6,714.5,386.4,714,386.4,713.3z M390,740.5h-3.2v-21.4h3.2
			V740.5z"/>
		<path class="st2" d="M400.1,740.5h-3.2v-30.4h3.2V740.5z"/>
		<path class="st2" d="M403.6,719.1h3.5l4.7,12.2c1,2.8,1.7,4.8,1.9,6h0.2c0.2-0.7,0.5-1.8,1.1-3.4c0.5-1.6,2.3-6.6,5.3-14.8h3.5
			l-9.2,24.4c-0.9,2.4-2,4.1-3.2,5.1c-1.2,1-2.7,1.5-4.5,1.5c-1,0-2-0.1-2.9-0.3v-2.6c0.7,0.2,1.5,0.2,2.4,0.2
			c2.2,0,3.8-1.2,4.8-3.8l1.2-3L403.6,719.1z"/>
		<path class="st2" d="M448.3,711.9l-10.6,28.6h-3.2l10.6-28.6H448.3z"/>
		<path class="st2" d="M466.4,740.5h-3.3v-28.6H479v2.9h-12.6v10.4h11.8v2.9h-11.8V740.5z"/>
		<path class="st2" d="M493,718.7c1,0,1.8,0.1,2.6,0.2l-0.4,3c-0.9-0.2-1.7-0.3-2.3-0.3c-1.7,0-3.2,0.7-4.4,2.1s-1.8,3.2-1.8,5.3
			v11.5h-3.2v-21.4h2.7l0.4,4h0.2c0.8-1.4,1.8-2.5,2.9-3.2S491.6,718.7,493,718.7z"/>
		<path class="st2" d="M499.3,713.3c0-0.7,0.2-1.3,0.5-1.6s0.8-0.5,1.4-0.5c0.5,0,1,0.2,1.3,0.5s0.6,0.9,0.6,1.6s-0.2,1.3-0.6,1.6
			s-0.8,0.5-1.3,0.5c-0.5,0-1-0.2-1.4-0.5S499.3,714,499.3,713.3z M502.8,740.5h-3.2v-21.4h3.2V740.5z"/>
		<path class="st2" d="M518.7,740.9c-3.2,0-5.7-1-7.5-2.9s-2.7-4.6-2.7-8c0-3.5,0.8-6.2,2.5-8.2s4-3,6.8-3c2.7,0,4.8,0.9,6.4,2.6
			s2.3,4.1,2.3,7v2.1h-14.7c0.1,2.5,0.7,4.4,1.9,5.7s2.9,2,5.1,2c2.3,0,4.6-0.5,6.8-1.4v2.9c-1.1,0.5-2.2,0.8-3.3,1.1
			S520.2,740.9,518.7,740.9z M517.8,721.4c-1.7,0-3.1,0.6-4.1,1.7s-1.6,2.7-1.8,4.6h11.2c0-2-0.5-3.6-1.4-4.7
			S519.5,721.4,517.8,721.4z"/>
		<path class="st2" d="M546.8,740.5v-13.8c0-1.7-0.4-3-1.2-3.9s-2-1.3-3.7-1.3c-2.2,0-3.9,0.6-4.9,1.8s-1.6,3.2-1.6,6v11.2h-3.2
			v-21.4h2.6l0.5,2.9h0.2c0.7-1.1,1.6-1.9,2.8-2.5s2.5-0.9,4-0.9c2.6,0,4.5,0.6,5.8,1.9s2,3.2,2,6v14H546.8z"/>
		<path class="st2" d="M571.2,737.6h-0.2c-1.5,2.2-3.7,3.3-6.7,3.3c-2.8,0-5-1-6.5-2.9s-2.3-4.6-2.3-8.2s0.8-6.3,2.3-8.2
			s3.7-2.9,6.5-2.9c2.9,0,5.1,1.1,6.7,3.2h0.3l-0.1-1.5l-0.1-1.5v-8.7h3.2v30.4h-2.6L571.2,737.6z M564.7,738.1
			c2.2,0,3.8-0.6,4.8-1.8s1.5-3.1,1.5-5.8v-0.7c0-3-0.5-5.2-1.5-6.5s-2.6-1.9-4.8-1.9c-1.9,0-3.4,0.7-4.4,2.2s-1.5,3.6-1.5,6.3
			c0,2.7,0.5,4.8,1.5,6.2S562.8,738.1,564.7,738.1z"/>
		<path class="st2" d="M595,734.6c0,2-0.7,3.5-2.2,4.6s-3.6,1.6-6.2,1.6c-2.8,0-5.1-0.4-6.6-1.3v-3c1,0.5,2.1,0.9,3.3,1.2
			c1.2,0.3,2.3,0.4,3.4,0.4c1.7,0,3-0.3,3.9-0.8c0.9-0.5,1.4-1.4,1.4-2.5c0-0.8-0.4-1.5-1.1-2.1s-2.1-1.3-4.2-2.1
			c-2-0.7-3.4-1.4-4.2-1.9s-1.5-1.2-1.9-1.9s-0.6-1.5-0.6-2.5c0-1.7,0.7-3.1,2.1-4.1c1.4-1,3.4-1.5,5.8-1.5c2.3,0,4.6,0.5,6.8,1.4
			l-1.2,2.6c-2.1-0.9-4.1-1.3-5.8-1.3c-1.5,0-2.7,0.2-3.5,0.7s-1.2,1.1-1.2,2c0,0.6,0.1,1.1,0.4,1.5s0.8,0.8,1.4,1.2
			c0.7,0.4,1.9,0.9,3.8,1.6c2.5,0.9,4.3,1.9,5.1,2.8C594.5,732,595,733.2,595,734.6z"/>
	</g>
</g>
<g>
	<g>
		<g>
			<path class="st3" d="M371.2,491.8v86.4H28.8v-86.4H371.2 M379.2,483.8h-8H28.8h-8v8v86.4v8h8h342.4h8v-8v-86.4V483.8L379.2,483.8
				z"/>
		</g>
	</g>
	<g>
		<path class="st2" d="M155.3,550.5l-3.6-9.1h-11.4l-3.5,9.1h-3.4l11.3-28.7h2.8l11.2,28.7H155.3z M150.7,538.4l-3.3-8.8
			c-0.4-1.1-0.9-2.5-1.3-4.1c-0.3,1.2-0.7,2.6-1.2,4.1l-3.4,8.8H150.7z"/>
		<path class="st2" d="M169.1,548.2c0.6,0,1.1,0,1.7-0.1c0.5-0.1,1-0.2,1.3-0.3v2.5c-0.4,0.2-0.9,0.3-1.6,0.4
			c-0.7,0.1-1.3,0.2-1.8,0.2c-4.1,0-6.2-2.2-6.2-6.5v-12.7h-3.1V530l3.1-1.3l1.4-4.6h1.9v5h6.2v2.5h-6.2v12.6c0,1.3,0.3,2.3,0.9,3
			C167.2,547.8,168,548.2,169.1,548.2z"/>
		<path class="st2" d="M191,550.5v-13.8c0-1.7-0.4-3-1.2-3.9c-0.8-0.9-2-1.3-3.7-1.3c-2.3,0-3.9,0.6-4.9,1.8s-1.6,3.2-1.6,6v11.2
			h-3.2v-30.4h3.2v9.2c0,1.1-0.1,2-0.2,2.8h0.2c0.6-1,1.5-1.8,2.7-2.4c1.2-0.6,2.5-0.9,4-0.9c2.6,0,4.6,0.6,5.9,1.9s2,3.2,2,5.9v14
			H191z"/>
		<path class="st2" d="M204.1,550.5h-3.2v-30.4h3.2V550.5z"/>
		<path class="st2" d="M220,550.9c-3.2,0-5.7-1-7.5-2.9c-1.8-1.9-2.7-4.6-2.7-8c0-3.5,0.8-6.2,2.5-8.2s4-3,6.8-3
			c2.7,0,4.8,0.9,6.4,2.6s2.3,4.1,2.3,7v2.1h-14.7c0.1,2.5,0.7,4.4,1.9,5.7c1.2,1.3,2.9,2,5.1,2c2.3,0,4.6-0.5,6.8-1.4v2.9
			c-1.1,0.5-2.2,0.8-3.3,1.1C222.7,550.7,221.5,550.9,220,550.9z M219.2,531.4c-1.7,0-3.1,0.6-4.1,1.7c-1,1.1-1.6,2.7-1.8,4.6h11.2
			c0-2-0.5-3.6-1.4-4.7C222.1,531.9,220.8,531.4,219.2,531.4z"/>
		<path class="st2" d="M240.3,548.2c0.6,0,1.1,0,1.7-0.1c0.5-0.1,1-0.2,1.3-0.3v2.5c-0.4,0.2-0.9,0.3-1.6,0.4
			c-0.7,0.1-1.3,0.2-1.8,0.2c-4.1,0-6.2-2.2-6.2-6.5v-12.7h-3.1V530l3.1-1.3l1.4-4.6h1.9v5h6.2v2.5h-6.2v12.6c0,1.3,0.3,2.3,0.9,3
			C238.4,547.8,239.3,548.2,240.3,548.2z"/>
		<path class="st2" d="M256.6,550.9c-3.2,0-5.7-1-7.5-2.9c-1.8-1.9-2.7-4.6-2.7-8c0-3.5,0.8-6.2,2.5-8.2s4-3,6.8-3
			c2.7,0,4.8,0.9,6.4,2.6s2.3,4.1,2.3,7v2.1h-14.7c0.1,2.5,0.7,4.4,1.9,5.7c1.2,1.3,2.9,2,5.1,2c2.3,0,4.6-0.5,6.8-1.4v2.9
			c-1.1,0.5-2.2,0.8-3.3,1.1C259.3,550.7,258,550.9,256.6,550.9z M255.7,531.4c-1.7,0-3.1,0.6-4.1,1.7c-1,1.1-1.6,2.7-1.8,4.6H261
			c0-2-0.5-3.6-1.4-4.7C258.7,531.9,257.4,531.4,255.7,531.4z"/>
	</g>
</g>
<g>
	<g>
		<g>
			<path class="st3" d="M871.2,491.8v86.4H528.8v-86.4H871.2 M879.2,483.8h-8H528.8h-8v8v86.4v8h8h342.4h8v-8v-86.4V483.8
				L879.2,483.8z"/>
		</g>
	</g>
	<g>
		<path class="st2" d="M599.7,550.5h-15.9v-28.6h15.9v2.9h-12.6v9.2h11.8v2.9h-11.8v10.5h12.6V550.5z"/>
		<path class="st2" d="M620.2,550.5v-13.8c0-1.7-0.4-3-1.2-3.9s-2-1.3-3.7-1.3c-2.2,0-3.9,0.6-4.9,1.8s-1.6,3.2-1.6,6v11.2h-3.2
			v-21.4h2.6l0.5,2.9h0.2c0.7-1.1,1.6-1.9,2.8-2.5s2.5-0.9,4-0.9c2.6,0,4.5,0.6,5.8,1.9s2,3.2,2,6v14H620.2z"/>
		<path class="st2" d="M634.8,550.5l-8.1-21.4h3.5l4.6,12.7c1,3,1.7,4.9,1.8,5.8h0.2c0.1-0.7,0.6-2.1,1.4-4.3s2.5-6.9,5.1-14.2h3.5
			l-8.1,21.4H634.8z"/>
		<path class="st2" d="M649.8,523.3c0-0.7,0.2-1.3,0.5-1.6s0.8-0.5,1.4-0.5c0.5,0,1,0.2,1.3,0.5s0.6,0.9,0.6,1.6s-0.2,1.3-0.6,1.6
			s-0.8,0.5-1.3,0.5c-0.5,0-1-0.2-1.4-0.5S649.8,524,649.8,523.3z M653.4,550.5h-3.2v-21.4h3.2V550.5z"/>
		<path class="st2" d="M670,528.7c1,0,1.8,0.1,2.6,0.2l-0.4,3c-0.9-0.2-1.7-0.3-2.3-0.3c-1.7,0-3.2,0.7-4.4,2.1s-1.8,3.2-1.8,5.3
			v11.5h-3.2v-21.4h2.7l0.4,4h0.2c0.8-1.4,1.8-2.5,2.9-3.2S668.7,528.7,670,528.7z"/>
		<path class="st2" d="M695,539.7c0,3.5-0.9,6.2-2.6,8.2s-4.2,2.9-7.3,2.9c-1.9,0-3.6-0.4-5.1-1.3s-2.6-2.2-3.4-3.9
			s-1.2-3.6-1.2-5.9c0-3.5,0.9-6.2,2.6-8.2s4.2-2.9,7.3-2.9c3,0,5.4,1,7.1,3S695,536.3,695,539.7z M678.7,539.7
			c0,2.7,0.5,4.8,1.6,6.2s2.7,2.1,4.8,2.1s3.7-0.7,4.8-2.1s1.7-3.5,1.7-6.3c0-2.7-0.5-4.8-1.7-6.2s-2.7-2.1-4.9-2.1
			c-2.1,0-3.7,0.7-4.8,2.1S678.7,537,678.7,539.7z"/>
		<path class="st2" d="M715.4,550.5v-13.8c0-1.7-0.4-3-1.2-3.9s-2-1.3-3.7-1.3c-2.2,0-3.9,0.6-4.9,1.8s-1.6,3.2-1.6,6v11.2h-3.2
			v-21.4h2.6l0.5,2.9h0.2c0.7-1.1,1.6-1.9,2.8-2.5s2.5-0.9,4-0.9c2.6,0,4.5,0.6,5.8,1.9s2,3.2,2,6v14H715.4z"/>
		<path class="st2" d="M752.6,550.5v-13.9c0-1.7-0.4-3-1.1-3.8s-1.9-1.3-3.4-1.3c-2,0-3.5,0.6-4.5,1.7s-1.4,2.9-1.4,5.4v12h-3.2
			v-13.9c0-1.7-0.4-3-1.1-3.8s-1.9-1.3-3.4-1.3c-2,0-3.5,0.6-4.5,1.8s-1.4,3.2-1.4,6v11.2h-3.2v-21.4h2.6l0.5,2.9h0.2
			c0.6-1,1.5-1.9,2.6-2.4s2.4-0.9,3.7-0.9c3.3,0,5.5,1.2,6.6,3.6h0.2c0.6-1.1,1.6-2,2.8-2.7s2.6-1,4.1-1c2.4,0,4.2,0.6,5.4,1.9
			s1.8,3.2,1.8,6v14H752.6z"/>
		<path class="st2" d="M771.5,550.9c-3.2,0-5.7-1-7.5-2.9s-2.7-4.6-2.7-8c0-3.5,0.8-6.2,2.5-8.2s4-3,6.8-3c2.7,0,4.8,0.9,6.4,2.6
			s2.3,4.1,2.3,7v2.1h-14.7c0.1,2.5,0.7,4.4,1.9,5.7s2.9,2,5.1,2c2.3,0,4.6-0.5,6.8-1.4v2.9c-1.1,0.5-2.2,0.8-3.3,1.1
			S773,550.9,771.5,550.9z M770.6,531.4c-1.7,0-3.1,0.6-4.1,1.7s-1.6,2.7-1.8,4.6h11.2c0-2-0.5-3.6-1.4-4.7S772.3,531.4,770.6,531.4
			z"/>
		<path class="st2" d="M799.6,550.5v-13.8c0-1.7-0.4-3-1.2-3.9s-2-1.3-3.7-1.3c-2.2,0-3.9,0.6-4.9,1.8s-1.6,3.2-1.6,6v11.2h-3.2
			v-21.4h2.6l0.5,2.9h0.2c0.7-1.1,1.6-1.9,2.8-2.5s2.5-0.9,4-0.9c2.6,0,4.5,0.6,5.8,1.9s2,3.2,2,6v14H799.6z"/>
		<path class="st2" d="M816.4,548.2c0.6,0,1.1,0,1.7-0.1s1-0.2,1.3-0.3v2.5c-0.4,0.2-0.9,0.3-1.6,0.4c-0.7,0.1-1.3,0.2-1.8,0.2
			c-4.1,0-6.2-2.2-6.2-6.5v-12.7h-3.1V530l3.1-1.3l1.4-4.6h1.9v5h6.2v2.5h-6.2v12.6c0,1.3,0.3,2.3,0.9,3S815.3,548.2,816.4,548.2z"
			/>
	</g>
</g>
<g>
	<g>
		<path class="st2" d="M417.7,280.2c0,2.7-1,4.7-2.9,6.2c-1.9,1.5-4.6,2.2-7.9,2.2c-3.6,0-6.3-0.5-8.3-1.4v-3.4
			c1.2,0.5,2.6,0.9,4.1,1.2c1.5,0.3,2.9,0.5,4.3,0.5c2.3,0,4.1-0.4,5.3-1.3c1.2-0.9,1.8-2.1,1.8-3.7c0-1-0.2-1.9-0.6-2.6
			c-0.4-0.7-1.1-1.3-2.1-1.9c-1-0.6-2.5-1.2-4.5-1.9c-2.8-1-4.8-2.2-6-3.6c-1.2-1.4-1.8-3.2-1.8-5.4c0-2.3,0.9-4.2,2.6-5.6
			c1.8-1.4,4.1-2.1,7-2.1c3,0,5.8,0.6,8.3,1.7l-1.1,3.1c-2.5-1-4.9-1.6-7.3-1.6c-1.9,0-3.3,0.4-4.4,1.2c-1,0.8-1.6,1.9-1.6,3.3
			c0,1,0.2,1.9,0.6,2.6c0.4,0.7,1,1.3,2,1.8c0.9,0.6,2.3,1.2,4.2,1.9c3.2,1.1,5.4,2.3,6.5,3.6S417.7,278.1,417.7,280.2z"/>
		<path class="st2" d="M433.9,288.7c-1.5,0-2.8-0.3-4-0.8c-1.2-0.5-2.2-1.4-3.1-2.5h-0.2c0.2,1.3,0.2,2.6,0.2,3.8v9.3h-3.4v-32.9
			h2.8l0.5,3.1h0.2c0.9-1.2,1.9-2.1,3.1-2.7c1.2-0.6,2.5-0.8,4-0.8c3,0,5.3,1,7,3.1s2.5,4.9,2.5,8.6c0,3.7-0.8,6.6-2.5,8.7
			S436.9,288.7,433.9,288.7z M433.4,268.1c-2.3,0-4,0.6-5,1.9c-1,1.3-1.6,3.3-1.6,6.1v0.8c0,3.2,0.5,5.5,1.6,6.8
			c1.1,1.4,2.8,2.1,5.1,2.1c2,0,3.5-0.8,4.6-2.4c1.1-1.6,1.7-3.8,1.7-6.6c0-2.8-0.6-5-1.7-6.5S435.4,268.1,433.4,268.1z"/>
		<path class="st2" d="M468.9,276.9c0,3.7-0.9,6.6-2.8,8.7c-1.9,2.1-4.4,3.1-7.7,3.1c-2,0-3.8-0.5-5.4-1.4s-2.8-2.3-3.6-4.1
			c-0.9-1.8-1.3-3.9-1.3-6.2c0-3.7,0.9-6.6,2.8-8.6s4.4-3.1,7.7-3.1c3.2,0,5.7,1.1,7.6,3.2S468.9,273.3,468.9,276.9z M451.6,276.9
			c0,2.9,0.6,5.1,1.7,6.6c1.2,1.5,2.9,2.3,5.1,2.3s4-0.8,5.1-2.3s1.7-3.7,1.7-6.6c0-2.9-0.6-5.1-1.7-6.6s-2.9-2.2-5.2-2.2
			c-2.2,0-3.9,0.7-5.1,2.2C452.2,271.8,451.6,274,451.6,276.9z"/>
		<path class="st2" d="M485.3,265.2c1,0,1.9,0.1,2.7,0.2l-0.5,3.2c-0.9-0.2-1.8-0.3-2.5-0.3c-1.8,0-3.4,0.7-4.7,2.2
			c-1.3,1.5-2,3.3-2,5.6v12.2h-3.4v-22.7h2.8l0.4,4.2h0.2c0.8-1.5,1.9-2.6,3-3.4C482.5,265.6,483.8,265.2,485.3,265.2z"/>
		<path class="st2" d="M499.5,285.8c0.6,0,1.2,0,1.8-0.1c0.6-0.1,1-0.2,1.3-0.3v2.6c-0.4,0.2-0.9,0.3-1.6,0.4
			c-0.7,0.1-1.4,0.2-2,0.2c-4.4,0-6.6-2.3-6.6-6.9v-13.5h-3.2v-1.7l3.2-1.4l1.4-4.8h2v5.3h6.6v2.7h-6.6v13.3c0,1.4,0.3,2.4,1,3.1
			C497.5,285.5,498.4,285.8,499.5,285.8z"/>
		<path class="st2" d="M345,317.7c0,3.1-1,5.4-3.1,7.1c-2.1,1.6-5.1,2.5-9,2.5h-3.6v11.9h-3.5v-30.2h7.8
			C341.2,308.8,345,311.8,345,317.7z M329.3,324.2h3.2c3.1,0,5.4-0.5,6.8-1.5s2.1-2.6,2.1-4.8c0-2-0.7-3.5-2-4.5
			c-1.3-1-3.4-1.5-6.1-1.5h-3.9V324.2z"/>
		<path class="st2" d="M360.4,339.5c-3.4,0-6-1-7.9-3.1c-1.9-2-2.9-4.9-2.9-8.5c0-3.7,0.9-6.6,2.7-8.7c1.8-2.2,4.2-3.2,7.3-3.2
			c2.8,0,5.1,0.9,6.7,2.8c1.7,1.9,2.5,4.3,2.5,7.4v2.2h-15.6c0.1,2.7,0.7,4.7,2,6.1c1.3,1.4,3.1,2.1,5.4,2.1c2.4,0,4.9-0.5,7.2-1.5
			v3.1c-1.2,0.5-2.4,0.9-3.4,1.1C363.2,339.4,361.9,339.5,360.4,339.5z M359.4,318.9c-1.8,0-3.3,0.6-4.4,1.8
			c-1.1,1.2-1.7,2.8-1.9,4.9H365c0-2.2-0.5-3.8-1.4-5C362.6,319.5,361.2,318.9,359.4,318.9z"/>
		<path class="st2" d="M384.9,316c1,0,1.9,0.1,2.7,0.2l-0.5,3.2c-0.9-0.2-1.8-0.3-2.5-0.3c-1.8,0-3.4,0.7-4.7,2.2
			c-1.3,1.5-2,3.3-2,5.6v12.2h-3.4v-22.7h2.8l0.4,4.2h0.2c0.8-1.5,1.9-2.6,3-3.4C382.2,316.4,383.5,316,384.9,316z"/>
		<path class="st2" d="M402.1,319.1h-5.8v20h-3.4v-20h-4.1v-1.6l4.1-1.2V315c0-5.6,2.4-8.4,7.3-8.4c1.2,0,2.6,0.2,4.2,0.7l-0.9,2.8
			c-1.3-0.4-2.5-0.6-3.4-0.6c-1.3,0-2.3,0.4-2.9,1.3s-0.9,2.2-0.9,4.1v1.5h5.8V319.1z"/>
		<path class="st2" d="M425.8,327.7c0,3.7-0.9,6.6-2.8,8.7c-1.9,2.1-4.4,3.1-7.7,3.1c-2,0-3.8-0.5-5.4-1.4s-2.8-2.3-3.6-4.1
			c-0.9-1.8-1.3-3.9-1.3-6.2c0-3.7,0.9-6.6,2.8-8.6c1.8-2.1,4.4-3.1,7.7-3.1c3.2,0,5.7,1.1,7.6,3.2
			C424.8,321.3,425.8,324.1,425.8,327.7z M408.5,327.7c0,2.9,0.6,5.1,1.7,6.6c1.2,1.5,2.9,2.3,5.1,2.3c2.2,0,4-0.8,5.1-2.3
			c1.2-1.5,1.7-3.7,1.7-6.6c0-2.9-0.6-5.1-1.7-6.6c-1.2-1.5-2.9-2.2-5.2-2.2c-2.2,0-3.9,0.7-5.1,2.2
			C409.1,322.6,408.5,324.8,408.5,327.7z"/>
		<path class="st2" d="M442.1,316c1,0,1.9,0.1,2.7,0.2l-0.5,3.2c-0.9-0.2-1.8-0.3-2.5-0.3c-1.8,0-3.4,0.7-4.7,2.2
			c-1.3,1.5-2,3.3-2,5.6v12.2h-3.4v-22.7h2.8l0.4,4.2h0.2c0.8-1.5,1.9-2.6,3-3.4C439.4,316.4,440.7,316,442.1,316z"/>
		<path class="st2" d="M478,339.1v-14.8c0-1.8-0.4-3.2-1.2-4.1s-2-1.4-3.6-1.4c-2.1,0-3.7,0.6-4.7,1.8s-1.5,3.1-1.5,5.7v12.7h-3.4
			v-14.8c0-1.8-0.4-3.2-1.2-4.1s-2-1.4-3.6-1.4c-2.2,0-3.7,0.6-4.7,1.9c-1,1.3-1.5,3.4-1.5,6.3v11.9h-3.4v-22.7h2.8l0.6,3.1h0.2
			c0.6-1.1,1.6-2,2.7-2.6c1.2-0.6,2.5-0.9,4-0.9c3.5,0,5.9,1.3,7,3.8h0.2c0.7-1.2,1.7-2.1,2.9-2.8c1.3-0.7,2.7-1,4.4-1
			c2.6,0,4.5,0.7,5.8,2c1.3,1.3,1.9,3.4,1.9,6.3v14.8H478z"/>
		<path class="st2" d="M502.4,339.1l-0.7-3.2h-0.2c-1.1,1.4-2.3,2.4-3.4,2.9s-2.5,0.8-4.2,0.8c-2.2,0-4-0.6-5.3-1.7
			s-1.9-2.8-1.9-4.9c0-4.6,3.7-7,11-7.2l3.8-0.1v-1.4c0-1.8-0.4-3.1-1.1-3.9c-0.8-0.8-2-1.3-3.7-1.3c-1.9,0-4,0.6-6.4,1.7l-1.1-2.6
			c1.1-0.6,2.3-1.1,3.7-1.4c1.3-0.3,2.7-0.5,4-0.5c2.7,0,4.7,0.6,6,1.8c1.3,1.2,2,3.1,2,5.8v15.5H502.4z M494.7,336.7
			c2.1,0,3.8-0.6,5-1.8s1.8-2.8,1.8-4.9v-2l-3.4,0.1c-2.7,0.1-4.7,0.5-5.9,1.3c-1.2,0.8-1.8,1.9-1.8,3.5c0,1.2,0.4,2.2,1.1,2.8
			C492.3,336.3,493.3,336.7,494.7,336.7z"/>
		<path class="st2" d="M527.6,339.1v-14.7c0-1.8-0.4-3.2-1.3-4.1c-0.8-0.9-2.2-1.4-4-1.4c-2.4,0-4.1,0.6-5.2,1.9s-1.7,3.4-1.7,6.4
			v11.9h-3.4v-22.7h2.8l0.6,3.1h0.2c0.7-1.1,1.7-2,3-2.6c1.3-0.6,2.7-0.9,4.2-0.9c2.7,0,4.8,0.7,6.2,2c1.4,1.3,2.1,3.4,2.1,6.3v14.8
			H527.6z"/>
		<path class="st2" d="M547.1,339.5c-3.3,0-5.8-1-7.6-3c-1.8-2-2.7-4.9-2.7-8.6c0-3.8,0.9-6.7,2.7-8.8c1.8-2.1,4.4-3.1,7.8-3.1
			c1.1,0,2.2,0.1,3.3,0.4c1.1,0.2,1.9,0.5,2.6,0.8l-1.1,2.9c-0.8-0.3-1.6-0.6-2.5-0.8c-0.9-0.2-1.7-0.3-2.4-0.3
			c-4.6,0-6.9,2.9-6.9,8.8c0,2.8,0.6,4.9,1.7,6.4c1.1,1.5,2.8,2.2,5,2.2c1.9,0,3.8-0.4,5.8-1.2v3
			C551.3,339.1,549.4,339.5,547.1,339.5z"/>
		<path class="st2" d="M567.8,339.5c-3.4,0-6-1-7.9-3.1c-1.9-2-2.9-4.9-2.9-8.5c0-3.7,0.9-6.6,2.7-8.7c1.8-2.2,4.2-3.2,7.3-3.2
			c2.8,0,5.1,0.9,6.7,2.8s2.5,4.3,2.5,7.4v2.2h-15.6c0.1,2.7,0.7,4.7,2,6.1c1.3,1.4,3.1,2.1,5.4,2.1c2.4,0,4.9-0.5,7.2-1.5v3.1
			c-1.2,0.5-2.4,0.9-3.4,1.1C570.7,339.4,569.4,339.5,567.8,339.5z M566.9,318.9c-1.8,0-3.3,0.6-4.4,1.8c-1.1,1.2-1.7,2.8-1.9,4.9
			h11.9c0-2.2-0.5-3.8-1.4-5C570.1,319.5,568.7,318.9,566.9,318.9z"/>
	</g>
	<g>
		<path class="st3" d="M450,233.4c111.3,0,201.5,31.2,201.5,69.6s-90.2,69.6-201.5,69.6S248.5,341.4,248.5,303
			S338.7,233.4,450,233.4 M450,225.4c-54.7,0-106.2,7.4-145.1,20.8c-19.4,6.7-34.8,14.6-45.6,23.5c-12.5,10.2-18.8,21.4-18.8,33.3
			s6.3,23.1,18.8,33.3c10.9,8.9,26.2,16.8,45.6,23.5c38.9,13.4,90.4,20.8,145.1,20.8s106.2-7.4,145.1-20.8
			c19.4-6.7,34.8-14.6,45.6-23.5c12.5-10.2,18.8-21.4,18.8-33.3s-6.3-23.1-18.8-33.3c-10.9-8.9-26.2-16.8-45.6-23.5
			C556.2,232.8,504.7,225.4,450,225.4L450,225.4z"/>
	</g>
</g>
<linearGradient id="SVGID_1_" gradientUnits="userSpaceOnUse" x1="710.5778" y1="594.501" x2="642.396" y2="730.8647">
	<stop  offset="0" style="stop-color:#59699B"/>
	<stop  offset="1" style="stop-color:#809F83"/>
</linearGradient>
<path class="st4" d="M700,585.7l-8.2,25.7l2.9,0.1c-5.5,52.2-27,82.1-45.8,98.7l-1.5-2.2l-18,20.1l25.6-8.4l-1.8-2.7
	c20.2-17.4,43.7-49.3,49.4-105.1l3.1,0.1L700,585.7z"/>
<linearGradient id="SVGID_2_" gradientUnits="userSpaceOnUse" x1="187.5809" y1="592.4418" x2="258.793" y2="733.351">
	<stop  offset="0" style="stop-color:#59699B"/>
	<stop  offset="1" style="stop-color:#809F83"/>
</linearGradient>
<path class="st5" d="M250.6,710.2c-18.8-16.6-40.3-46.5-45.8-98.7l2.9-0.1l-8.2-25.7l-5.7,26.3l3.1-0.1
	c5.8,55.8,29.2,87.6,49.4,105.1l-1.8,2.7L270,728l-18-20.1L250.6,710.2z"/>
<path class="st3" d="M287.1,376.9c-24.5,32.2-34.9,61-39.4,80.9l-3.2-0.4l4,26.6l9.9-25.1l-2.7-0.3c4.4-19,14.5-46.1,37.6-76.7
	l2.3,1.9l11.3-24.4l-22,15.5L287.1,376.9z"/>
<linearGradient id="SVGID_3_" gradientUnits="userSpaceOnUse" x1="91.0068" y1="468.863" x2="244.0371" y2="65.8327">
	<stop  offset="0" style="stop-color:#59699B"/>
	<stop  offset="1" style="stop-color:#809F83"/>
</linearGradient>
<path class="st6" d="M138.3,290.6c21.1-86.8,59.6-154.2,114.5-200.5l1.7,2.3L271,71.1l-24.9,10.2l1.9,2.4
	c-56.4,47.4-95.9,116.3-117.5,205c-16.9,69.8-18.3,134.6-17.4,169.6l-3,0.2l8.4,25.6l5.6-26.4l-2.9,0.2
	C120.2,423.2,121.6,359.4,138.3,290.6z"/>
<path class="st3" d="M645,458.7l-2.7,0.3l9.9,25.1l4-26.6l-3.2,0.4c-4.5-19.9-15-48.7-39.4-80.9l2.3-1.9l-22-15.5l11.3,24.4l2.3-1.9
	C630.6,412.6,640.7,439.7,645,458.7z"/>
<linearGradient id="SVGID_4_" gradientUnits="userSpaceOnUse" x1="805.2437" y1="470.6797" x2="659.7892" y2="63.104">
	<stop  offset="0" style="stop-color:#59699B"/>
	<stop  offset="1" style="stop-color:#809F83"/>
</linearGradient>
<path class="st7" d="M787.6,458.3c0.9-35.1-0.4-99.8-17.4-169.6c-21.5-88.6-61-157.6-117.5-205l1.9-2.4l-24.9-10.2l16.5,21.3
	l1.7-2.3c54.9,46.3,93.5,113.7,114.5,200.5c16.7,68.8,18.1,132.6,17.2,167.3l-2.9-0.2l5.6,26.4l8.4-25.6L787.6,458.3z"/>
<linearGradient id="SVGID_5_" gradientUnits="userSpaceOnUse" x1="449.999" y1="384.6667" x2="449.999" y2="671.2867">
	<stop  offset="0" style="stop-color:#59699B"/>
	<stop  offset="1" style="stop-color:#809F83"/>
</linearGradient>
<polygon class="st8" points="457,406.1 450,380.1 443,406.1 446,406.1 446,647.5 443,647.5 450,673.5 457,647.5 454,647.5 
	454,406.1 "/>
<linearGradient id="SVGID_6_" gradientUnits="userSpaceOnUse" x1="449.999" y1="222.5455" x2="449.999" y2="128.6061">
	<stop  offset="0" style="stop-color:#59699B"/>
	<stop  offset="1" style="stop-color:#809F83"/>
</linearGradient>
<polygon class="st9" points="457,152.1 450,126.1 443,152.1 446,152.1 446,199.8 443,199.8 450,225.8 457,199.8 454,199.8 
	454,152.1 "/>
</svg>
