<?xml version="1.0" encoding="utf-8"?>
<!-- Generator: Adobe Illustrator 23.0.1, SVG Export Plug-In . SVG Version: 6.00 Build 0)  -->
<svg version="1.1" xmlns="http://www.w3.org/2000/svg" xmlns:xlink="http://www.w3.org/1999/xlink" x="0px" y="0px"
	 viewBox="0 0 151.2 64.8" style="enable-background:new 0 0 151.2 64.8;" xml:space="preserve">
<style type="text/css">
	.st0{fill:#6B513D;}
</style>
<g id="cast_iron_pan">
	<path class="st0" d="M103.78,47.62H59.95c0,0,0.71,1.04,0.86,1.27c0.58,0.91,1.03,1.84,1.43,2.81c-0.11-0.13-0.22-0.23-0.33-0.31
		c-0.37-0.02-3.12-0.15-5.85-0.96c-8.75-2.59-11.84-4.16-23.89-7.89c-16.12-5-28.58-2.02-28.58-2.02c0.4,3.16,3.69,4.93,3.69,4.93
		s6.57-2.06,18.76,0.75c6.99,1.61,28.36,9.29,31.63,10.15c3.33,0.87,5.78,1.24,6.84,1.43c0.42,1.04,0.9,2.14,1.51,3.33
		c1.03,2.01,3.21,2.01,3.21,2.01h34.54h34.54c0,0,2.18,0,3.21-2.01c2.67-5.26,3.08-8.86,5.22-12.21c0.15-0.23,0.86-1.27,0.86-1.27
		H103.78z"/>
</g>
<g id="pan_pasta_text">
	<g>
		<path class="st0" d="M79.13,20.42V1.69h8.66c1.25,0,2.31,0.49,3.17,1.48c0.88,0.99,1.32,2.18,1.32,3.57
			c0,1.45-0.44,2.69-1.32,3.73c-0.86,1.03-1.92,1.55-3.17,1.55h-7.37v8.4H79.13z M87.57,10.82c0.95,0,1.76-0.38,2.42-1.14
			c0.67-0.74,1-1.64,1-2.71c0-1.12-0.33-2.07-1-2.87c-0.67-0.78-1.48-1.17-2.42-1.17h-7.14v7.89H87.57z"/>
		<path class="st0" d="M93.48,20.42l7.6-18.72h1.62l7.5,18.72h-1.49l-2.46-6h-8.86l-2.46,6H93.48z M105.76,13.22l-3.94-10.07
			l-4.04,10.07H105.76z"/>
		<path class="st0" d="M113.6,20.42V1.69h1.78l11.57,17.17V1.69h1.29v18.72h-1.78L114.89,3.49v16.92H113.6z"/>
	</g>
	<g>
		<path class="st0" d="M66.64,42.93V25.11h8.25c1.19,0,2.19,0.47,3.02,1.41c0.84,0.94,1.26,2.07,1.26,3.4
			c0,1.38-0.42,2.56-1.26,3.55c-0.82,0.98-1.83,1.47-3.02,1.47h-7.01v7.99H66.64z M74.67,33.79c0.9,0,1.67-0.36,2.31-1.08
			c0.64-0.7,0.95-1.56,0.95-2.58c0-1.06-0.32-1.97-0.95-2.73c-0.64-0.74-1.41-1.11-2.31-1.11h-6.8v7.51H74.67z"/>
		<path class="st0" d="M79.63,42.93l7.23-17.82h1.54l7.14,17.82h-1.41l-2.34-5.71h-8.43l-2.34,5.71H79.63z M91.33,36.08l-3.75-9.59
			l-3.85,9.59H91.33z"/>
		<path class="st0" d="M98.89,41.64c-1.25-1.14-1.88-2.53-1.88-4.18h1.23c0,1.32,0.5,2.45,1.51,3.4c1,0.94,2.22,1.41,3.63,1.41
			c1.54,0,2.86-0.4,3.97-1.2c1.09-0.8,1.63-1.77,1.63-2.91c0-0.98-0.48-1.8-1.45-2.46c-0.94-0.66-2.22-1.06-3.82-1.2
			c-1.95-0.16-3.51-0.7-4.68-1.62c-1.17-0.92-1.75-2.05-1.75-3.4c0-1.32,0.59-2.45,1.78-3.4c1.19-0.94,2.63-1.41,4.31-1.41
			c1.8,0,3.35,0.49,4.65,1.47c1.27,0.98,1.91,2.16,1.91,3.55h-1.23c0-1.06-0.52-1.97-1.57-2.73c-1.03-0.76-2.28-1.14-3.75-1.14
			c-1.33,0-2.48,0.36-3.45,1.08c-0.94,0.7-1.42,1.56-1.42,2.58c0,1,0.49,1.84,1.48,2.52c1,0.68,2.33,1.09,3.97,1.23
			c1.89,0.16,3.4,0.69,4.55,1.59c1.13,0.9,1.69,2.01,1.69,3.33c0,1.44-0.67,2.67-2,3.7c-1.33,1.02-2.94,1.53-4.83,1.53
			C101.61,43.38,100.12,42.8,98.89,41.64z"/>
		<path class="st0" d="M117.34,42.93V26.28h-6.25v-1.17h13.78v1.17h-6.31v16.65H117.34z"/>
		<path class="st0" d="M124.83,42.93l7.23-17.82h1.54l7.14,17.82h-1.42l-2.34-5.71h-8.43l-2.34,5.71H124.83z M136.52,36.08
			l-3.75-9.59l-3.85,9.59H136.52z"/>
	</g>
</g>
</svg>
