<?xml version="1.0" encoding="utf-8"?>
<!-- Generator: Adobe Illustrator 22.0.1, SVG Export Plug-In . SVG Version: 6.00 Build 0)  -->
<svg version="1.1" id="Layer_1" xmlns="http://www.w3.org/2000/svg" xmlns:xlink="http://www.w3.org/1999/xlink" x="0px" y="0px"
	 viewBox="0 0 684 216" style="enable-background:new 0 0 684 216;" xml:space="preserve">
<style type="text/css">
	.st0{fill:#42A960;}
	.st1{fill:#9FD5B5;}
	.st2{fill:url(#SVGID_1_);}
	.st3{fill:#076324;}
	.st4{fill:#042E6F;}
</style>
<polygon class="st0" points="408.4,4.8 246.3,54.6 269.7,66.7 408.4,24 620.4,89.2 683,89.2 "/>
<polygon class="st1" points="246.3,83.6 156.9,37.2 67.2,83.6 77.6,83.6 156.9,42.6 236.1,83.6 246.5,83.6 "/>
<polygon class="st0" points="408.4,33.8 281.5,72.8 284.1,77.6 408.4,39.4 581.5,92.6 588.7,89.2 "/>
<polygon class="st1" points="284.1,74.1 281.5,72.8 269.7,66.7 246.3,54.6 156.9,8.2 1.4,88.8 41.4,88.8 156.9,28.9 221.2,62.3 
	244.5,74.4 256.3,80.5 257.6,81.2 272.3,88.8 312.3,88.8 "/>
<path class="st1" d="M145.7,64.3v18.2h21.4V64.3H145.7z M163,79h-13.1V67.8H163V79z"/>
<path class="st0" d="M398.1,64.3v18.2h21.4V64.3H398.1z M415.4,79h-13.1V67.8h13.1V79z"/>
<linearGradient id="SVGID_1_" gradientUnits="userSpaceOnUse" x1="338.821" y1="210.4413" x2="338.821" y2="163.2507">
	<stop  offset="0" style="stop-color:#9FD5B5"/>
	<stop  offset="0.6112" style="stop-color:#9FD5B5;stop-opacity:0"/>
</linearGradient>
<rect x="37.9" y="105.8" class="st2" width="601.9" height="103.5"/>
<g>
	<path class="st3" d="M73.4,155.4c0,0.3-0.5,1.2-1.4,2.7c-0.2,0.6-0.7,1.6-1.5,2.9c-0.2,0.3-0.5,0.5-0.7,0.5H28.4
		c-0.3,0-0.5-0.1-0.5-0.4v-1.4c0-0.3,0.1-0.4,0.4-0.4h6.5c0.5,0,0.8-0.3,0.8-0.9c0-0.3,0-2-0.1-5.3c-0.1-3.2-0.1-10.4,0-21.5
		c0.1-11.1,0.2-17,0.2-17.5c0-6.2-0.6-9.2-1.7-9.2h-4.9c-0.4,0-0.6-0.2-0.6-0.5V103c0-0.3,0.2-0.5,0.5-0.5h23.5
		c0.3,0,0.4,0.1,0.4,0.3v1.5c0,0.3-0.1,0.4-0.3,0.4h-8.7c-0.4,0-0.7,0.2-0.8,0.6c-0.1,0.4-0.2,7.5-0.4,21.2
		c-0.2,12.9-0.3,20.3-0.3,22.1c0,6.7,0.8,10,2.3,10c9.4,0,14.7-0.1,16.1-0.2c4.5-0.4,8.1-1.4,10.9-3.1c0.7-0.4,1.1-0.6,1.3-0.6
		C73.2,154.9,73.4,155.2,73.4,155.4z"/>
	<path class="st3" d="M96.3,161.1c0,0.3-0.2,0.4-0.5,0.4H75.1c-0.3,0-0.4-0.2-0.4-0.5v-1.3c0-0.4,0.1-0.6,0.3-0.6h6.3
		c0.5,0,0.8-0.3,0.8-0.9c0-0.2,0-3.7,0-10.5c0-6.8,0-10.6,0-11.4c0-4.5,0-7.2-0.1-8.1c-0.3-2.7-1.1-4-2.3-4h-4.3
		c-0.5,0-0.7-0.1-0.7-0.4v-1.5c0-0.4,0.1-0.6,0.4-0.6h2.6c2.7,0,5.3-0.1,7.8-0.3c1.9-0.2,2.7-0.3,2.6-0.3c0.7,0,1,0.5,1,1.3
		c0,0.1-0.1,4.4-0.3,12.9c-0.2,8.5-0.3,13-0.3,13.4c0,6.9,0.7,10.4,2.1,10.4h5.3c0.3,0,0.4,0.1,0.4,0.4V161.1z M89.1,106.1
		c0,1.5-0.7,2.9-2.1,4.1c-1.2,1-2.3,1.5-3.3,1.5c-1.9,0-2.9-0.9-2.9-2.8c0-1.1,0.5-2.3,1.4-3.4c1.2-1.4,2.6-2.1,4.3-2.1
		C88.3,103.4,89.1,104.3,89.1,106.1z"/>
	<path class="st3" d="M120.6,161.2c0,0.2-0.2,0.3-0.5,0.3H98.6c-0.4,0-0.6-0.1-0.6-0.4v-1.5c0-0.3,0.2-0.5,0.5-0.5h7.1
		c0.6,0,0.9-0.3,0.9-1v-48.2c0-6.4-0.6-9.6-1.7-9.6h-5.3c-0.3,0-0.5-0.2-0.5-0.5v-1.4c0-0.4,0.1-0.6,0.3-0.6h3.4
		c2,0,4.2-0.3,6.4-0.9c2.2-0.6,3.2-0.9,2.9-0.9c0.5,0,0.8,0.4,0.8,1.3c0,0.1-0.1,8.7-0.3,25.8c-0.2,17.1-0.3,25.9-0.3,26.5
		c0,6.4,0.5,9.6,1.6,9.6h6.3c0.3,0,0.5,0.1,0.5,0.4V161.2z"/>
	<path class="st3" d="M202.3,136c0,0.4-0.2,0.6-0.5,0.6h-6.2c-0.3,0-0.5,0.2-0.5,0.5c0-0.2,0,0.7-0.1,2.8c-0.1,2.1-0.1,4.1-0.1,6.1
		c0,3.6,0.1,6.9,0.3,9.9c0,0.4-0.2,0.6-0.5,0.7c-1,0-3.1,0.8-6.4,2.3c-5,2.2-10.2,3.3-15.8,3.3c-6.3,0-10.7-0.5-13.2-1.5
		c-4.7-1.9-8.4-4.7-11.1-8.6c-3-4.3-4.5-10.3-4.5-17.9c0-7.5,2.4-14.3,7.3-20.3c3.5-4.3,8.7-7.5,15.8-9.7c3.9-1.2,8.8-1.8,14.9-1.8
		c6.3,0,11,0.5,14.1,1.6c0.3,0.1,0.5,0.3,0.5,0.6c0,0.1-0.1,0.8-0.2,2c-0.2,1.3-0.3,2.1-0.3,2.3c-0.3,3-0.5,4.7-0.6,5.2
		c-0.1,0.3-0.2,0.5-0.5,0.5c-0.4,0-0.6-0.1-0.6-0.4c0-0.7-0.1-1.4-0.3-2c-0.3-1.1-1.1-2.1-2.3-2.9c-3.4-2.2-8.5-3.3-15.3-3.3
		c-3.8,0-6.9,0.4-9.4,1.3c-3.3,1.2-6.3,3.3-9.2,6.3c-4.6,5-6.9,11.3-6.9,19c0,8.5,2.5,15.2,7.4,20.1c2.8,2.8,6,4.7,9.6,5.7
		c2.4,0.6,5.6,1,9.6,1c3.6,0,7-1.1,10.4-3.4c0.3-0.3,0.4-0.6,0.4-0.8v-7.7c0-2.8,0-4.7-0.1-5.8c-0.2-3.5-0.5-5.2-0.9-5.2h-9.3
		c-0.3,0-0.5-0.3-0.5-0.8v-0.9c0-0.4,0.2-0.7,0.6-0.7h24c0.4,0,0.6,0.2,0.6,0.6V136z"/>
	<path class="st3" d="M236.7,125.7c-0.3,1.9-0.8,3.7-1.3,5.4c-0.1,0.5-0.3,0.7-0.6,0.7c-0.3,0-0.6-0.1-0.8-0.4
		c-0.8-1.1-1.4-1.8-2-2.2c-1.1-0.9-2.6-1.3-4.3-1.3c-3.3,0-5.7,0.7-7.4,2.1c-0.3,0.3-0.4,0.7-0.4,1.2c0,0.2,0,3.5,0,10
		c0,6.5,0,10,0,10.3c0,5.2,0.5,7.7,1.4,7.7h8.5c0.4,0,0.6,0.2,0.6,0.6v1.3c0,0.3-0.1,0.4-0.4,0.4h-22.2c-0.4,0-0.6-0.1-0.6-0.4v-1.3
		c0-0.4,0.2-0.6,0.5-0.6h5.3c0.5,0,0.8-0.3,0.8-0.8v-28.5c0-4-0.5-5.9-1.4-5.9h-5.3c-0.3,0-0.4-0.2-0.4-0.5V122
		c0-0.3,0.1-0.5,0.4-0.5h5.9c2.1,0,3.4-0.1,4-0.3c1.6-0.5,2.5-0.7,2.6-0.7c0.4,0,0.6,0.4,0.6,1.2c0,0.2,0,1.1-0.1,2.6
		c-0.1,1.5-0.1,2.4-0.1,2.5c0,0.8,0.2,1.1,0.5,0.7c1.3-1.2,2.9-2.4,4.6-3.8c2.1-1.6,4.2-2.3,6.2-2.3c2.3,0,4.2,1,5.4,3
		C236.8,124.8,236.8,125.2,236.7,125.7z"/>
	<path class="st3" d="M274.2,155.6c0,0.1,0,0.1-0.1,0.3c-0.9,0.9-1.7,1.6-2.3,2c-1.1,0.8-2.5,1.5-4.3,2.3c-2.9,1.3-6.1,2-9.5,2
		c-5.1,0-9.2-1.5-12.2-4.5c-3.7-3.7-5.5-8.1-5.5-13.4c0-3.8,0.2-6.5,0.6-8.3c1-4.3,2.8-7.7,5.3-10.2c3-2.9,6.6-4.4,10.9-4.4
		c2.1,0,3.8,0.3,5.1,1c1,0.5,2.7,1.6,5,3.2c2.7,1.9,4.6,4,5.5,6c0.2,0.5,0.3,1,0.3,1.3c0,0.3-0.3,0.6-0.8,0.8
		c-1.1,0.4-4.3,1.1-9.7,2.1c-6.1,1.1-10.2,1.7-12.2,1.7c-0.2,0-0.9,0-2.1,0c-1.2,0-1.9,0-2.1,0c-0.3,0-0.5,0.7-0.5,2
		c0,6,2.2,10.9,6.6,14.7c2.3,2,6.2,3,11.6,3c2.8,0,5-0.3,6.8-0.9c1.2-0.4,2.1-0.8,2.6-1.3c0.1-0.1,0.2-0.1,0.4-0.2
		c0.1,0,0.3,0.1,0.3,0.3C274.1,155.4,274.1,155.5,274.2,155.6z M266.1,132.4c0-0.2-0.1-0.6-0.4-1.1c-1.2-2.2-2.8-4-4.7-5.5
		c-1.9-1.4-4.1-2.2-6.5-2.2c-1.8,0-3.6,1.1-5.3,3.3c-0.6,0.8-1.3,2.1-2,3.9c-0.8,1.9-1.1,3.3-1.1,4.3c0,0.5,0.2,0.7,0.5,0.7
		c-0.3,0,2.2-0.2,7.5-0.6c5-0.4,8.8-1.1,11.3-2C265.8,133,266.1,132.8,266.1,132.4z"/>
	<path class="st3" d="M312.3,155.6c0,0.1,0,0.1-0.1,0.3c-0.9,0.9-1.7,1.6-2.3,2c-1.1,0.8-2.5,1.5-4.3,2.3c-2.9,1.3-6.1,2-9.5,2
		c-5.1,0-9.1-1.5-12.2-4.5c-3.7-3.7-5.5-8.1-5.5-13.4c0-3.8,0.2-6.5,0.6-8.3c1-4.3,2.8-7.7,5.3-10.2c3-2.9,6.6-4.4,10.9-4.4
		c2.1,0,3.8,0.3,5.1,1c1,0.5,2.7,1.6,5,3.2c2.7,1.9,4.6,4,5.5,6c0.2,0.5,0.3,1,0.3,1.3c0,0.3-0.3,0.6-0.8,0.8
		c-1.1,0.4-4.3,1.1-9.7,2.1c-6.1,1.1-10.2,1.7-12.2,1.7c-0.2,0-0.9,0-2.1,0c-1.2,0-1.9,0-2.1,0c-0.3,0-0.5,0.7-0.5,2
		c0,6,2.2,10.9,6.6,14.7c2.3,2,6.2,3,11.6,3c2.8,0,5-0.3,6.8-0.9c1.2-0.4,2.1-0.8,2.6-1.3c0.1-0.1,0.2-0.1,0.4-0.2
		c0.1,0,0.3,0.1,0.3,0.3C312.2,155.4,312.2,155.5,312.3,155.6z M304.2,132.4c0-0.2-0.1-0.6-0.4-1.1c-1.2-2.2-2.8-4-4.7-5.5
		c-1.9-1.4-4.1-2.2-6.5-2.2c-1.8,0-3.6,1.1-5.3,3.3c-0.6,0.8-1.3,2.1-2,3.9c-0.8,1.9-1.1,3.3-1.1,4.3c0,0.5,0.2,0.7,0.5,0.7
		c-0.3,0,2.2-0.2,7.5-0.6c5-0.4,8.8-1.1,11.3-2C303.9,133,304.2,132.8,304.2,132.4z"/>
	<path class="st3" d="M360.3,161c0,0.3-0.1,0.5-0.3,0.5h-18.3c-0.3,0-0.4-0.1-0.4-0.3v-1.5c0-0.3,0.1-0.4,0.4-0.4h4.6
		c0.4,0,0.6-0.2,0.8-0.7c0.4-3,0.6-9.8,0.6-20.2c0-4.9-0.7-8-2.2-9.4c-1.5-1.4-3.8-2.1-6.8-2.1c-3.9,0-7.1,0.9-9.6,2.6
		c-0.4,0.3-0.6,0.6-0.6,1.1c-0.2,1.2-0.3,7.8-0.3,19.7c0,6.1,0.4,9.1,1.3,9.1h6c0.3,0,0.4,0.1,0.4,0.4v1.5c0,0.2-0.1,0.3-0.4,0.3
		h-19.5c-0.1,0-0.3,0-0.3-0.1c-0.1-0.1-0.1-0.2-0.1-0.4v-1.4c0-0.2,0.1-0.3,0.4-0.3h5.5c0.4,0,0.7-0.3,0.7-0.8c0-0.2,0-4.8,0.1-13.9
		c0.1-9.1,0.1-13.8,0.1-14.3c0-4.3-0.4-6.5-1.3-6.5h-5.3c-0.3,0-0.5-0.2-0.5-0.6v-1.3c0-0.3,0.1-0.4,0.3-0.4h5.6
		c0.3,0,1.1,0,2.3-0.1c1.2-0.1,1.8-0.1,1.9-0.1c0.3,0,0.7-0.1,1.3-0.2c0.6-0.1,1-0.2,1.3-0.2c0.4,0,0.6,0.3,0.6,1
		c0,0.1,0,0.9-0.1,2.3c-0.1,1.4-0.1,2.1-0.1,2.3c0,0.9,0.2,1.2,0.5,0.8c2.5-2,4.9-3.5,7.2-4.6c2.2-1,4.3-1.4,6.3-1.4
		c3.1,0,5.7,1,7.7,3c2.2,2.1,3.3,6.1,3.3,12c0,1.9-0.1,5.2-0.3,9.8c-0.2,4.6-0.3,6.9-0.3,6.8c0,4.2,0.3,6.3,0.9,6.3h5.9
		c0.3,0,0.5,0.1,0.5,0.3V161z"/>
</g>
<g>
	<path class="st4" d="M447.8,160.9c0,0.3-0.1,0.5-0.3,0.5h-22.4c-0.4,0-0.6-0.1-0.6-0.4v-1.4c0-0.3,0.2-0.4,0.7-0.4h6.3
		c0.5,0,0.8-0.1,1-0.4c0.1-0.3,0.2-1.2,0.2-2.8c0.1-3.2,0.1-11.1,0.1-23.9c0-0.5-0.2-0.8-0.7-0.8h-30.5c-0.5,0-0.8,0.3-0.8,1
		c0,9.4,0,15.1,0.1,17.3c0.2,6.5,0.8,9.7,2,9.7h7.3c0.2,0,0.3,0.2,0.3,0.5v1.3c0,0.3-0.1,0.4-0.3,0.4h-22.5c-0.3,0-0.5-0.1-0.5-0.4
		v-1.3c0-0.3,0.2-0.5,0.5-0.5h5.4c0.7,0,1.1-0.1,1.2-0.4c0.1-0.3,0.2-1.2,0.2-2.8c0-0.5,0-4.4-0.1-11.8c-0.1-7.4-0.1-11.5-0.1-12.3
		c0-0.8,0-3.9-0.1-9.4c-0.1-5.5-0.1-8.4-0.1-8.8c0-5.9-0.5-8.8-1.4-8.8h-6.1c-0.3,0-0.5-0.1-0.5-0.4v-1.4c0-0.3,0.2-0.4,0.5-0.4
		h22.1c0.3,0,0.5,0.2,0.5,0.7v1.2c0,0.3-0.2,0.4-0.5,0.4h-6.5c-0.7,0-1,0.1-1.2,0.2c-0.1,0.1-0.2,0.4-0.2,1c0,15.4,0,22.4-0.1,21
		c0,0.7,0.3,1,0.7,1h30.5c0.5,0,0.7-0.3,0.7-0.8c0-0.2,0-2.5,0-6.9c0-4.4,0-6.8,0-7.3c0-5.4-0.6-8.1-1.7-8.1h-6.7
		c-0.3,0-0.4-0.2-0.4-0.5v-1.3c0-0.3,0.2-0.4,0.6-0.4h22.2c0.4,0,0.6,0.2,0.6,0.7v1.1c0,0.3-0.2,0.5-0.6,0.5h-5.7
		c-0.8,0-1.3,0.1-1.5,0.2c-0.1,0.1-0.2,0.6-0.2,1.4v23.6c0,11.7,0,18.5,0.1,20.4c0.2,5.9,0.8,8.8,1.7,8.8h6.3c0.3,0,0.5,0.2,0.5,0.5
		V160.9z"/>
	<path class="st4" d="M491.3,141.3c0,3.8-0.6,7.1-1.9,10.1c-1.4,3.4-4.1,6.2-7.9,8.3c-2.6,1.5-5.7,2.2-9.2,2.2c-3.9,0-6.7-0.3-8.4-1
		c-3.5-1.6-6.2-4.1-8-7.8c-1.8-3.6-2.7-7.4-2.7-11.5c0-4.5,1-8.4,2.9-11.8c1.8-3.1,4.3-5.4,7.5-7c2.5-1.2,6-1.9,10.6-1.9
		c3.7,0,6.6,0.7,8.8,2c2.8,1.8,4.9,4.3,6.3,7.6C490.7,133.6,491.3,137.2,491.3,141.3z M485.2,143.4c0-6-1.4-10.7-4.3-14.1
		c-2.9-3.5-6.7-5.3-11.5-5.3c-2.5,0-4.1,0.2-5,0.6c-0.6,0.3-1.3,0.9-2.1,2c-1.7,2.5-2.6,6.2-2.6,11.1c0,5.1,0.9,9.8,2.7,14.1
		c1.3,2.9,3,5,5.1,6.3c1.9,1.1,3.9,1.7,6.2,1.7c2.6,0,4.6-0.4,6-1.2c1.7-1,3.1-3,4.2-5.8C484.8,150.7,485.2,147.5,485.2,143.4z"/>
	<path class="st4" d="M537.9,159.6c0,0.3-0.1,0.5-0.4,0.6c-0.7,0.3-1.6,0.7-2.7,1.2c-0.3,0.2-0.7,0.5-1.3,0.9
		c-0.2,0.2-0.4,0.3-0.8,0.3c0.1,0-0.3-0.2-1.2-0.7c-1.5-1-2.8-3.1-3.7-6.5c-0.1-0.5-0.4-0.5-0.9-0.2c-1,0.8-3.6,2.5-8,5
		c-1.8,1.1-4.8,1.6-9,1.6c-2.4,0-4.3-1-5.8-3.1c-1.4-1.9-2-4.2-2-6.8v-17.2c0-7.3-0.6-10.9-1.8-10.9h-5.2c-0.4,0-0.6-0.1-0.6-0.4
		v-1.4c0-0.3,0.1-0.4,0.3-0.4h5.3c0.1,0,0.9-0.1,2.2-0.2c1.3-0.1,2.1-0.2,2.3-0.2c2.1-0.2,3.1-0.3,2.8-0.3c0.5,0,0.7,0.4,0.7,1.2
		c0,0.1,0,4.5-0.1,13.3c-0.1,8.8-0.1,13.6-0.1,14.3c0,2.7,0.6,4.6,1.8,5.6c1,0.9,2.8,1.4,5.3,1.4c2.5,0,6.4-1.2,11.8-3.6
		c0.3,0,0.4-0.2,0.4-0.7v-22.3c0-4-0.6-6-1.8-6h-5.2c-0.3,0-0.5-0.1-0.5-0.4v-1.4c0-0.3,0.1-0.4,0.3-0.4h5.6c1.8,0,3.3-0.1,4.5-0.3
		c1.7-0.2,2.5-0.3,2.6-0.3c0.4,0,0.6,0.4,0.6,1.3c0,0.1,0,4.7-0.1,13.7c-0.1,9-0.1,13.7-0.1,14.2c0,4.1,1.3,7,4,8.6
		C537.7,159.1,537.9,159.4,537.9,159.6z"/>
	<path class="st4" d="M573.3,150.2c0,3.2-0.9,5.8-2.6,7.9c-2.2,2.6-5.9,3.9-11,3.9c-5.5,0-10.2-1.5-14-4.5c-0.4-0.3-0.6-0.9-0.6-1.9
		c-0.1-1.2-0.2-3.7-0.2-7.6c0-0.5,0.2-0.8,0.7-0.8c0.5,0,0.8,0.2,0.9,0.6c0,0.1,0.1,0.5,0.3,1.2c0.2,0.8,0.4,1.4,0.4,1.7
		c0.7,2.5,2.1,5,4.1,7.5c0.5,0.6,1,1,1.4,1.1c1.4,0.2,3.6,0.3,6.8,0.3c3.1,0,5.6-0.8,7.4-2.4c1.4-1.2,2.1-3,2.1-5.2
		c0-1.3-0.5-2.4-1.6-3.4c-1.5-1.3-3.4-2.2-5.8-2.7c-0.3-0.1-1.1-0.4-2.5-0.9c-1.4-0.5-2.3-0.8-2.6-0.9c-3.4-1.5-5.8-2.9-7.3-4.4
		c-2.1-2-3.1-4.6-3.1-7.8c0-2.6,0.9-4.8,2.7-6.8c2.3-2.4,5.7-3.6,10.1-3.6c5.4,0,9.4,1.3,12,4c0.2,0.2,0.3,0.6,0.3,1v6.3
		c0,0.6-0.1,1-0.4,1c-0.3,0-0.6-0.2-0.8-0.5c-1.1-2.4-2.3-5-3.6-7.8c-0.3-0.5-0.6-0.8-1-0.8c-1.3-0.3-3.3-0.5-5.9-0.5
		c-2.5,0-4.6,0.5-6.2,1.4c-1.9,1.1-2.8,2.7-2.8,4.8c0,3.4,2.4,5.8,7.1,7.2c1.4,0.4,3.6,1.1,6.4,2c2.7,0.9,4.8,2.1,6.3,3.5
		C572.3,144.8,573.3,147.2,573.3,150.2z"/>
	<path class="st4" d="M613.2,155.5c0,0.1,0,0.1-0.1,0.3c-0.9,0.9-1.7,1.6-2.3,2c-1.1,0.8-2.5,1.5-4.3,2.3c-2.9,1.3-6.1,2-9.5,2
		c-5.1,0-9.1-1.5-12.2-4.5c-3.7-3.7-5.5-8.2-5.5-13.4c0-3.8,0.2-6.5,0.6-8.3c1-4.3,2.8-7.7,5.3-10.2c3-2.9,6.6-4.4,10.9-4.4
		c2.1,0,3.8,0.3,5.1,1c1,0.5,2.7,1.6,5,3.2c2.7,1.9,4.6,4,5.5,6c0.2,0.5,0.3,1,0.3,1.3c0,0.3-0.3,0.6-0.8,0.8
		c-1.1,0.4-4.3,1.1-9.7,2.1c-6.1,1.1-10.2,1.7-12.2,1.7c-0.2,0-0.9,0-2.1,0c-1.2,0-1.9,0-2.1,0c-0.3,0-0.5,0.7-0.5,2
		c0,6,2.2,10.9,6.6,14.7c2.3,2,6.2,3,11.6,3c2.8,0,5-0.3,6.8-0.9c1.2-0.4,2.1-0.8,2.6-1.3c0.1-0.1,0.2-0.1,0.4-0.2
		c0.1,0,0.3,0.1,0.3,0.3C613.1,155.3,613.1,155.4,613.2,155.5z M605.1,132.3c0-0.2-0.1-0.6-0.4-1.1c-1.2-2.2-2.8-4-4.7-5.5
		c-1.9-1.4-4.1-2.2-6.5-2.2c-1.8,0-3.6,1.1-5.3,3.3c-0.6,0.8-1.3,2.1-2,3.9c-0.8,1.9-1.1,3.3-1.1,4.3c0,0.5,0.2,0.7,0.5,0.7
		c-0.3,0,2.2-0.2,7.5-0.6c5-0.4,8.8-1.1,11.3-2C604.8,132.9,605.1,132.6,605.1,132.3z"/>
	<path class="st4" d="M646.6,150.2c0,3.2-0.9,5.8-2.6,7.9c-2.2,2.6-5.9,3.9-11,3.9c-5.5,0-10.2-1.5-14-4.5c-0.4-0.3-0.6-0.9-0.6-1.9
		c-0.1-1.2-0.2-3.7-0.2-7.6c0-0.5,0.2-0.8,0.7-0.8c0.5,0,0.8,0.2,0.9,0.6c0,0.1,0.1,0.5,0.3,1.2c0.2,0.8,0.4,1.4,0.4,1.7
		c0.7,2.5,2.1,5,4.1,7.5c0.5,0.6,1,1,1.4,1.1c1.4,0.2,3.6,0.3,6.8,0.3c3.1,0,5.6-0.8,7.4-2.4c1.4-1.2,2.1-3,2.1-5.2
		c0-1.3-0.5-2.4-1.6-3.4c-1.5-1.3-3.4-2.2-5.8-2.7c-0.3-0.1-1.1-0.4-2.5-0.9c-1.4-0.5-2.3-0.8-2.6-0.9c-3.4-1.5-5.8-2.9-7.3-4.4
		c-2.1-2-3.1-4.6-3.1-7.8c0-2.6,0.9-4.8,2.7-6.8c2.3-2.4,5.7-3.6,10.1-3.6c5.4,0,9.4,1.3,12,4c0.2,0.2,0.3,0.6,0.3,1v6.3
		c0,0.6-0.1,1-0.4,1c-0.3,0-0.6-0.2-0.8-0.5c-1.1-2.4-2.3-5-3.6-7.8c-0.3-0.5-0.6-0.8-1-0.8c-1.3-0.3-3.3-0.5-5.9-0.5
		c-2.5,0-4.6,0.5-6.2,1.4c-1.9,1.1-2.8,2.7-2.8,4.8c0,3.4,2.4,5.8,7.1,7.2c1.4,0.4,3.6,1.1,6.4,2c2.7,0.9,4.8,2.1,6.3,3.5
		C645.7,144.8,646.6,147.2,646.6,150.2z"/>
</g>
</svg>
