<?xml version="1.0" encoding="utf-8"?>
<!-- Generator: Adobe Illustrator 25.2.0, SVG Export Plug-In . SVG Version: 6.00 Build 0)  -->
<svg version="1.1" id="Layer_1" xmlns="http://www.w3.org/2000/svg" xmlns:xlink="http://www.w3.org/1999/xlink" x="0px" y="0px"
	 viewBox="0 0 234 72" style="enable-background:new 0 0 234 72;" xml:space="preserve">
<style type="text/css">
	.st0{fill:#478BE3;}
</style>
<g>
	<polygon class="st0" points="56.5,25.8 29.7,72 83.1,72 	"/>
	<polygon class="st0" points="53.1,20 41.5,0 0,72 23,72 	"/>
</g>
<g>
	<path d="M112,26.7h-9.3v25.9H97V26.7h-9.3V22H112V26.7z"/>
	<path d="M115.8,34.7c0.7-1.3,1.4-2.3,2.4-3c1-0.7,2-1.1,3.3-1.1c1,0,1.8,0.2,2.4,0.6l-0.4,4c-0.1,0.2-0.1,0.5-0.4,0.5
		c-0.1,0.1-0.4,0.1-0.5,0.1c-0.2,0-0.5,0-1-0.1c-0.4-0.1-0.8-0.1-1.2-0.1c-0.6,0-1.1,0.1-1.6,0.2c-0.5,0.1-0.8,0.4-1.2,0.7
		c-0.4,0.4-0.7,0.7-1,1.2c-0.2,0.5-0.5,1-0.7,1.6v13.4h-5.2V30.9h3.1c0.5,0,1,0.1,1.1,0.2c0.1,0.1,0.4,0.5,0.5,1.1L115.8,34.7z"/>
	<path d="M132.8,24.6c0,0.5-0.1,0.8-0.2,1.3c-0.2,0.4-0.5,0.7-0.7,1.1c-0.4,0.2-0.6,0.5-1.1,0.7c-0.4,0.1-0.8,0.2-1.3,0.2
		c-0.5,0-0.8-0.1-1.3-0.2c-0.4-0.1-0.7-0.4-1.1-0.7c-0.2-0.2-0.5-0.6-0.7-1.1c-0.1-0.4-0.2-0.8-0.2-1.3c0-0.5,0.1-1,0.2-1.3
		c0.1-0.4,0.4-0.7,0.7-1.1c0.2-0.2,0.6-0.5,1.1-0.7c0.4-0.1,0.8-0.2,1.3-0.2c0.5,0,1,0.1,1.3,0.2s0.7,0.4,1.1,0.7
		c0.4,0.2,0.6,0.6,0.7,1.1C132.7,23.7,132.8,24.1,132.8,24.6z M132.1,30.9v21.7h-5.3V30.9C126.8,30.9,132.1,30.9,132.1,30.9z"/>
	<path d="M136.9,34c2.5-2.3,5.5-3.5,9-3.5c1.3,0,2.4,0.2,3.4,0.6c1,0.4,1.8,1,2.5,1.7c0.7,0.7,1.2,1.7,1.6,2.6
		c0.4,1,0.5,2.2,0.5,3.4v13.7h-2.4c-0.5,0-0.8-0.1-1.2-0.2c-0.4-0.1-0.5-0.5-0.6-0.8l-0.5-1.6c-0.6,0.5-1.1,1-1.6,1.3
		c-0.5,0.4-1.1,0.7-1.7,1c-0.6,0.2-1.2,0.5-1.8,0.6S142.8,53,142,53c-1,0-1.8-0.1-2.5-0.4s-1.4-0.6-2-1.1s-1-1.1-1.3-1.8
		c-0.4-0.7-0.5-1.6-0.5-2.5c0-0.6,0.1-1.1,0.2-1.7c0.2-0.6,0.5-1.1,0.8-1.6c0.4-0.5,1-1,1.6-1.4c0.7-0.5,1.4-0.8,2.4-1.1
		c1-0.2,2-0.6,3.4-0.8s2.8-0.4,4.5-0.4v-1.3c0-1.4-0.4-2.5-1-3.3c-0.6-0.7-1.6-1.1-2.6-1.1c-0.8,0-1.6,0.1-2.2,0.2
		c-0.6,0.2-1.1,0.4-1.4,0.7c-0.5,0.2-0.8,0.5-1.2,0.7c-0.4,0.2-0.7,0.2-1.2,0.2c-0.4,0-0.7-0.1-1-0.2c-0.2-0.2-0.5-0.4-0.6-0.7
		L136.9,34z M148.9,43.3c-1.6,0.1-2.8,0.2-3.9,0.4c-1.1,0.2-1.8,0.5-2.5,0.7c-0.6,0.2-1.1,0.6-1.3,1.1c-0.2,0.4-0.4,0.8-0.4,1.3
		c0,1,0.2,1.6,0.8,1.9s1.2,0.6,2.2,0.6c1.1,0,2-0.2,2.8-0.6c0.8-0.4,1.6-1,2.3-1.8L148.9,43.3L148.9,43.3z"/>
	<path d="M163.9,33.6c0.5-0.5,0.8-0.8,1.4-1.2c0.5-0.4,1-0.7,1.6-1s1.1-0.5,1.8-0.6c0.6-0.1,1.3-0.2,2-0.2c1.2,0,2.3,0.2,3.1,0.6
		c1,0.4,1.7,1,2.3,1.7c0.6,0.7,1.1,1.6,1.4,2.6s0.5,2.2,0.5,3.4v13.8h-5.2V38.9c0-1.3-0.4-2.4-1-3.1c-0.6-0.7-1.6-1.1-2.8-1.1
		c-1,0-1.8,0.2-2.5,0.6c-0.8,0.4-1.6,1-2.3,1.7v15.8h-5.2V31.1h3.3c0.7,0,1.1,0.4,1.3,1L163.9,33.6z"/>
	<path d="M201.9,31.7v1.9c0,0.6-0.4,1-1.1,1.2l-1.9,0.4c0.2,0.7,0.5,1.6,0.5,2.4c0,1.1-0.2,2-0.6,2.9s-1.1,1.6-1.8,2.2
		c-0.7,0.6-1.7,1.1-2.6,1.4c-1.1,0.4-2.2,0.5-3.4,0.5c-0.5,0-0.8,0-1.2-0.1s-0.8-0.1-1.2-0.1c-0.7,0.4-1,0.8-1,1.3
		c0,0.5,0.2,0.7,0.6,1c0.4,0.2,1,0.4,1.6,0.5c0.7,0.1,1.4,0.1,2.3,0.1c0.8,0,1.7,0.1,2.6,0.1c0.8,0.1,1.8,0.2,2.6,0.4
		s1.6,0.5,2.3,0.8c0.7,0.4,1.2,0.8,1.6,1.6c0.4,0.6,0.6,1.4,0.6,2.5c0,1-0.2,1.9-0.7,2.8c-0.5,1-1.2,1.7-2,2.4
		c-0.8,0.7-2,1.3-3.3,1.7c-1.3,0.5-2.8,0.6-4.5,0.6s-3-0.1-4.3-0.5c-1.2-0.4-2.2-0.7-3-1.3c-0.8-0.5-1.4-1.1-1.8-1.8
		c-0.4-0.7-0.6-1.4-0.6-2.2c0-1,0.4-1.9,1-2.5c0.6-0.7,1.4-1.2,2.5-1.7c-0.6-0.2-1.1-0.7-1.3-1.2s-0.5-1.2-0.5-1.9
		c0-0.4,0-0.6,0.1-1s0.2-0.7,0.5-1.1c0.2-0.4,0.5-0.6,0.8-1c0.4-0.4,0.7-0.6,1.2-0.8c-1.1-0.6-1.9-1.3-2.6-2.4c-0.6-1-1-2.2-1-3.5
		c0-1.1,0.2-2,0.6-2.9c0.5-0.8,1.1-1.6,1.8-2.2c0.7-0.6,1.7-1.1,2.8-1.4c1.1-0.4,2.2-0.5,3.5-0.5c1,0,1.8,0.1,2.6,0.2
		c0.8,0.2,1.6,0.5,2.3,0.8h6V31.7z M196.7,53.7c0-0.5-0.1-0.7-0.4-1.1c-0.2-0.2-0.6-0.5-1.1-0.6s-1-0.2-1.6-0.4s-1.2-0.1-1.8-0.1
		c-0.6,0-1.3-0.1-2-0.1c-0.7,0-1.3-0.1-2-0.1c-0.6,0.4-1.1,0.7-1.4,1.2c-0.4,0.5-0.5,1-0.5,1.6c0,0.4,0.1,0.7,0.2,1.1
		c0.2,0.4,0.5,0.6,1,0.8c0.4,0.2,1,0.5,1.6,0.6c0.7,0.1,1.4,0.2,2.4,0.2c1,0,1.8-0.1,2.5-0.2c0.7-0.1,1.3-0.4,1.8-0.6
		c0.5-0.2,0.8-0.6,1-1C196.6,54.4,196.7,54.1,196.7,53.7z M190.8,41.3c0.6,0,1.2-0.1,1.7-0.2c0.5-0.1,0.8-0.4,1.2-0.7
		s0.6-0.7,0.7-1.1c0.1-0.5,0.2-1,0.2-1.4c0-1.1-0.4-1.9-1-2.5c-0.6-0.6-1.6-1-2.9-1c-1.3,0-2.3,0.4-2.9,1c-0.6,0.6-1,1.4-1,2.5
		c0,0.5,0.1,1,0.2,1.4c0.1,0.5,0.4,0.8,0.7,1.1c0.4,0.4,0.7,0.6,1.2,0.7C189.6,41.2,190.1,41.3,190.8,41.3z"/>
	<path d="M210.5,21.2v31.4h-5.2V21.2H210.5z"/>
	<path d="M219.7,42.5c0.1,1.1,0.2,2,0.6,2.9c0.4,0.8,0.7,1.4,1.2,2c0.5,0.5,1.1,1,1.8,1.2c0.7,0.2,1.4,0.4,2.3,0.4s1.6-0.1,2.2-0.2
		c0.6-0.2,1.2-0.4,1.6-0.6c0.5-0.2,0.8-0.5,1.2-0.6c0.4-0.2,0.7-0.2,1-0.2c0.5,0,0.7,0.1,1,0.5l1.4,1.9c-0.6,0.7-1.2,1.2-1.9,1.7
		s-1.4,0.8-2.3,1.1c-0.8,0.2-1.6,0.5-2.4,0.6s-1.6,0.1-2.4,0.1c-1.6,0-2.9-0.2-4.2-0.7s-2.4-1.2-3.4-2.2c-1-1-1.7-2.2-2.3-3.6
		s-0.8-3.1-0.8-5.1c0-1.4,0.2-2.9,0.7-4.2c0.5-1.3,1.2-2.4,2-3.4c0.8-1,2-1.7,3.3-2.3c1.3-0.6,2.8-0.8,4.3-0.8
		c1.3,0,2.6,0.2,3.7,0.6c1.2,0.5,2.2,1.1,3,1.9s1.4,1.9,1.9,3.1c0.5,1.2,0.7,2.6,0.7,4.2c0,0.8-0.1,1.3-0.2,1.6
		c-0.1,0.2-0.5,0.4-1,0.4h-13V42.5z M229.7,39.3c0-0.7-0.1-1.3-0.2-1.9c-0.1-0.6-0.5-1.1-0.8-1.6c-0.4-0.5-0.8-0.8-1.4-1.1
		c-0.6-0.2-1.3-0.4-2-0.4c-1.6,0-2.6,0.5-3.6,1.3c-0.8,0.8-1.4,2-1.7,3.6H229.7z"/>
</g>
</svg>
