<?xml version="1.0" encoding="UTF-8" standalone="no"?>
<svg
   xmlns:dc="http://purl.org/dc/elements/1.1/"
   xmlns:cc="http://creativecommons.org/ns#"
   xmlns:rdf="http://www.w3.org/1999/02/22-rdf-syntax-ns#"
   xmlns:svg="http://www.w3.org/2000/svg"
   xmlns="http://www.w3.org/2000/svg"
   xmlns:sodipodi="http://sodipodi.sourceforge.net/DTD/sodipodi-0.dtd"
   xmlns:inkscape="http://www.inkscape.org/namespaces/inkscape"
   enable-background="new 0 0 32 32"
   version="1.1"
   viewBox="0 0 32 32"
   xml:space="preserve"
   id="svg2"
   inkscape:version="0.91 r13725"
   sodipodi:docname="facebook-white.svg"><metadata
     id="metadata15"><rdf:RDF><cc:Work
         rdf:about=""><dc:format>image/svg+xml</dc:format><dc:type
           rdf:resource="http://purl.org/dc/dcmitype/StillImage" /><dc:title></dc:title></cc:Work></rdf:RDF></metadata><defs
     id="defs13" /><sodipodi:namedview
     pagecolor="#ffffff"
     bordercolor="#666666"
     borderopacity="1"
     objecttolerance="10"
     gridtolerance="10"
     guidetolerance="10"
     inkscape:pageopacity="0"
     inkscape:pageshadow="2"
     inkscape:window-width="1366"
     inkscape:window-height="717"
     id="namedview11"
     showgrid="false"
     inkscape:snap-object-midpoints="true"
     inkscape:zoom="10.429825"
     inkscape:cx="8.2711449"
     inkscape:cy="16.953144"
     inkscape:window-x="0"
     inkscape:window-y="0"
     inkscape:window-maximized="1"
     inkscape:current-layer="layer2" /><g
     inkscape:groupmode="layer"
     id="layer2"
     inkscape:label="Layer 1"><g
       id="g5"
       transform="translate(8.8208575,-5.7527331)"
       style="fill:#ffffff"><path
         inkscape:connector-curvature="0"
         id="path7"
         d="m 7.179143,5.7527331 c -8.8369995,0 -16.0000005,7.1630009 -16.0000005,16.0000009 0,8.836 7.163001,16 16.0000005,16 8.837,0 16,-7.164 16,-16 0,-8.837 -7.163,-16.0000009 -16,-16.0000009 z m 1.675781,7.0976569 2.455078,0 0,3.06836 -1.533203,0 c -0.574,0 -0.880468,0.107203 -1.042968,0.314453 -0.162501,0.20725 -0.181641,0.514062 -0.181641,0.914062 l -0.0039,1.53711 2.779297,0 -0.326172,3.066406 -2.453125,0 0,8.904297 -3.6796875,0 0,-8.902344 -1.837891,0 0,-3.068359 1.837891,0 0,-1.841797 c 0,-0.62575 0.06569,-1.18811 0.208985,-1.679688 0.143296,-0.491578 0.363796,-0.913297 0.677734,-1.255859 C 6.069258,13.564468 6.475821,13.300578 6.987743,13.121874 7.499665,12.943171 8.11768,12.85039 8.85493,12.85039 Z"
         style="fill:#ffffff" /></g></g><g
     inkscape:groupmode="layer"
     id="layer3"
     inkscape:label="Layer 2" /></svg>