<?xml version="1.0" encoding="UTF-8" standalone="no"?>
<svg
   xmlns:dc="http://purl.org/dc/elements/1.1/"
   xmlns:cc="http://creativecommons.org/ns#"
   xmlns:rdf="http://www.w3.org/1999/02/22-rdf-syntax-ns#"
   xmlns:svg="http://www.w3.org/2000/svg"
   xmlns="http://www.w3.org/2000/svg"
   id="svg2"
   xml:space="preserve"
   viewBox="0 0 32 32"
   version="1.1"
   enable-background="new 0 0 32 32"><metadata
     id="metadata15"><rdf:RDF><cc:Work
         rdf:about=""><dc:format>image/svg+xml</dc:format><dc:type
           rdf:resource="http://purl.org/dc/dcmitype/StillImage" /><dc:title></dc:title></cc:Work></rdf:RDF></metadata><defs
     id="defs13" /><g
     style="fill:#ffffff"
     id="Flat_copy"><g
       style="fill:#ffffff"
       id="g5"><path
         style="fill:#ffffff"
         id="path3350"
         d="M 9.9433594 14.490234 L 9.9433594 21.556641 C 9.9433594 21.910641 10.094266 22.0625 10.447266 22.0625 L 21.552734 22.0625 C 21.906734 22.0625 22.056641 21.910641 22.056641 21.556641 L 22.056641 14.490234 L 20.822266 14.765625 C 20.957266 15.204625 21.029297 15.668391 21.029297 16.150391 C 21.029297 16.821641 20.888734 17.461203 20.634766 18.042969 C 20.380797 18.624734 20.014672 19.147828 19.560547 19.587891 C 19.106422 20.027953 18.565313 20.384719 17.964844 20.630859 C 17.364375 20.877 16.704719 21.013672 16.011719 21.013672 C 15.319219 21.013672 14.658875 20.877078 14.058594 20.630859 C 13.458312 20.384641 12.917016 20.028016 12.462891 19.587891 C 12.008766 19.147766 11.64075 18.624688 11.386719 18.042969 C 11.132687 17.46125 10.992188 16.821391 10.992188 16.150391 C 10.992187 15.668391 11.066172 15.204625 11.201172 14.765625 L 9.9433594 14.490234 z " /><path
         style="fill:#ffffff"
         id="path3348"
         d="M 16.011719 12.832031 C 15.564219 12.832031 15.137844 12.921141 14.75 13.080078 C 14.362156 13.239016 14.014078 13.469656 13.720703 13.753906 C 13.427328 14.038156 13.189484 14.376016 13.025391 14.751953 C 12.861297 15.127891 12.769531 15.540609 12.769531 15.974609 C 12.769531 16.408109 12.861297 16.821422 13.025391 17.197266 C 13.189484 17.573109 13.427328 17.910937 13.720703 18.195312 C 14.014078 18.479688 14.362156 18.710047 14.75 18.869141 C 15.137844 19.028234 15.564219 19.117188 16.011719 19.117188 C 16.459469 19.117188 16.885453 19.028156 17.273438 18.869141 C 17.661422 18.710125 18.01125 18.481578 18.304688 18.197266 C 18.598125 17.912953 18.835891 17.573156 19 17.197266 C 19.164109 16.821375 19.255859 16.408359 19.255859 15.974609 C 19.255859 15.540859 19.164109 15.127844 19 14.751953 C 18.835891 14.376062 18.598125 14.038219 18.304688 13.753906 C 18.01125 13.469594 17.661422 13.239094 17.273438 13.080078 C 16.885453 12.921062 16.459469 12.832031 16.011719 12.832031 z " /><path
         style="fill:#ffffff"
         id="path3346"
         d="M 19.533203 9.9472656 C 19.254203 9.9472656 19.027344 10.174125 19.027344 10.453125 L 19.027344 12.472656 C 19.027344 12.751656 19.254203 12.976562 19.533203 12.976562 L 21.552734 12.976562 C 21.831734 12.976563 22.056641 12.751656 22.056641 12.472656 L 22.056641 10.453125 C 22.056641 10.174125 21.831734 9.9472656 21.552734 9.9472656 L 19.533203 9.9472656 z " /><path
         style="fill:#ffffff"
         id="path7"
         d="M 16 0 C 7.163 0 0 7.163 0 16 C 0 24.836 7.163 32 16 32 C 24.837 32 32 24.836 32 16 C 32 7.163 24.837 0 16 0 z M 9.9433594 7.9296875 L 22.056641 7.9296875 C 22.626141 7.9296875 23.131891 8.1495937 23.494141 8.5117188 C 23.856391 8.8738438 24.074719 9.3787188 24.074219 9.9492188 L 24.074219 22.0625 C 24.074219 22.6325 23.854437 23.135797 23.492188 23.498047 C 23.129938 23.860297 22.626641 24.080078 22.056641 24.080078 L 9.9433594 24.080078 C 9.3733594 24.080078 8.8681094 23.860297 8.5058594 23.498047 C 8.1436094 23.135797 7.9238281 22.6325 7.9238281 22.0625 L 7.9238281 9.9492188 C 7.9238281 9.3792187 8.1436094 8.8739687 8.5058594 8.5117188 C 8.8681094 8.1494688 9.3733594 7.9296875 9.9433594 7.9296875 z " /></g></g></svg>