<?xml version="1.0" encoding="utf-8"?>
<!-- Generator: Adobe Illustrator 14.0.0, SVG Export Plug-In . SVG Version: 6.00 Build 43363)  -->
<!DOCTYPE svg PUBLIC "-//W3C//DTD SVG 1.1//EN" "http://www.w3.org/Graphics/SVG/1.1/DTD/svg11.dtd">
<svg version="1.1" xmlns="http://www.w3.org/2000/svg" xmlns:xlink="http://www.w3.org/1999/xlink" x="0px" y="0px" width="128px"
	 height="128px" viewBox="0 0 128 128" enable-background="new 0 0 128 128" xml:space="preserve">
<g id="circle_bg">
	<circle fill="#E5E5E5" cx="64" cy="64" r="64"/>
	<circle fill="#8CB6D3" cx="64" cy="64" r="60.25"/>
</g>
<g id="Layer_3">
	<path fill="#4188AF" d="M124.223,65.071L94.384,35.233c0.004,0.044,0.014,0.086,0.014,0.131v57.271
		c0,0.974-0.788,1.762-1.762,1.762H35.365c-0.36,0-0.694-0.109-0.974-0.294l30.134,30.133
		C97.198,123.956,123.652,97.676,124.223,65.071z"/>
</g>
<g id="website">
	<g>
		<path fill="#FFFFFF" d="M94.397,92.636c0,0.974-0.788,1.762-1.762,1.762H35.365c-0.973,0-1.763-0.788-1.763-1.762V35.365
			c0-0.973,0.79-1.763,1.763-1.763h57.271c0.974,0,1.762,0.79,1.762,1.763V92.636z"/>
		<path fill="#4AB866" d="M91.9,45.001c0-0.479-0.388-0.869-0.868-0.869H36.968c-0.479,0-0.869,0.389-0.869,0.869v18.89
			c0,0.48,0.389,0.869,0.869,0.869h54.064c0.48,0,0.868-0.389,0.868-0.869V45.001z"/>
		<rect x="48.367" y="53.144" fill="#FFFFFF" width="31.266" height="2.171"/>
		<path fill="#4AB866" d="M91.9,89.187c0,0.48-0.388,0.869-0.868,0.869H37.076c-0.479,0-0.869-0.389-0.869-0.869v-3.04
			c0-0.479,0.389-0.868,0.869-0.868h53.956c0.48,0,0.868,0.389,0.868,0.868V89.187z"/>
		<path fill="#8BAABE" d="M53.342,74.856c0,0.48-0.363,0.868-0.811,0.868H37.019c-0.447,0-0.811-0.388-0.811-0.868v-6.948
			c0-0.48,0.364-0.868,0.811-0.868h15.512c0.448,0,0.811,0.388,0.811,0.868V74.856z"/>
		<path fill="#8BAABE" d="M72.568,74.856c0,0.48-0.364,0.868-0.813,0.868H56.245c-0.449,0-0.811-0.388-0.811-0.868v-6.948
			c0-0.48,0.362-0.868,0.811-0.868h15.511c0.448,0,0.813,0.388,0.813,0.868V74.856z"/>
		<path fill="#8BAABE" d="M91.792,74.856c0,0.48-0.362,0.868-0.811,0.868H75.471c-0.447,0-0.812-0.388-0.812-0.868v-6.948
			c0-0.48,0.364-0.868,0.812-0.868h15.511c0.448,0,0.811,0.388,0.811,0.868V74.856z"/>
		<rect x="37.076" y="37.945" fill="#8BAABE" width="17.37" height="2.171"/>
		<rect x="83.976" y="38.27" fill="#AEC3CE" width="5.211" height="1.086"/>
		<rect x="77.028" y="38.27" fill="#AEC3CE" width="5.211" height="1.086"/>
		<g>
			<rect x="37.076" y="77.679" fill="#AEC3CE" width="14.222" height="0.868"/>
			<rect x="37.076" y="79.416" fill="#AEC3CE" width="11.174" height="0.869"/>
			<rect x="37.076" y="81.153" fill="#AEC3CE" width="11.174" height="0.868"/>
		</g>
		<g>
			<rect x="56.184" y="77.679" fill="#AEC3CE" width="14.222" height="0.868"/>
			<rect x="56.184" y="79.416" fill="#AEC3CE" width="11.174" height="0.869"/>
			<rect x="56.184" y="81.153" fill="#AEC3CE" width="11.174" height="0.868"/>
		</g>
		<g>
			<rect x="75.29" y="77.679" fill="#AEC3CE" width="14.223" height="0.868"/>
			<rect x="75.29" y="79.416" fill="#AEC3CE" width="11.175" height="0.869"/>
			<rect x="75.29" y="81.153" fill="#AEC3CE" width="11.175" height="0.868"/>
		</g>
	</g>
</g>
</svg>
