<?xml version="1.0" encoding="utf-8"?>
<!-- Generator: Adobe Illustrator 14.0.0, SVG Export Plug-In . SVG Version: 6.00 Build 43363)  -->
<!DOCTYPE svg PUBLIC "-//W3C//DTD SVG 1.1//EN" "http://www.w3.org/Graphics/SVG/1.1/DTD/svg11.dtd">
<svg version="1.1" xmlns="http://www.w3.org/2000/svg" xmlns:xlink="http://www.w3.org/1999/xlink" x="0px" y="0px" width="128px"
	 height="128px" viewBox="0 0 128 128" enable-background="new 0 0 128 128" xml:space="preserve">
<g id="circle_bg">
	<circle fill="#E5E5E5" cx="64" cy="64" r="64"/>
	<circle fill="#8CB6D3" cx="64" cy="64" r="60.25"/>
</g>
<g id="Layer_7">
</g>
<g id="shadow">
	<path fill="#4188AF" d="M122.935,76.54L71.331,24.938c1.804,1.848,2.919,4.37,2.919,7.156c0,4.819-3.33,8.851-7.813,9.946v2.221
		c3.676,0.286,7.169,1.211,10.373,2.668l0.791-1.37l-2.49-1.438l3-5.196l4.276,2.469l4.275,2.469l-3,5.196l-2.489-1.438
		l-0.728,1.261C89.186,54.364,95,64.078,95,75.156c0,17.121-13.879,31-31,31c-8.431,0-16.071-3.37-21.659-8.831l26.699,26.699
		C95.743,121.811,117.501,102.197,122.935,76.54z"/>
	<path fill="#4188AF" d="M64,23.844c-4.549,0-8.25,3.701-8.25,8.25c0,3.701,2.45,6.84,5.813,7.882v-5.694h-1.938v-4.375H64h4.375
		v4.375h-1.938v5.694c3.362-1.042,5.813-4.181,5.813-7.882C72.25,27.545,68.549,23.844,64,23.844z"/>
	<path fill="#4188AF" d="M45.415,48.121l-2.49,1.438l1.545,1.545c0.602-0.489,1.216-0.965,1.854-1.409L45.415,48.121z"/>
	<path fill="#4188AF" d="M48.987,46.059l0.874,1.513c1.529-0.786,3.136-1.438,4.799-1.964l-6.182-6.182l3,5.195L48.987,46.059z"/>
</g>
<g id="Layer_10" display="none">
	<g display="inline">
		<g>
			<path fill="none" d="M72.25,32.094c0-4.549-3.701-8.25-8.25-8.25v16.5C68.549,40.344,72.25,36.643,72.25,32.094z"/>
			<path fill="none" d="M55.75,32.094c0,4.549,3.701,8.25,8.25,8.25v-16.5C59.451,23.844,55.75,27.545,55.75,32.094z"/>
			<path fill="#B1B5B4" d="M64,21.844v2c4.549,0,8.25,3.701,8.25,8.25s-3.701,8.25-8.25,8.25v2c5.661,0,10.25-4.589,10.25-10.25
				S69.661,21.844,64,21.844z"/>
			<path fill="#D6D7DB" d="M55.75,32.094c0-4.549,3.701-8.25,8.25-8.25v-2c-5.661,0-10.25,4.589-10.25,10.25
				s4.589,10.25,10.25,10.25v-2C59.451,40.344,55.75,36.643,55.75,32.094z"/>
		</g>
		<g>
			<g>
				
					<rect x="42.37" y="46.574" transform="matrix(-0.5 -0.866 0.866 -0.5 28.2331 111.5118)" fill="#7B8B8A" width="7.875" height="2.062"/>
				
					<rect x="47.063" y="42.637" transform="matrix(0.866 -0.5 0.5 0.866 -16.8439 30.2876)" fill="#3C4E50" width="2.062" height="7.875"/>
			</g>
			<g>
				<path fill="#DBD5D5" d="M44.201,41.894l-4.276,2.469l3,5.196l4.276-2.469c-0.372-0.644-0.943-1.635-1.594-2.761
					C45.061,43.382,44.566,42.526,44.201,41.894z"/>
				<path fill="#B4B4B4" d="M48.478,39.425l-4.276,2.469c0.365,0.633,0.859,1.488,1.406,2.436c0.65,1.126,1.222,2.117,1.594,2.761
					l4.276-2.469L48.478,39.425z"/>
			</g>
		</g>
		<g>
			<g>
				
					<rect x="74.557" y="45.043" transform="matrix(0.5 -0.866 0.866 0.5 -0.6531 91.0173)" fill="#7B8B8A" width="7.875" height="2.062"/>
				
					<rect x="79.25" y="43.168" transform="matrix(0.866 0.5 -0.5 0.866 34.3092 -33.8299)" fill="#3C4E50" width="2.062" height="7.875"/>
			</g>
			<g>
				<path fill="#DBD5D5" d="M82.388,41.394l-4.276-2.469l-3,5.196l4.276,2.469c0.372-0.645,0.943-1.635,1.594-2.761
					C81.528,42.882,82.022,42.026,82.388,41.394z"/>
				<path fill="#B4B4B4" d="M86.663,43.862l-4.275-2.469c-0.365,0.633-0.859,1.488-1.406,2.436c-0.65,1.126-1.222,2.116-1.594,2.761
					l4.275,2.469L86.663,43.862z"/>
			</g>
		</g>
		<g>
			<path fill="#FAFDFF" d="M64,32.577h-2.438v12.695H64c0-1.472,0-3.431,0-5.589C64,36.655,64,34.015,64,32.577z"/>
			<path fill="#DCDFD6" d="M66.438,32.577H64c0,1.438,0,4.078,0,7.106c0,2.158,0,4.117,0,5.589h2.438V32.577z"/>
		</g>
		<g>
			<path fill="#D9D9D9" d="M64,29.906h-4.375v4.375H64c0-0.542,0-1.376,0-2.324C64,31.159,64,30.438,64,29.906z"/>
			<path fill="#B0B0B0" d="M68.375,29.906H64c0,0.532,0,1.253,0,2.051c0,0.948,0,1.782,0,2.324h4.375V29.906z"/>
		</g>
		<path fill="#D6D7D9" d="M33,75.156c0,17.121,13.879,31,31,31v-62C46.879,44.156,33,58.035,33,75.156z"/>
		<path fill="#BAB0AF" d="M64,44.156v62c17.121,0,31-13.879,31-31S81.121,44.156,64,44.156z"/>
		<path fill="#445157" d="M35.375,75.156c0,15.81,12.816,28.625,28.625,28.625v-57.25C48.191,46.531,35.375,59.347,35.375,75.156z"
			/>
		<path fill="#718583" d="M64,46.531v57.25c15.81,0,28.625-12.815,28.625-28.625S79.81,46.531,64,46.531z"/>
		<path fill="#FFFFFF" d="M38,75.156c0,14.359,11.641,26,26,26v-52C49.641,49.156,38,60.797,38,75.156z"/>
		<path fill="#D9D9D9" d="M64,49.156v52c14.359,0,26-11.641,26-26S78.359,49.156,64,49.156z"/>
		<rect x="62.875" y="51.531" fill="#212B2D" width="2.25" height="5"/>
		<rect x="62.875" y="93.781" fill="#212B2D" width="2.25" height="5"/>
		<rect x="40.375" y="74.031" fill="#212B2D" width="5" height="2.25"/>
		<rect x="82.625" y="74.031" fill="#212B2D" width="5" height="2.25"/>
		
			<rect x="52.306" y="55.729" transform="matrix(0.8661 -0.4999 0.4999 0.8661 -21.2664 34.3229)" fill="#212B2D" width="2.258" height="2.258"/>
		
			<rect x="44.441" y="63.413" transform="matrix(0.5 -0.866 0.866 0.5 -33.1105 71.7314)" fill="#212B2D" width="2.258" height="2.258"/>
		
			<rect x="52.306" y="55.729" transform="matrix(0.8661 -0.4999 0.4999 0.8661 -21.2664 34.3229)" fill="#212B2D" width="2.258" height="2.258"/>
		
			<rect x="44.441" y="63.413" transform="matrix(0.5 -0.866 0.866 0.5 -33.1105 71.7314)" fill="#212B2D" width="2.258" height="2.258"/>
		
			<rect x="44.572" y="84.592" transform="matrix(-0.4999 -0.8661 0.8661 -0.4999 -5.6976 168.1523)" fill="#212B2D" width="2.258" height="2.258"/>
		
			<rect x="52.257" y="92.457" transform="matrix(-0.866 -0.5 0.5 -0.866 52.8201 201.3275)" fill="#212B2D" width="2.258" height="2.258"/>
		
			<rect x="73.436" y="92.325" transform="matrix(-0.8661 0.4999 -0.4999 -0.8661 185.8603 137.1242)" fill="#212B2D" width="2.258" height="2.258"/>
		
			<rect x="81.301" y="84.641" transform="matrix(-0.5 0.866 -0.866 -0.5 197.9262 57.2754)" fill="#212B2D" width="2.258" height="2.258"/>
		
			<rect x="81.169" y="63.462" transform="matrix(0.4999 0.8661 -0.8661 0.4999 97.1037 -38.9744)" fill="#212B2D" width="2.258" height="2.258"/>
		
			<rect x="73.485" y="55.597" transform="matrix(0.866 0.5 -0.5 0.866 38.3641 -29.7092)" fill="#212B2D" width="2.258" height="2.258"/>
		<polygon fill="#434E52" points="64,72.876 80.25,75.219 64,77.562 		"/>
		<circle fill="#6D7B7B" cx="64" cy="75.156" r="2.375"/>
	</g>
</g>
<g id="Layer_10_copy">
	<g>
		<g>
			<path fill="none" d="M72.25,32.094c0-4.549-3.701-8.25-8.25-8.25v16.5C68.549,40.344,72.25,36.643,72.25,32.094z"/>
			<path fill="none" d="M55.75,32.094c0,4.549,3.701,8.25,8.25,8.25v-16.5C59.451,23.844,55.75,27.545,55.75,32.094z"/>
			<path fill="#B7B7B7" d="M64,21.844v2c4.549,0,8.25,3.701,8.25,8.25s-3.701,8.25-8.25,8.25v2c5.661,0,10.25-4.589,10.25-10.25
				S69.661,21.844,64,21.844z"/>
			<path fill="#D6D7DB" d="M55.75,32.094c0-4.549,3.701-8.25,8.25-8.25v-2c-5.661,0-10.25,4.589-10.25,10.25
				s4.589,10.25,10.25,10.25v-2C59.451,40.344,55.75,36.643,55.75,32.094z"/>
		</g>
		<g>
			<g>
				
					<rect x="42.37" y="46.574" transform="matrix(-0.5 -0.866 0.866 -0.5 28.2331 111.5118)" fill="#7B8B8A" width="7.875" height="2.062"/>
				
					<rect x="47.063" y="42.637" transform="matrix(0.866 -0.5 0.5 0.866 -16.8439 30.2876)" fill="#3C4E50" width="2.062" height="7.875"/>
			</g>
			<g>
				<path fill="#DBD5D5" d="M44.201,41.894l-4.276,2.469l3,5.196l4.276-2.469c-0.372-0.644-0.943-1.635-1.594-2.761
					C45.061,43.382,44.566,42.526,44.201,41.894z"/>
				<path fill="#B7B7B7" d="M48.478,39.425l-4.276,2.469c0.365,0.633,0.859,1.488,1.406,2.436c0.65,1.126,1.222,2.117,1.594,2.761
					l4.276-2.469L48.478,39.425z"/>
			</g>
		</g>
		<g>
			<g>
				
					<rect x="74.557" y="45.043" transform="matrix(0.5 -0.866 0.866 0.5 -0.6531 91.0173)" fill="#7B8B8A" width="7.875" height="2.062"/>
				
					<rect x="79.25" y="43.168" transform="matrix(0.866 0.5 -0.5 0.866 34.3092 -33.8299)" fill="#3C4E50" width="2.062" height="7.875"/>
			</g>
			<g>
				<path fill="#DBD5D5" d="M82.388,41.394l-4.276-2.469l-3,5.196l4.276,2.469c0.372-0.645,0.943-1.635,1.594-2.761
					C81.528,42.882,82.022,42.026,82.388,41.394z"/>
				<path fill="#B7B7B7" d="M86.663,43.862l-4.275-2.469c-0.365,0.633-0.859,1.488-1.406,2.436c-0.65,1.126-1.222,2.116-1.594,2.761
					l4.275,2.469L86.663,43.862z"/>
			</g>
		</g>
		<g>
			<path fill="#FAFDFF" d="M64,32.577h-2.438v12.695H64c0-1.472,0-3.431,0-5.589C64,36.655,64,34.015,64,32.577z"/>
			<path fill="#DCDFD6" d="M66.438,32.577H64c0,1.438,0,4.078,0,7.106c0,2.158,0,4.117,0,5.589h2.438V32.577z"/>
		</g>
		<g>
			<path fill="#D9D9D9" d="M64,29.906h-4.375v4.375H64c0-0.542,0-1.376,0-2.324C64,31.159,64,30.438,64,29.906z"/>
			<path fill="#B7B7B7" d="M68.375,29.906H64c0,0.532,0,1.253,0,2.051c0,0.948,0,1.782,0,2.324h4.375V29.906z"/>
		</g>
		<path fill="#D6D7D9" d="M33,75.156c0,17.121,13.879,31,31,31v-62C46.879,44.156,33,58.035,33,75.156z"/>
		<path fill="#B7B7B7" d="M64,44.156v62c17.121,0,31-13.879,31-31S81.121,44.156,64,44.156z"/>
		<path fill="#445157" d="M35.375,75.156c0,15.81,12.816,28.625,28.625,28.625v-57.25C48.191,46.531,35.375,59.347,35.375,75.156z"
			/>
		<path fill="#718583" d="M64,46.531v57.25c15.81,0,28.625-12.815,28.625-28.625S79.81,46.531,64,46.531z"/>
		<path fill="#FFFFFF" d="M38,75.156c0,14.359,11.641,26,26,26v-52C49.641,49.156,38,60.797,38,75.156z"/>
		<path fill="#E0E0E0" d="M64,49.156v52c14.359,0,26-11.641,26-26S78.359,49.156,64,49.156z"/>
		<rect x="62.875" y="51.531" fill="#212B2D" width="2.25" height="5"/>
		<rect x="62.875" y="93.781" fill="#212B2D" width="2.25" height="5"/>
		<rect x="40.375" y="74.031" fill="#212B2D" width="5" height="2.25"/>
		<rect x="82.625" y="74.031" fill="#212B2D" width="5" height="2.25"/>
		
			<rect x="52.306" y="55.729" transform="matrix(0.8661 -0.4999 0.4999 0.8661 -21.2664 34.3229)" fill="#212B2D" width="2.258" height="2.258"/>
		
			<rect x="44.441" y="63.413" transform="matrix(0.5 -0.866 0.866 0.5 -33.1105 71.7314)" fill="#212B2D" width="2.258" height="2.258"/>
		
			<rect x="52.306" y="55.729" transform="matrix(0.8661 -0.4999 0.4999 0.8661 -21.2664 34.3229)" fill="#212B2D" width="2.258" height="2.258"/>
		
			<rect x="44.441" y="63.413" transform="matrix(0.5 -0.866 0.866 0.5 -33.1105 71.7314)" fill="#212B2D" width="2.258" height="2.258"/>
		
			<rect x="44.572" y="84.592" transform="matrix(-0.4999 -0.8661 0.8661 -0.4999 -5.6976 168.1523)" fill="#212B2D" width="2.258" height="2.258"/>
		
			<rect x="52.257" y="92.457" transform="matrix(-0.866 -0.5 0.5 -0.866 52.8201 201.3275)" fill="#212B2D" width="2.258" height="2.258"/>
		
			<rect x="73.436" y="92.325" transform="matrix(-0.8661 0.4999 -0.4999 -0.8661 185.8603 137.1242)" fill="#212B2D" width="2.258" height="2.258"/>
		
			<rect x="81.301" y="84.641" transform="matrix(-0.5 0.866 -0.866 -0.5 197.9262 57.2754)" fill="#212B2D" width="2.258" height="2.258"/>
		
			<rect x="81.169" y="63.462" transform="matrix(0.4999 0.8661 -0.8661 0.4999 97.1037 -38.9744)" fill="#212B2D" width="2.258" height="2.258"/>
		
			<rect x="73.485" y="55.597" transform="matrix(0.866 0.5 -0.5 0.866 38.3641 -29.7092)" fill="#212B2D" width="2.258" height="2.258"/>
		<polygon fill="#434E52" points="64,72.876 80.25,75.219 64,77.562 		"/>
		<circle fill="#6D7B7B" cx="64" cy="75.156" r="2.375"/>
	</g>
</g>
</svg>
