<?xml version="1.0" encoding="utf-8"?>
<!-- Generator: Adobe Illustrator 14.0.0, SVG Export Plug-In . SVG Version: 6.00 Build 43363)  -->
<!DOCTYPE svg PUBLIC "-//W3C//DTD SVG 1.1//EN" "http://www.w3.org/Graphics/SVG/1.1/DTD/svg11.dtd">
<svg version="1.1" id="Layer_1" xmlns="http://www.w3.org/2000/svg" xmlns:xlink="http://www.w3.org/1999/xlink" x="0px" y="0px"
	 width="32px" height="32px" viewBox="0 0 32 32" enable-background="new 0 0 32 32" xml:space="preserve">
<path fill="#FFFFFF" d="M31.855,25.507l-0.158-0.479c-0.377-1.122-1.613-2.292-2.75-2.6l-4.203-1.148
	c-1.141-0.311-2.768,0.106-3.602,0.94l-1.521,1.521c-5.53-1.494-9.866-5.831-11.358-11.36l1.522-1.522
	c0.834-0.834,1.251-2.459,0.941-3.599L9.58,3.053C9.27,1.915,8.098,0.678,6.979,0.305L6.499,0.144
	C5.377-0.229,3.778,0.148,2.944,0.982L0.668,3.261C0.262,3.666,0.002,4.822,0.002,4.826c-0.08,7.228,2.754,14.191,7.865,19.303
	c5.099,5.101,12.035,7.931,19.24,7.87c0.037,0,1.229-0.256,1.635-0.661l2.275-2.276C31.852,28.228,32.229,26.628,31.855,25.507z"/>
</svg>
