<?xml version="1.0" encoding="utf-8"?>
<!-- Generator: Adobe Illustrator 25.2.0, SVG Export Plug-In . SVG Version: 6.00 Build 0)  -->
<svg version="1.1" id="Layer_1" xmlns="http://www.w3.org/2000/svg" xmlns:xlink="http://www.w3.org/1999/xlink" x="0px" y="0px"
	 viewBox="0 0 256 72" style="enable-background:new 0 0 256 72;" xml:space="preserve">
<style type="text/css">
	.st0{fill:#478BE3;}
</style>
<g>
	<polygon class="st0" points="77,26.6 54.8,65 99.1,65 	"/>
	<polygon class="st0" points="74.2,21.8 64.6,5.2 30.1,65 49.2,65 	"/>
</g>
<g>
	<path d="M123.1,27.4h-7.7v21.5h-4.7V27.4H103v-3.9h20.1V27.4z"/>
	<path d="M126.3,34c0.6-1.1,1.2-1.9,2-2.5s1.7-0.9,2.7-0.9c0.8,0,1.5,0.2,2,0.5l-0.3,3.3c-0.1,0.2-0.1,0.4-0.3,0.4
		c-0.1,0.1-0.3,0.1-0.4,0.1c-0.2,0-0.4,0-0.8-0.1c-0.3-0.1-0.7-0.1-1-0.1c-0.5,0-0.9,0.1-1.3,0.2c-0.4,0.1-0.7,0.3-1,0.6
		c-0.3,0.3-0.6,0.6-0.8,1c-0.2,0.4-0.4,0.8-0.6,1.3v11.1h-4.3v-18h2.6c0.4,0,0.8,0.1,0.9,0.2s0.3,0.4,0.4,0.9L126.3,34z"/>
	<path d="M140.4,25.6c0,0.4-0.1,0.7-0.2,1.1c-0.2,0.3-0.4,0.6-0.6,0.9c-0.3,0.2-0.5,0.4-0.9,0.6c-0.3,0.1-0.7,0.2-1.1,0.2
		c-0.4,0-0.7-0.1-1.1-0.2c-0.3-0.1-0.6-0.3-0.9-0.6c-0.2-0.2-0.4-0.5-0.6-0.9c-0.1-0.3-0.2-0.7-0.2-1.1c0-0.4,0.1-0.8,0.2-1.1
		s0.3-0.6,0.6-0.9c0.2-0.2,0.5-0.4,0.9-0.6c0.3-0.1,0.7-0.2,1.1-0.2c0.4,0,0.8,0.1,1.1,0.2c0.3,0.1,0.6,0.3,0.9,0.6
		c0.3,0.2,0.5,0.5,0.6,0.9C140.3,24.9,140.4,25.2,140.4,25.6z M139.8,30.9v18h-4.4v-18H139.8z"/>
	<path d="M143.8,33.4c2.1-1.9,4.6-2.9,7.5-2.9c1.1,0,2,0.2,2.8,0.5c0.8,0.3,1.5,0.8,2.1,1.4s1,1.4,1.3,2.2s0.4,1.8,0.4,2.8v11.4h-2
		c-0.4,0-0.7-0.1-1-0.2s-0.4-0.4-0.5-0.7l-0.4-1.3c-0.5,0.4-0.9,0.8-1.3,1.1c-0.4,0.3-0.9,0.6-1.4,0.8c-0.5,0.2-1,0.4-1.5,0.5
		c-0.5,0.1-1.1,0.2-1.8,0.2c-0.8,0-1.5-0.1-2.1-0.3s-1.2-0.5-1.7-0.9c-0.5-0.4-0.8-0.9-1.1-1.5c-0.3-0.6-0.4-1.3-0.4-2.1
		c0-0.5,0.1-0.9,0.2-1.4c0.2-0.5,0.4-0.9,0.7-1.3c0.3-0.4,0.8-0.8,1.3-1.2c0.6-0.4,1.2-0.7,2-0.9s1.7-0.5,2.8-0.7s2.3-0.3,3.7-0.3
		v-1.1c0-1.2-0.3-2.1-0.8-2.7c-0.5-0.6-1.3-0.9-2.2-0.9c-0.7,0-1.3,0.1-1.8,0.2c-0.5,0.2-0.9,0.3-1.2,0.6c-0.4,0.2-0.7,0.4-1,0.6
		c-0.3,0.2-0.6,0.2-1,0.2c-0.3,0-0.6-0.1-0.8-0.2c-0.2-0.2-0.4-0.3-0.5-0.6L143.8,33.4z M153.8,41.2c-1.3,0.1-2.3,0.2-3.2,0.3
		c-0.9,0.2-1.5,0.4-2.1,0.6c-0.5,0.2-0.9,0.5-1.1,0.9c-0.2,0.3-0.3,0.7-0.3,1.1c0,0.8,0.2,1.3,0.7,1.6c0.5,0.3,1,0.5,1.8,0.5
		c0.9,0,1.7-0.2,2.3-0.5c0.7-0.3,1.3-0.8,1.9-1.5V41.2z"/>
	<path d="M166.2,33.1c0.4-0.4,0.7-0.7,1.2-1c0.4-0.3,0.8-0.6,1.3-0.8c0.5-0.2,0.9-0.4,1.5-0.5c0.5-0.1,1.1-0.2,1.7-0.2
		c1,0,1.9,0.2,2.6,0.5c0.8,0.3,1.4,0.8,1.9,1.4c0.5,0.6,0.9,1.3,1.2,2.2s0.4,1.8,0.4,2.8v11.5h-4.3V37.5c0-1.1-0.3-2-0.8-2.6
		s-1.3-0.9-2.3-0.9c-0.8,0-1.5,0.2-2.1,0.5c-0.7,0.3-1.3,0.8-1.9,1.4v13.1h-4.3v-18h2.7c0.6,0,0.9,0.3,1.1,0.8L166.2,33.1z"/>
	<path d="M197.8,31.5v1.6c0,0.5-0.3,0.8-0.9,1l-1.6,0.3c0.2,0.6,0.4,1.3,0.4,2c0,0.9-0.2,1.7-0.5,2.4s-0.9,1.3-1.5,1.8
		c-0.6,0.5-1.4,0.9-2.2,1.2c-0.9,0.3-1.8,0.4-2.8,0.4c-0.4,0-0.7,0-1-0.1s-0.7-0.1-1-0.1c-0.6,0.3-0.8,0.7-0.8,1.1
		c0,0.4,0.2,0.6,0.5,0.8s0.8,0.3,1.3,0.4c0.6,0.1,1.2,0.1,1.9,0.1c0.7,0,1.4,0.1,2.2,0.1c0.7,0.1,1.5,0.2,2.2,0.3s1.3,0.4,1.9,0.7
		c0.6,0.3,1,0.7,1.3,1.3c0.3,0.5,0.5,1.2,0.5,2.1c0,0.8-0.2,1.6-0.6,2.3c-0.4,0.8-1,1.4-1.7,2c-0.7,0.6-1.7,1.1-2.7,1.4
		c-1.1,0.4-2.3,0.5-3.7,0.5c-1.4,0-2.5-0.1-3.6-0.4c-1-0.3-1.8-0.6-2.5-1.1c-0.7-0.4-1.2-0.9-1.5-1.5c-0.3-0.6-0.5-1.2-0.5-1.8
		c0-0.8,0.3-1.6,0.8-2.1c0.5-0.6,1.2-1,2.1-1.4c-0.5-0.2-0.9-0.6-1.1-1s-0.4-1-0.4-1.6c0-0.3,0-0.5,0.1-0.8s0.2-0.6,0.4-0.9
		s0.4-0.5,0.7-0.8c0.3-0.3,0.6-0.5,1-0.7c-0.9-0.5-1.6-1.1-2.2-2c-0.5-0.8-0.8-1.8-0.8-2.9c0-0.9,0.2-1.7,0.5-2.4
		c0.4-0.7,0.9-1.3,1.5-1.8c0.6-0.5,1.4-0.9,2.3-1.2c0.9-0.3,1.8-0.4,2.9-0.4c0.8,0,1.5,0.1,2.2,0.2c0.7,0.2,1.3,0.4,1.9,0.7H197.8z
		 M193.5,49.8c0-0.4-0.1-0.6-0.3-0.9c-0.2-0.2-0.5-0.4-0.9-0.5c-0.4-0.1-0.8-0.2-1.3-0.3c-0.5-0.1-1-0.1-1.5-0.1
		c-0.5,0-1.1-0.1-1.7-0.1c-0.6,0-1.1-0.1-1.7-0.1c-0.5,0.3-0.9,0.6-1.2,1s-0.4,0.8-0.4,1.3c0,0.3,0.1,0.6,0.2,0.9
		c0.2,0.3,0.4,0.5,0.8,0.7c0.3,0.2,0.8,0.4,1.3,0.5c0.6,0.1,1.2,0.2,2,0.2c0.8,0,1.5-0.1,2.1-0.2c0.6-0.1,1.1-0.3,1.5-0.5
		c0.4-0.2,0.7-0.5,0.8-0.8C193.4,50.4,193.5,50.1,193.5,49.8z M188.6,39.5c0.5,0,1-0.1,1.4-0.2c0.4-0.1,0.7-0.3,1-0.6
		s0.5-0.6,0.6-0.9c0.1-0.4,0.2-0.8,0.2-1.2c0-0.9-0.3-1.6-0.8-2.1c-0.5-0.5-1.3-0.8-2.4-0.8s-1.9,0.3-2.4,0.8
		c-0.5,0.5-0.8,1.2-0.8,2.1c0,0.4,0.1,0.8,0.2,1.2c0.1,0.4,0.3,0.7,0.6,0.9c0.3,0.3,0.6,0.5,1,0.6C187.6,39.4,188,39.5,188.6,39.5z"
		/>
	<path d="M204.9,22.8v26.1h-4.3V22.8H204.9z"/>
	<path d="M212.6,40.5c0.1,0.9,0.2,1.7,0.5,2.4c0.3,0.7,0.6,1.2,1,1.7c0.4,0.4,0.9,0.8,1.5,1c0.6,0.2,1.2,0.3,1.9,0.3
		c0.7,0,1.3-0.1,1.8-0.2c0.5-0.2,1-0.3,1.3-0.5c0.4-0.2,0.7-0.4,1-0.5c0.3-0.2,0.6-0.2,0.8-0.2c0.4,0,0.6,0.1,0.8,0.4l1.2,1.6
		c-0.5,0.6-1,1-1.6,1.4c-0.6,0.4-1.2,0.7-1.9,0.9c-0.7,0.2-1.3,0.4-2,0.5c-0.7,0.1-1.3,0.1-2,0.1c-1.3,0-2.4-0.2-3.5-0.6
		s-2-1-2.8-1.8c-0.8-0.8-1.4-1.8-1.9-3c-0.5-1.2-0.7-2.6-0.7-4.2c0-1.2,0.2-2.4,0.6-3.5c0.4-1.1,1-2,1.7-2.8
		c0.7-0.8,1.7-1.4,2.7-1.9c1.1-0.5,2.3-0.7,3.6-0.7c1.1,0,2.2,0.2,3.1,0.5c1,0.4,1.8,0.9,2.5,1.6s1.2,1.6,1.6,2.6
		c0.4,1,0.6,2.2,0.6,3.5c0,0.7-0.1,1.1-0.2,1.3s-0.4,0.3-0.8,0.3H212.6z M220.9,37.8c0-0.6-0.1-1.1-0.2-1.6s-0.4-0.9-0.7-1.3
		c-0.3-0.4-0.7-0.7-1.2-0.9c-0.5-0.2-1.1-0.3-1.7-0.3c-1.3,0-2.2,0.4-3,1.1c-0.7,0.7-1.2,1.7-1.4,3H220.9z"/>
</g>
</svg>
