<?xml version="1.0" encoding="utf-8"?>
<!-- Generator: Adobe Illustrator 14.0.0, SVG Export Plug-In . SVG Version: 6.00 Build 43363)  -->
<!DOCTYPE svg PUBLIC "-//W3C//DTD SVG 1.1//EN" "http://www.w3.org/Graphics/SVG/1.1/DTD/svg11.dtd">
<svg version="1.1" id="Layer_1" xmlns="http://www.w3.org/2000/svg" xmlns:xlink="http://www.w3.org/1999/xlink" x="0px" y="0px"
	 width="32px" height="32px" viewBox="0 0 32 32" enable-background="new 0 0 32 32" xml:space="preserve">
<path fill="#FFFFFF" d="M32,6.1c-1.196,0.5-2.394,0.9-3.788,1c1.395-0.8,2.392-2.1,2.891-3.6c-1.296,0.8-2.691,1.3-4.187,1.6
	C25.72,3.8,24.024,3,22.23,3c-3.589,0-6.58,2.9-6.58,6.6c0,0.5,0.1,1,0.199,1.5C10.367,10.8,5.583,8.2,2.293,4.2
	c-0.598,1-0.897,2.1-0.897,3.3c0,2.3,1.196,4.3,2.891,5.5c-1.097,0-2.094-0.3-2.991-0.8v0.1c0,3.2,2.293,5.8,5.283,6.4
	c-0.598,0.1-1.097,0.2-1.695,0.2c-0.398,0-0.797,0-1.196-0.101C4.486,21.4,6.978,23.3,9.77,23.4c-2.193,1.8-5.084,2.8-8.175,2.8
	c-0.499,0-1.097,0-1.595-0.101C2.99,27.9,6.479,29,10.168,29C22.23,29,28.81,19,28.81,10.3c0-0.3,0-0.6,0-0.8
	C30.006,8.5,31.103,7.4,32,6.1z"/>
</svg>
