<?xml version="1.0" encoding="utf-8"?>
<!-- Generator: Adobe Illustrator 14.0.0, SVG Export Plug-In . SVG Version: 6.00 Build 43363)  -->
<!DOCTYPE svg PUBLIC "-//W3C//DTD SVG 1.1//EN" "http://www.w3.org/Graphics/SVG/1.1/DTD/svg11.dtd">
<svg version="1.1" xmlns="http://www.w3.org/2000/svg" xmlns:xlink="http://www.w3.org/1999/xlink" x="0px" y="0px" width="72px"
	 height="72px" viewBox="0 0 72 72" enable-background="new 0 0 72 72" xml:space="preserve">
<g id="Layer_2_1_">
	<rect fill="#F1F1F1" width="72" height="72"/>
</g>
<g id="Layer_1">
	<g id="Layer_3">
		<polygon fill="#474981" points="39.958,53.53 39.958,42.884 32.314,42.884 32.314,53.53 29.043,53.53 36.136,66.667 43.229,53.53 
					"/>
	</g>
	<g id="Layer_2">
		<path fill="#333333" d="M53.105,22.494c-0.118-2.519-0.784-4.891-1.873-7.012c-0.065-0.126-0.139-0.247-0.206-0.37l-0.053-0.147
			c-0.009,0.003-0.017,0.005-0.025,0.008c-2.805-5.027-8.051-8.496-14.144-8.777V6.167h-1.607v0.029
			c-6.107,0.283-11.363,3.767-14.161,8.811c-0.003-0.001-0.007-0.002-0.012-0.002l-0.021,0.062
			c-0.084,0.153-0.173,0.301-0.253,0.457c-1.079,2.111-1.737,4.469-1.855,6.972H18.87V24.1h0.041
			c0.125,2.707,0.863,5.251,2.103,7.488l0.015,0.04c0.002-0.001,0.007-0.003,0.008-0.003c2.804,5.027,8.065,8.478,14.161,8.76v0.042
			h1.605v-0.042c8.818-0.409,15.876-7.467,16.286-16.285h0.041v-1.606H53.105z M44.901,22.494c-0.036-1.5-0.158-2.95-0.379-4.314
			c1.995-0.312,3.875-0.732,5.595-1.253c0.805,1.772,1.261,3.636,1.359,5.566L44.901,22.494L44.901,22.494z M36.803,8.054
			c2.535,0.613,4.719,4.074,5.794,8.77c-1.863,0.225-3.809,0.354-5.794,0.382V8.054z M35.197,8.054v9.153
			c-1.983-0.025-3.931-0.151-5.799-0.373C30.475,12.134,32.66,8.667,35.197,8.054z M35.197,18.813v3.68h-6.493
			c0.038-1.413,0.168-2.783,0.383-4.08C31.056,18.652,33.106,18.788,35.197,18.813z M35.197,24.1v3.681
			c-2.091,0.03-4.142,0.169-6.108,0.412c-0.217-1.302-0.347-2.675-0.385-4.093H35.197z M35.197,29.387v9.153
			c-2.535-0.611-4.719-4.075-5.794-8.77C31.267,29.544,33.212,29.417,35.197,29.387z M36.803,38.54v-9.155
			c1.983,0.025,3.931,0.15,5.798,0.373C41.525,34.459,39.34,37.927,36.803,38.54z M36.803,27.779V24.1h6.492
			c-0.038,1.413-0.166,2.782-0.382,4.079C40.944,27.94,38.893,27.805,36.803,27.779z M36.803,22.494v-3.683
			c2.092-0.03,4.142-0.169,6.106-0.412c0.219,1.302,0.348,2.676,0.386,4.094H36.803z M49.389,15.476
			c-1.59,0.467-3.33,0.843-5.166,1.127c-0.779-3.535-2.165-6.423-3.922-8.224C44.086,9.467,47.348,11.977,49.389,15.476z
			 M31.7,8.376c-1.761,1.803-3.148,4.699-3.927,8.243c-1.837-0.28-3.582-0.654-5.177-1.117C24.637,11.989,27.904,9.468,31.7,8.376z
			 M21.87,16.958c1.724,0.515,3.608,0.933,5.604,1.239c-0.219,1.359-0.341,2.804-0.375,4.297h-6.576
			C20.623,20.576,21.072,18.722,21.87,16.958z M27.1,24.1c0.035,1.5,0.158,2.948,0.377,4.313c-2.002,0.311-3.89,0.734-5.616,1.259
			c-0.777-1.716-1.243-3.595-1.345-5.572H27.1z M22.612,31.118c1.591-0.468,3.331-0.844,5.166-1.127
			c0.776,3.525,2.156,6.405,3.907,8.207C27.832,37.081,24.602,34.508,22.612,31.118z M40.316,38.197
			c1.754-1.804,3.134-4.691,3.909-8.224c1.839,0.281,3.583,0.654,5.179,1.118C47.417,34.494,44.179,37.078,40.316,38.197z
			 M50.152,29.644c-1.729-0.52-3.622-0.939-5.627-1.248c0.219-1.359,0.341-2.803,0.376-4.296h6.581
			C51.382,26.065,50.922,27.936,50.152,29.644z"/>
	</g>
</g>
</svg>
