<?xml version="1.0" encoding="utf-8"?>
<!-- Generator: Adobe Illustrator 23.0.1, SVG Export Plug-In . SVG Version: 6.00 Build 0)  -->
<svg version="1.1" id="Layer_1" xmlns="http://www.w3.org/2000/svg" xmlns:xlink="http://www.w3.org/1999/xlink" x="0px" y="0px"
	 viewBox="0 0 400 150" style="enable-background:new 0 0 400 150;" xml:space="preserve">
<style type="text/css">
	.st0{fill:#FF3008;}
</style>
<path class="st0" d="M126.5,66.2v17.9h4.5c2.3,0,4.5-1,6.1-2.7c1.6-1.7,2.5-4,2.4-6.3c0.1-2.3-0.8-4.6-2.4-6.3
	c-1.6-1.7-3.8-2.6-6.1-2.6L126.5,66.2L126.5,66.2z M131,60.6c8.3,0,14.6,6.4,14.6,14.5s-6.3,14.6-14.6,14.6h-9.8
	c-0.4,0-0.7-0.3-0.7-0.7c0,0,0,0,0,0V61.4c0-0.4,0.3-0.7,0.7-0.7C121.2,60.7,131,60.6,131,60.6z M167,84.7c3.8,0,7.2-2.3,8.6-5.9
	c1.5-3.6,0.7-7.6-2-10.4c-2.6-2.7-6.7-3.6-10.2-2.1c-3.5,1.5-5.8,5-5.8,8.8C157.7,80.4,161.8,84.7,167,84.7 M167,60
	c8.7,0,15.4,6.9,15.4,15.2s-6.7,15.2-15.4,15.2c-8.7,0-15.4-6.9-15.4-15.2S158.3,60,167,60 M203.7,84.7c5.1,0,9.3-4.3,9.3-9.6
	c0-5.3-4.2-9.6-9.3-9.6c-5.1,0-9.3,4.3-9.3,9.5c0,2.5,1,5,2.7,6.8C198.8,83.7,201.2,84.7,203.7,84.7 M203.7,60
	c8.7,0,15.4,6.9,15.4,15.2s-6.7,15.2-15.4,15.2c-8.7,0-15.4-6.9-15.4-15.2S194.9,60,203.7,60 M239.4,66.2h-6.3v7.7h6.3
	c1,0,2-0.3,2.7-1c0.7-0.7,1.1-1.7,1.2-2.7c0-1.1-0.4-2.1-1.1-2.8C241.5,66.6,240.5,66.2,239.4,66.2L239.4,66.2L239.4,66.2z
	 M227.1,61.4c0-0.4,0.3-0.7,0.7-0.7h11.8c5.6,0,9.7,4.2,9.7,9.6c0,3.6-1.9,6.9-5.1,8.5l5.5,9.9c0.2,0.2,0.2,0.5,0,0.8
	c-0.1,0.2-0.4,0.4-0.7,0.4h-4.8c-0.3,0-0.5-0.1-0.6-0.4l-5.3-9.8h-5.3V89c0,0.4-0.3,0.7-0.7,0.7c0,0,0,0,0,0h-4.6
	c-0.4,0-0.7-0.3-0.7-0.7c0,0,0,0,0,0L227.1,61.4L227.1,61.4z M265.2,66.4v17.9h4.5c2.3,0,4.5-1,6.1-2.7c1.6-1.7,2.5-3.9,2.4-6.3
	c0.1-2.3-0.8-4.6-2.4-6.3c-1.6-1.7-3.8-2.6-6.1-2.6C269.6,66.4,265.2,66.4,265.2,66.4z M269.6,60.8c8.3,0,14.6,6.4,14.6,14.6
	s-6.3,14.6-14.6,14.6h-9.8c-0.4,0-0.7-0.3-0.7-0.7c0,0,0,0,0,0V61.5c0-0.4,0.3-0.7,0.7-0.7L269.6,60.8L269.6,60.8z M302.8,67.9
	l-3.4,9.6h6.9L302.8,67.9z M297.3,82.8l-2.3,6.4c-0.1,0.3-0.4,0.5-0.7,0.5h-4.9c-0.3,0-0.5-0.1-0.6-0.3c-0.1-0.2-0.2-0.5-0.1-0.7
	l10.6-27.6c0.1-0.3,0.4-0.5,0.7-0.5h5.5c0.3,0,0.6,0.2,0.7,0.5l10.6,27.6c0.1,0.2,0.1,0.5-0.1,0.7c-0.1,0.2-0.4,0.3-0.6,0.3h-4.9
	c-0.3,0-0.6-0.2-0.7-0.5l-2.3-6.4L297.3,82.8L297.3,82.8z M322.5,68.5c0-4.6,3.9-8.5,9.9-8.5c3.3-0.1,6.4,1.2,8.8,3.4
	c0.3,0.3,0.3,0.7,0,1c0,0,0,0,0,0l-2.7,2.8c-0.3,0.3-0.7,0.3-1,0c0,0,0,0,0,0c-1.3-1.2-3-1.9-4.7-1.9c-2.4,0-4.2,1.4-4.2,3.1
	c0,5.4,14.4,2.3,14.4,12.7c0,5.3-3.9,9.3-10.7,9.3c-3.8,0-7.5-1.5-10.3-4.2c-0.3-0.3-0.3-0.7,0-1c0,0,0,0,0,0l2.6-2.7
	c0.3-0.3,0.7-0.3,1,0c0,0,0,0,0,0c1.7,1.6,3.9,2.6,6.2,2.6c3,0,5-1.7,5-3.7C336.8,75.8,322.4,78.9,322.5,68.5 M369,61.4v10.9h-12.2
	V61.4c0-0.4-0.3-0.7-0.7-0.7c0,0,0,0,0,0h-4.6c-0.4,0-0.7,0.3-0.7,0.7c0,0,0,0,0,0v27.6c0,0.4,0.3,0.7,0.7,0.7h4.6
	c0.4,0,0.7-0.3,0.7-0.7V77.9H369v11.1c0,0.4,0.3,0.7,0.7,0.7h4.6c0.4,0,0.7-0.3,0.7-0.7V61.4c0-0.4-0.3-0.7-0.7-0.7c0,0,0,0,0,0
	h-4.6C369.3,60.6,369,61,369,61.4z M94.6,64.3c-3.2-5.9-9.5-9.6-16.3-9.6H26.8c-0.7,0-1.4,0.4-1.6,1.1c-0.3,0.7-0.1,1.4,0.4,1.9
	l11.2,11.1c1,1,2.3,1.5,3.7,1.5h36.3c2.6,0,4.7,2,4.7,4.6c0,2.6-2,4.6-4.6,4.7h-25c-0.7,0-1.4,0.4-1.6,1.1c-0.3,0.7-0.1,1.4,0.4,1.9
	l11.2,11.1c1,1,2.3,1.5,3.7,1.5h11.3C91.6,95.3,102.8,79.7,94.6,64.3"/>
</svg>
