<?xml version="1.0" encoding="utf-8"?>
<!-- Generator: Adobe Illustrator 23.0.1, SVG Export Plug-In . SVG Version: 6.00 Build 0)  -->
<svg version="1.1" xmlns="http://www.w3.org/2000/svg" xmlns:xlink="http://www.w3.org/1999/xlink" x="0px" y="0px"
	 viewBox="0 0 223.2 100.8" style="enable-background:new 0 0 223.2 100.8;" xml:space="preserve">
<style type="text/css">
	.st0{fill:#7E5F48;}
</style>
<g id="cast_iron_pan">
</g>
<g id="pan_pasta_text">
	<path class="st0" d="M148.7,73.2H85.4c0,0,1,1.6,1.2,1.9c0.7,1.2,1.3,2.5,1.9,3.8c-0.2,0-0.4,0-0.4,0c-0.7,0-4.6-0.3-8.4-1.4
		c-12.6-3.9-17.1-6.2-34.5-11.8C22,58,4,62.5,4,62.5c0.6,4.7,5.3,7.4,5.3,7.4s9.5-3.1,27.1,1.1c10.1,2.4,41,13.9,45.7,15.2
		c4.8,1.3,8.3,1.9,9.9,2.1c0.6,1.6,1.3,3.2,2.2,5c1.5,3,4.6,3,4.6,3h49.9h49.9c0,0,3.1,0,4.6-3c3.9-7.9,4.4-13.3,7.5-18.3
		c0.2-0.3,1.2-1.9,1.2-1.9H148.7z"/>
	<g>
		<path class="st0" d="M113.1,32.3V4.3h12.5c1.8,0,3.3,0.7,4.6,2.2c1.3,1.5,1.9,3.3,1.9,5.4c0,2.2-0.6,4-1.9,5.6
			c-1.2,1.5-2.8,2.3-4.6,2.3H115v12.6H113.1z M125.3,18c1.4,0,2.5-0.6,3.5-1.7c1-1.1,1.4-2.5,1.4-4.1c0-1.7-0.5-3.1-1.4-4.3
			c-1-1.2-2.1-1.8-3.5-1.8H115V18H125.3z"/>
		<path class="st0" d="M133.8,32.3l11-28.1h2.3l10.8,28.1h-2.1l-3.5-9h-12.8l-3.5,9H133.8z M151.6,21.6l-5.7-15.1L140,21.6H151.6z"
			/>
		<path class="st0" d="M162.9,32.3V4.3h2.6L182.2,30V4.3h1.9v28.1h-2.6L164.7,7v25.4H162.9z"/>
	</g>
	<g>
		<path class="st0" d="M95.1,66.1V39.4H107c1.7,0,3.2,0.7,4.4,2.1c1.2,1.4,1.8,3.1,1.8,5.1c0,2.1-0.6,3.8-1.8,5.3
			c-1.2,1.5-2.6,2.2-4.4,2.2H96.8v12H95.1z M106.6,52.4c1.3,0,2.4-0.5,3.3-1.6c0.9-1.1,1.4-2.3,1.4-3.9c0-1.6-0.5-3-1.4-4.1
			c-0.9-1.1-2-1.7-3.3-1.7h-9.8v11.3H106.6z"/>
		<path class="st0" d="M113.8,66.1l10.4-26.7h2.2l10.3,26.7h-2l-3.4-8.6h-12.2l-3.4,8.6H113.8z M130.7,55.8l-5.4-14.4l-5.6,14.4
			H130.7z"/>
		<path class="st0" d="M141.6,64.2c-1.8-1.7-2.7-3.8-2.7-6.3h1.8c0,2,0.7,3.7,2.2,5.1c1.5,1.4,3.2,2.1,5.2,2.1
			c2.2,0,4.1-0.6,5.7-1.8c1.6-1.2,2.4-2.7,2.4-4.4c0-1.5-0.7-2.7-2.1-3.7c-1.4-1-3.2-1.6-5.5-1.8c-2.8-0.2-5.1-1.1-6.8-2.4
			c-1.7-1.4-2.5-3.1-2.5-5.1c0-2,0.9-3.7,2.6-5.1c1.7-1.4,3.8-2.1,6.2-2.1c2.6,0,4.8,0.7,6.7,2.2c1.8,1.5,2.8,3.2,2.8,5.3h-1.8
			c0-1.6-0.8-3-2.3-4.1c-1.5-1.1-3.3-1.7-5.4-1.7c-1.9,0-3.6,0.5-5,1.6c-1.4,1.1-2,2.3-2,3.9c0,1.5,0.7,2.8,2.1,3.8
			c1.5,1,3.4,1.6,5.7,1.8c2.7,0.2,4.9,1,6.6,2.4c1.6,1.4,2.4,3,2.4,5c0,2.2-1,4-2.9,5.5c-1.9,1.5-4.3,2.3-7,2.3
			C145.6,66.8,143.4,65.9,141.6,64.2z"/>
		<path class="st0" d="M168.3,66.1v-25h-9v-1.8h19.9v1.8h-9.1v25H168.3z"/>
		<path class="st0" d="M179.1,66.1l10.4-26.7h2.2l10.3,26.7h-2l-3.4-8.6h-12.2l-3.4,8.6H179.1z M196,55.8l-5.4-14.4L185,55.8H196z"
			/>
	</g>
	<g>
		<path class="st0" d="M211.7,96.4v-5.5h-1.9v-0.4h4.3v0.4h-2v5.5H211.7z"/>
		<path class="st0" d="M214.7,96.4v-5.9h0.6l2.1,5.4l2.1-5.4h0.6v5.9h-0.4v-5.4l-2.1,5.4h-0.4l-2.1-5.4v5.4H214.7z"/>
	</g>
</g>
</svg>
