<?xml version="1.0" encoding="utf-8"?>
<!-- Generator: Adobe Illustrator 14.0.0, SVG Export Plug-In . SVG Version: 6.00 Build 43363)  -->
<!DOCTYPE svg PUBLIC "-//W3C//DTD SVG 1.1//EN" "http://www.w3.org/Graphics/SVG/1.1/DTD/svg11.dtd">
<svg version="1.1" xmlns="http://www.w3.org/2000/svg" xmlns:xlink="http://www.w3.org/1999/xlink" x="0px" y="0px" width="22px"
	 height="22px" viewBox="0 0 22 22" enable-background="new 0 0 22 22" xml:space="preserve">
<g id="Layer_2">
	<rect fill="#F8F8F8" width="22" height="22"/>
</g>
<g id="Layer_1">
	<g>
		<path d="M9.446,4.863l0.107-0.361h6.465l-0.127,0.361c-0.586,0-1.033,0.13-1.343,0.391s-0.581,0.804-0.815,1.631l-2.422,8.477
			c-0.176,0.599-0.264,0.999-0.264,1.201c0,0.234,0.091,0.417,0.273,0.547c0.234,0.169,0.677,0.261,1.328,0.273l-0.098,0.361H5.979
			l0.107-0.361c0.658,0,1.139-0.125,1.445-0.376s0.583-0.799,0.83-1.646l2.441-8.477c0.15-0.521,0.225-0.915,0.225-1.182
			c0-0.241-0.091-0.43-0.273-0.566S10.136,4.909,9.446,4.863z"/>
	</g>
</g>
</svg>
