<?xml version="1.0" encoding="utf-8"?>
<!-- Generator: Adobe Illustrator 23.0.1, SVG Export Plug-In . SVG Version: 6.00 Build 0)  -->
<svg version="1.1" id="Layer_1" xmlns="http://www.w3.org/2000/svg" xmlns:xlink="http://www.w3.org/1999/xlink" x="0px" y="0px"
	 viewBox="0 0 439.2 129.6" style="enable-background:new 0 0 439.2 129.6;" xml:space="preserve">
<style type="text/css">
	.st0{fill:#721011;}
</style>
<g>
	<path d="M178.94,37.6c-2.24,7.52-7.79,13.21-17.82,13.21c-13.62,0-20.81-10.84-20.81-24.19c0-12.81,7.05-24.46,20.87-24.46
		c10.23,0,16.26,5.69,17.82,13.62h-3.66c-2.17-6.17-6.17-10.23-14.37-10.23c-11.79,0-16.74,10.77-16.74,21.01
		c0,10.17,4.88,20.87,17.01,20.87c7.73,0,11.66-4,14.03-9.83H178.94z"/>
	<path d="M215,33.26c0,9.42-5.22,17.82-15.32,17.82c-9.15,0-14.84-7.52-14.84-17.76c0-9.69,5.35-17.76,15.18-17.76
		C209.03,15.57,215,22.62,215,33.26z M188.43,33.33c0,8.06,4.34,14.57,11.52,14.57c7.32,0,11.45-6.03,11.45-14.57
		c0-8-4.07-14.57-11.59-14.57C192.09,18.76,188.43,25.2,188.43,33.33z"/>
	<path d="M223.06,24.93c0-2.98,0-5.83-0.07-8.54h3.32c0.14,1.08,0.2,5.49,0.14,6.44c1.49-3.46,4.27-7.25,11.25-7.25
		c6.03,0,11.39,3.39,11.39,12.74v21.96h-3.39V28.86c0-6.03-2.51-9.96-8.4-9.96c-8.06,0-10.84,6.71-10.84,14.1v17.28h-3.39V24.93z"/>
	<path d="M287.31,33.26c0,9.42-5.22,17.82-15.32,17.82c-9.15,0-14.84-7.52-14.84-17.76c0-9.69,5.35-17.76,15.18-17.76
		C281.35,15.57,287.31,22.62,287.31,33.26z M260.75,33.33c0,8.06,4.34,14.57,11.52,14.57c7.32,0,11.45-6.03,11.45-14.57
		c0-8-4.07-14.57-11.59-14.57C264.41,18.76,260.75,25.2,260.75,33.33z"/>
	<path d="M295.38,25.6c0-5.69-0.07-8.13-0.07-9.22h3.32c0.07,1.08,0.14,3.25,0.14,7.59c1.96-5.08,6.3-8.13,11.79-8.4v3.66
		c-7.05,0.47-11.79,5.35-11.79,13.42v17.62h-3.39V25.6z"/>
	<path d="M178.94,100.54c-2.24,7.52-7.79,13.22-17.82,13.22c-13.62,0-20.81-10.84-20.81-24.19c0-12.81,7.05-24.46,20.87-24.46
		c10.23,0,16.26,5.69,17.82,13.62h-3.66c-2.17-6.17-6.17-10.23-14.37-10.23c-11.79,0-16.74,10.77-16.74,21.01
		c0,10.17,4.88,20.87,17.01,20.87c7.73,0,11.66-4,14.03-9.83H178.94z"/>
	<path d="M215,96.2c0,9.42-5.22,17.82-15.32,17.82c-9.15,0-14.84-7.52-14.84-17.75c0-9.69,5.35-17.76,15.18-17.76
		C209.03,78.52,215,85.56,215,96.2z M188.43,96.27c0,8.06,4.34,14.57,11.52,14.57c7.32,0,11.45-6.03,11.45-14.57
		c0-8-4.07-14.57-11.59-14.57C192.09,81.7,188.43,88.14,188.43,96.27z"/>
	<path d="M223.06,87.87c0-2.98,0-5.83-0.07-8.54h3.32c0.14,1.08,0.2,5.49,0.14,6.44c1.49-3.46,4.27-7.25,11.25-7.25
		c6.03,0,11.39,3.39,11.39,12.74v21.96h-3.39V91.8c0-6.03-2.51-9.96-8.4-9.96c-8.06,0-10.84,6.71-10.84,14.1v17.28h-3.39V87.87z"/>
	<path d="M259.66,103.86c1.15,4.4,4.27,7.05,9.62,7.05c6.03,0,8.47-2.78,8.47-6.57c0-3.86-1.63-5.76-9.22-7.59
		c-8.74-2.1-10.91-4.74-10.91-9.22c0-4.68,3.52-9.01,11.18-9.01c7.66,0,11.32,4.68,11.86,9.49h-3.39c-0.61-2.85-2.85-6.37-8.61-6.37
		c-5.9,0-7.59,2.91-7.59,5.63c0,3.12,1.63,4.68,8.34,6.3c9.56,2.3,11.93,5.42,11.93,10.5c0,6.17-5.02,9.96-12.13,9.96
		c-7.73,0-12.06-4.07-13.01-10.16H259.66z"/>
	<path d="M313.95,103.32c0,3.32,0.07,8.61,0.07,9.89h-3.25c-0.14-0.88-0.2-3.12-0.2-5.9c-1.42,4-4.88,6.71-10.91,6.71
		c-4.88,0-11.11-1.9-11.11-12.27V79.33h3.32v21.62c0,4.95,1.56,9.76,8.27,9.76c7.59,0,10.44-4.27,10.44-13.96V79.33h3.39V103.32z"/>
	<path d="M324.73,113.21V63.27h3.39v49.95H324.73z"/>
	<path d="M334.28,79.33h6.3V68.76h3.39v10.57h8.06v3.18h-8.06v22.02c0,3.8,0.81,5.96,4.07,5.96c1.02,0,2.44-0.07,3.52-0.41v2.98
		c-1.15,0.47-2.78,0.61-4.2,0.61c-4.34,0-6.78-2.17-6.78-7.59V82.51h-6.3V79.33z"/>
	<path d="M358.61,63.27H362v6.57h-3.39V63.27z M358.61,79.33H362v33.88h-3.39V79.33z"/>
	<path d="M372.78,87.87c0-2.98,0-5.83-0.07-8.54h3.32c0.14,1.08,0.2,5.49,0.14,6.44c1.49-3.46,4.27-7.25,11.25-7.25
		c6.03,0,11.39,3.39,11.39,12.74v21.96h-3.39V91.8c0-6.03-2.51-9.96-8.4-9.96c-8.06,0-10.84,6.71-10.84,14.1v17.28h-3.39V87.87z"/>
	<path d="M435.46,110.91c0,10.84-4.81,16.54-14.64,16.54c-8.81,0-12.47-4.95-13.28-10.1H411c1.22,4.68,5.08,6.91,9.96,6.91
		c8.81,0,11.25-5.69,11.25-14.3v-3.52c-1.83,4.41-5.15,6.78-11.32,6.78c-7.93,0-14.03-6.44-14.03-16.94
		c0-11.39,6.51-17.76,14.5-17.76c6.91,0,9.89,3.25,10.84,5.96c0.07-1.97,0.14-4.34,0.2-5.15h3.19c0,1.22-0.14,6.57-0.14,9.83V110.91
		z M410.46,96.13c0,8.06,4.27,13.89,10.78,13.89c8.47,0,11.05-5.63,11.05-14.43c0-8.95-2.71-13.89-10.84-13.89
		C413.64,81.7,410.46,88.41,410.46,96.13z"/>
</g>
<path class="st0" d="M71.63,48.72c0,0-15.42,16.33-9.52,31.44s8.92,21.01,6.8,33.86c0,0-2.57-12.85-14.06-19.05
	S42.75,75.63,44.57,70.19C46.38,64.74,55.45,55.07,71.63,48.72z"/>
<path class="st0" d="M109.83,21.2c-4.03-1.93-15.27-4.03-15.27-4.03l3.98-3.53L75.11,2.16c0,0-27.68-0.08-37.42,2.91
	C25.43,10.3,17.36,20.45,17.36,20.45c8.77-5.14,16.93-3.17,16.93-3.17C15.85,23.77,3.6,57.18,3.6,57.18
	c12.55-19.5,39.05-27.31,39.05-27.31C19.37,48.32,14.94,92.71,14.94,92.71c28.27-53.82,74.42-62.25,74.42-62.25s9.07-0.6,17.25,0.32
	c2.38,0.27,0.25,5.08,0.25,5.08c4.01-4.14,5.33-6.92,5.74-8.92C112.84,25.78,113.81,23.11,109.83,21.2z M74.1,14.9
	c0.17,0.35,0.45,0.58,0.91,0.68c0.53,0.11,1.07,0.14,1.64,0.13c1.14-0.04,2.39-0.08,3.55,0.18c1.17,0.23,2.28,0.63,3.35,1.09
	c-1.12-0.31-2.27-0.56-3.41-0.63c-1.15-0.1-2.24,0.1-3.42,0.29c-0.59,0.09-1.22,0.14-1.85,0.1c-0.7-0.01-1.54-0.41-1.98-1.07
	c-0.45-0.64-0.62-1.35-0.7-2.01c-0.05-0.42-0.05-0.83-0.03-1.24c-2.25-0.28-4.51-0.54-6.79-0.83c2-0.33,4.03-0.41,6.06-0.38
	c2.03,0.03,4.05,0.22,6.05,0.5c2,0.31,3.99,0.76,5.93,1.37c1.94,0.62,3.82,1.43,5.55,2.48c-1.97-0.51-3.89-1-5.84-1.4
	c-1.95-0.38-3.9-0.76-5.86-1.04c-1.08-0.17-2.17-0.32-3.26-0.46C73.85,13.45,73.83,14.33,74.1,14.9z"/>
</svg>
