<?xml version="1.0" encoding="utf-8"?>
<!-- Generator: Adobe Illustrator 22.0.1, SVG Export Plug-In . SVG Version: 6.00 Build 0)  -->
<svg version="1.1" xmlns="http://www.w3.org/2000/svg" xmlns:xlink="http://www.w3.org/1999/xlink" x="0px" y="0px"
	 viewBox="0 0 365 130" style="enable-background:new 0 0 365 130;" xml:space="preserve">
<style type="text/css">
	.st0{display:none;}
	.st1{display:inline;fill:#FFFFFF;}
	.st2{fill:#FFFFFF;}
	.st3{fill:#A30134;}
	.st4{fill:#0054A4;}
</style>
<g id="white_bg" class="st0">
	<rect class="st1" width="365" height="130"/>
</g>
<g id="white_stripes">
	<g>
		<polygon class="st2" points="58,15 40.7,15 40.7,115.3 58,115.3 78.7,65.2 		"/>
	</g>
</g>
<g id="stripes_arrow">
	<g>
		<polygon class="st3" points="38.3,88.5 38.3,97.1 58,97.1 65.5,97.1 69,88.5 58,88.5 		"/>
		<polygon class="st3" points="69.1,41.9 65.5,33.3 58,33.3 38.3,33.3 38.3,41.9 58,41.9 		"/>
		<polygon class="st3" points="61.5,23.7 58,15 58,15 58,15 38.3,15 38.3,23.7 58,23.7 		"/>
		<polygon class="st3" points="38.3,106.7 38.3,115.3 58,115.3 58,115.3 61.5,106.7 58,106.7 		"/>
		<polygon class="st3" points="76.4,59.8 72.9,51.2 58,51.2 38.3,51.2 38.3,59.8 58,59.8 		"/>
		<polygon class="st3" points="76.5,70.4 58,70.4 38.3,70.4 38.3,79 58,79 73,79 		"/>
	</g>
</g>
<g id="name_bold">
	<g>
		<polygon points="95.6,24.8 92.2,57.4 92,58.5 93.2,58.5 101.3,58.5 102.2,58.5 102.3,57.6 105.8,24.8 116.9,24.8 117.8,24.8 
			117.9,23.9 118.6,17 118.7,15.9 117.6,15.9 85.4,15.9 84.5,15.9 84.4,16.8 83.7,23.7 83.5,24.8 84.7,24.8 		"/>
		<path d="M130.3,41.6c2.2,0,3.2,0.2,3.7,0.4c0.7,0.2,1.3,0.7,1.9,1.4c0.4,0.5,1.4,2,3.6,5.8l5,8.8l0.3,0.5h0.6h9.8h1.6l-0.8-1.5
			l-4.1-7.9c-1.7-3.3-3-5.5-4.1-6.8c-0.6-0.8-1.4-1.5-2.3-2.2c2.7-0.7,5-1.9,6.6-3.6c2.2-2.1,3.4-4.9,3.8-8.2c0.3-2.6-0.1-4.9-1.2-7
			c-1.1-2.1-2.7-3.5-4.8-4.4c-2-0.8-5.2-1.2-9.7-1.2h-17.3H122l-0.1,0.9l-4.3,40.6l-0.1,1.1h1.1h8.2h0.9l0.1-0.9l1.7-16.1H130.3z
			 M145.5,28.7c-0.1,1-0.4,1.9-0.9,2.5c-0.5,0.7-1.2,1.1-2,1.4c-0.6,0.2-2.4,0.4-7.1,0.4h-5l0.9-8.3h5.5c4.1,0,5.4,0.1,5.8,0.1
			c1,0.2,1.8,0.6,2.3,1.2C145.4,26.8,145.6,27.6,145.5,28.7z"/>
		<polygon points="190.5,58.5 191.4,58.5 191.5,57.6 192.2,50.8 192.3,49.7 191.2,49.7 169.6,49.7 170.6,40.6 190.1,40.6 191,40.6 
			191.1,39.7 191.8,32.9 191.9,31.8 190.8,31.8 171.5,31.8 172.2,24.8 193.2,24.8 194.2,24.8 194.2,23.9 195,17 195.1,15.9 
			194,15.9 163.9,15.9 163,15.9 162.9,16.8 158.6,57.4 158.5,58.5 159.6,58.5 		"/>
		<polygon points="220.6,58 220.9,58.5 221.5,58.5 229.7,58.5 230.6,58.5 230.7,57.6 235,17 235.1,15.9 234,15.9 226.4,15.9 
			225.5,15.9 225.4,16.8 222.9,40.6 210.6,16.5 210.4,15.9 209.8,15.9 201.8,15.9 200.9,15.9 200.8,16.8 196.5,57.4 196.4,58.5 
			197.5,58.5 205.1,58.5 206,58.5 206.1,57.6 208.6,34.5 		"/>
		<polygon points="256.6,58.5 256.7,57.6 260.2,24.8 271.3,24.8 272.2,24.8 272.3,23.9 273,17 273.1,15.9 272,15.9 239.7,15.9 
			238.8,15.9 238.7,16.8 238,23.7 237.9,24.8 239,24.8 250,24.8 246.5,57.4 246.4,58.5 247.5,58.5 255.7,58.5 		"/>
		<polygon points="271.9,58.5 273,58.5 303.9,58.5 304.8,58.5 304.9,57.6 305.6,50.8 305.7,49.7 304.6,49.7 283.1,49.7 284,40.6 
			303.5,40.6 304.4,40.6 304.5,39.7 305.2,32.9 305.3,31.8 304.2,31.8 284.9,31.8 285.7,24.8 306.7,24.8 307.6,24.8 307.7,23.9 
			308.4,17 308.5,15.9 307.4,15.9 277.3,15.9 276.4,15.9 276.3,16.8 272,57.4 		"/>
		<polygon points="347.4,15.9 339.8,15.9 338.9,15.9 338.8,16.8 336.3,40.6 324.1,16.5 323.8,15.9 323.2,15.9 315.2,15.9 
			314.3,15.9 314.2,16.8 309.9,57.4 309.8,58.5 310.9,58.5 318.5,58.5 319.4,58.5 319.5,57.6 322,34.5 334,58 334.3,58.5 
			334.9,58.5 343.1,58.5 344,58.5 344.1,57.6 348.4,17 348.5,15.9 		"/>
	</g>
	<g>
		<polygon points="113.9,71.5 113.2,71.5 113,72.1 104.1,96.3 100.3,72.3 100.1,71.5 99.3,71.5 87,71.5 86.1,71.5 86,72.4 81.8,113 
			81.6,114.1 82.7,114.1 90.4,114.1 91.3,114.1 91.4,113.2 93.9,89.2 97.4,113.2 97.5,114.1 98.4,114.1 106.3,114.1 107,114.1 
			107.2,113.4 115.8,89.3 113.3,113 113.2,114.1 114.3,114.1 122,114.1 122.9,114.1 122.9,113.2 127.2,72.6 127.3,71.5 126.2,71.5 
					"/>
		<polygon points="134.4,71.5 133.5,71.5 133.4,72.4 129.1,113 129,114.1 130.1,114.1 161,114.1 161.9,114.1 162,113.2 162.7,106.4 
			162.8,105.2 161.7,105.2 140.1,105.2 141.1,96.2 160.6,96.2 161.5,96.2 161.5,95.3 162.3,88.5 162.4,87.4 161.3,87.4 142,87.4 
			142.7,80.4 163.7,80.4 164.6,80.4 164.7,79.5 165.5,72.6 165.6,71.5 164.5,71.5 		"/>
		<path d="M201.2,104.7c-1.7-3.2-3-5.5-4.1-6.8c-0.7-0.8-1.4-1.5-2.3-2.2c2.7-0.7,5-1.9,6.6-3.6c2.2-2.1,3.4-4.9,3.8-8.2
			c0.3-2.6-0.1-4.9-1.2-7c-1.1-2.1-2.7-3.5-4.8-4.4c-2-0.8-5.2-1.2-9.7-1.2h-17.2h-0.9l-0.1,0.9L167,113l-0.1,1.1h1.1h8.2h0.9
			l0.1-0.9l1.7-16.1h0.8c2.2,0,3.2,0.2,3.7,0.4c0.7,0.2,1.3,0.7,1.9,1.4c0.6,0.8,1.9,2.7,3.6,5.8l5,8.8l0.3,0.5h0.6h9.8h1.6
			l-0.8-1.5L201.2,104.7z M180.6,80.4h5.5c4.1,0,5.4,0.1,5.8,0.1c1,0.2,1.8,0.6,2.3,1.2c0.5,0.6,0.7,1.5,0.5,2.6
			c-0.1,1-0.4,1.9-0.9,2.5c-0.5,0.7-1.2,1.1-2,1.4c-0.6,0.2-2.4,0.4-7.1,0.4h-5L180.6,80.4z"/>
		<path d="M242.2,104.7c-1.7-3.2-3-5.5-4.1-6.8c-0.7-0.8-1.4-1.5-2.3-2.2c2.7-0.7,5-1.9,6.6-3.6c2.2-2.1,3.4-4.9,3.8-8.2
			c0.3-2.6-0.1-4.9-1.2-7c-1.1-2.1-2.7-3.5-4.8-4.4c-2-0.8-5.2-1.2-9.7-1.2h-17.2h-0.9l-0.1,0.9l-4.3,40.6l-0.1,1.1h1.1h8.2h0.9
			l0.1-0.9l1.7-16.1h0.8c2.2,0,3.2,0.2,3.7,0.4c0.7,0.2,1.3,0.7,1.9,1.4c0.6,0.8,1.9,2.7,3.6,5.8l5,8.8l0.3,0.5h0.6h9.8h1.6
			l-0.8-1.5L242.2,104.7z M221.5,80.4h5.5c4.1,0,5.4,0.1,5.8,0.1c1,0.2,1.8,0.6,2.3,1.2c0.5,0.6,0.7,1.5,0.5,2.6
			c-0.1,1-0.4,1.9-0.9,2.5c-0.5,0.7-1.2,1.1-2,1.4c-0.6,0.2-2.4,0.4-7.1,0.4h-5L221.5,80.4z"/>
		<polygon points="253.8,71.5 252.9,71.5 252.8,72.4 248.6,113 248.5,114.1 249.6,114.1 257.8,114.1 258.7,114.1 258.8,113.2 
			263,72.6 263.1,71.5 262,71.5 		"/>
		<polygon points="275.8,105.2 279.2,72.9 279.3,71.8 278.2,71.8 270,71.8 269.1,71.8 269,72.7 264.8,113 264.7,114.1 265.8,114.1 
			294.4,114.1 295.3,114.1 295.4,113.2 296.1,106.4 296.2,105.2 295.1,105.2 		"/>
		<polygon points="310.5,105.2 313.9,72.9 314,71.8 312.9,71.8 304.7,71.8 303.8,71.8 303.7,72.7 299.4,113 299.3,114.1 
			300.4,114.1 329,114.1 329.9,114.1 330,113.2 330.7,106.4 330.8,105.2 329.7,105.2 		"/>
	</g>
</g>
<g id="star_bg">
	<polygon class="st4" points="50.7,65.2 40.7,115.3 15.7,115.3 25.7,65.2 15.7,15 40.7,15 	"/>
</g>
<g id="stars">
	<g>
		<g>
			<polygon class="st2" points="25.6,92.8 30.4,92.8 32.2,87.7 34.2,92.8 39,92.8 35.3,96.1 36.7,101.2 32.3,98.4 28.2,101.2 
				29.4,96.1 			"/>
		</g>
		<g>
			<polygon class="st2" points="30.6,63.5 35.4,63.5 37.2,58.4 39.2,63.5 44,63.5 40.3,66.8 41.7,71.9 37.3,69.1 33.2,71.9 
				34.4,66.8 			"/>
		</g>
		<g>
			<polygon class="st2" points="26.6,34.3 31.4,34.3 33.2,29.2 35.2,34.3 40,34.3 36.3,37.6 37.7,42.7 33.3,39.9 29.2,42.7 
				30.4,37.6 			"/>
		</g>
	</g>
</g>
</svg>
